<svg id="Layer_1" data-name="Layer 1" xmlns="http://www.w3.org/2000/svg" xmlns:xlink="http://www.w3.org/1999/xlink" width="1600" height="900" viewBox="0 0 1600 900"><defs><style>.cls-1{fill:url(#linear-gradient);}.cls-2{fill:#fcb9d7;}.cls-3{fill:#ff97c1;}.cls-4{fill:#ff6ea2;}.cls-10,.cls-5{fill:#fff;}.cls-5{opacity:0.2;}.cls-6{fill:#bb0068;}.cls-7{fill:#822e5a;}.cls-8{fill:#47283a;}.cls-9{fill:#381c2d;}.cls-11{fill:none;stroke:#822e5a;stroke-miterlimit:10;}</style><linearGradient id="linear-gradient" x1="800" y1="898.9" x2="800" y2="-1.1" gradientUnits="userSpaceOnUse"><stop offset="0" stop-color="#ff7bac"/><stop offset="0.37" stop-color="#ff7bac" stop-opacity="0.99"/><stop offset="0.51" stop-color="#ff7bac" stop-opacity="0.97"/><stop offset="0.6" stop-color="#ff7bac" stop-opacity="0.92"/><stop offset="0.68" stop-color="#ff7bac" stop-opacity="0.85"/><stop offset="0.75" stop-color="#ff7bac" stop-opacity="0.77"/><stop offset="0.8" stop-color="#ff7bac" stop-opacity="0.66"/><stop offset="0.86" stop-color="#ff7bac" stop-opacity="0.53"/><stop offset="0.91" stop-color="#ff7bac" stop-opacity="0.39"/><stop offset="0.95" stop-color="#ff7bac" stop-opacity="0.22"/><stop offset="0.99" stop-color="#ff7bac" stop-opacity="0.04"/><stop offset="1" stop-color="#ff7bac" stop-opacity="0"/></linearGradient></defs><title>Baggrund</title><rect class="cls-1" width="1600" height="900"/><circle class="cls-2" cx="1250.5" cy="294.5" r="331.5"/><circle class="cls-3" cx="1250" cy="290" r="290"/><circle class="cls-4" cx="1250" cy="294" r="258"/><path class="cls-5" d="M250,90.43l-1-4.14a16.62,16.62,0,0,0-6.93-6.86L236.63,77a42.55,42.55,0,0,0-13.13-2.12,10.86,10.86,0,0,0,1.48-2,8,8,0,0,0,2.32-6l-1-4.13a16.67,16.67,0,0,0-6.94-6.87L214,53.47a40.61,40.61,0,0,0-8-1.78c0-.16,0-.31,0-.47l-1-4.14a16.59,16.59,0,0,0-6.94-6.86l-5.45-2.43A42.78,42.78,0,0,0,179,35.66h-.13a5,5,0,0,0,.91-2.65c0-1.72-1.32-3.77-3.55-4.95a17.56,17.56,0,0,0-8.58-2l-3.22.25a15.55,15.55,0,0,0-5.35,1.8l-17,7.6a32.58,32.58,0,0,0-8.7,1.34,25,25,0,0,0-8.68,3.22,13.44,13.44,0,0,0-5.57,5,8,8,0,0,0-2.32,6l0,.13A32.13,32.13,0,0,0,108,52.69,25,25,0,0,0,99.3,55.9a13.33,13.33,0,0,0-5.57,5,7.92,7.92,0,0,0-2.32,6l1,4.14a13.66,13.66,0,0,0,2.83,3.83,32.66,32.66,0,0,0-9.69,1.34,25,25,0,0,0-8.67,3.22,13.33,13.33,0,0,0-5.57,5,7.93,7.93,0,0,0-2.33,6l1,4.13a16.58,16.58,0,0,0,6.93,6.87l5.45,2.43A42.57,42.57,0,0,0,95.9,106H207.4c5.14,0,10.28,0,15.42,0H223a32.64,32.64,0,0,0,10.38-1.34,24.79,24.79,0,0,0,8.68-3.21,13.33,13.33,0,0,0,5.57-5A7.92,7.92,0,0,0,250,90.43Z"/><path class="cls-5" d="M841,276.83l-1.38-5.9q-2.73-5.62-9.87-9.78L822,257.68a60.68,60.68,0,0,0-18.72-3,15,15,0,0,0,2.11-2.83,11.32,11.32,0,0,0,3.3-8.54l-1.37-5.9q-2.73-5.62-9.88-9.78l-7.77-3.47a58.38,58.38,0,0,0-11.37-2.54c0-.22,0-.44,0-.67l-1.37-5.89q-2.75-5.64-9.88-9.79l-7.78-3.46a60.83,60.83,0,0,0-19.38-3h-.18a7.27,7.27,0,0,0,1.3-3.79c0-2.44-1.89-5.37-5.07-7A25.12,25.12,0,0,0,723.65,185l-4.6.35a22.37,22.37,0,0,0-7.62,2.57l-24.28,10.84a46.08,46.08,0,0,0-12.4,1.91,35.65,35.65,0,0,0-12.36,4.58q-5.62,3-7.94,7.14a11.29,11.29,0,0,0-3.31,8.54l0,.18a46.26,46.26,0,0,0-12.6,1.92,35.65,35.65,0,0,0-12.36,4.58q-5.62,3-8,7.13A11.35,11.35,0,0,0,615,243.3l1.38,5.89a19.6,19.6,0,0,0,4,5.46,46.71,46.71,0,0,0-13.81,1.92,35.63,35.63,0,0,0-12.37,4.58q-5.61,3-7.94,7.14a11.29,11.29,0,0,0-3.31,8.54l1.37,5.89q2.74,5.64,9.88,9.78L602,296a60.85,60.85,0,0,0,19.39,3H780.28c7.33,0,14.66,0,22,0h.3a47.29,47.29,0,0,0,14.8-1.91,35.71,35.71,0,0,0,12.37-4.59q5.61-3,7.94-7.13A11.33,11.33,0,0,0,841,276.83Z"/><path class="cls-5" d="M1151,156.75l-2-8.52q-4-8.14-14.28-14.14l-11.24-5a88.07,88.07,0,0,0-27.06-4.36,20.65,20.65,0,0,0,3-4.09q5.22-5.73,4.79-12.35-1-4.26-2-8.52-4-8.15-14.28-14.14l-11.24-5a83.69,83.69,0,0,0-16.43-3.67c0-.32,0-.65,0-1l-2-8.52q-4-8.14-14.28-14.14l-11.24-5a88.38,88.38,0,0,0-28-4.37h-.25a10.57,10.57,0,0,0,1.87-5.48c0-3.53-2.73-7.76-7.32-10.19A36.41,36.41,0,0,0,981.36,24l-6.65.52a32.31,32.31,0,0,0-11,3.71L928.6,43.91a66.65,66.65,0,0,0-17.93,2.76A51.48,51.48,0,0,0,892.8,53.3q-8.12,4.35-11.48,10.31Q876.1,69.34,876.53,76l.07.26A67,67,0,0,0,858.38,79a51.8,51.8,0,0,0-17.87,6.63Q832.38,90,829,95.93q-5.21,5.71-4.78,12.34l2,8.52a28.21,28.21,0,0,0,5.85,7.89,67.52,67.52,0,0,0-20,2.78,51.4,51.4,0,0,0-17.87,6.63q-8.13,4.35-11.49,10.31-5.21,5.73-4.78,12.35l2,8.52q3.94,8.14,14.28,14.14l11.24,5a88.29,88.29,0,0,0,28,4.38h229.72c10.6,0,21.19,0,31.78,0h.43a68.63,68.63,0,0,0,21.4-2.76,51.88,51.88,0,0,0,17.87-6.63q8.13-4.35,11.48-10.31Q1151.4,163.37,1151,156.75Z"/><path class="cls-5" d="M1651.67,121.14l-1.4-6q-2.77-5.72-10-9.92l-7.88-3.52a62,62,0,0,0-19-3.06,14.61,14.61,0,0,0,2.13-2.87,11.48,11.48,0,0,0,3.36-8.66l-1.39-6q-2.77-5.72-10-9.92l-7.89-3.52A58.4,58.4,0,0,0,1588,65.14c0-.23,0-.46,0-.68l-1.39-6q-2.78-5.71-10-9.93L1568.72,45A61.65,61.65,0,0,0,1549.06,42h-.18a7.38,7.38,0,0,0,1.31-3.84c0-2.49-1.91-5.45-5.13-7.16a25.57,25.57,0,0,0-12.4-3l-4.66.36a22.85,22.85,0,0,0-7.74,2.6l-24.62,11a46.82,46.82,0,0,0-12.57,1.93,36.33,36.33,0,0,0-12.54,4.65q-5.7,3.06-8.06,7.24a11.5,11.5,0,0,0-3.36,8.67l.05.18a46.82,46.82,0,0,0-12.79,1.94,36.33,36.33,0,0,0-12.54,4.65q-5.68,3.06-8,7.24a11.48,11.48,0,0,0-3.36,8.66q.7,3,1.39,6a20,20,0,0,0,4.1,5.53,47.45,47.45,0,0,0-14,2,36.33,36.33,0,0,0-12.54,4.65q-5.7,3.06-8,7.24a11.48,11.48,0,0,0-3.36,8.66l1.39,6q2.78,5.72,10,9.92l7.89,3.52a62.27,62.27,0,0,0,19.67,3.07H1590.1c7.43,0,14.87,0,22.3,0h.3a48,48,0,0,0,15-1.94,36.33,36.33,0,0,0,12.54-4.65q5.7-3.06,8.06-7.24A11.48,11.48,0,0,0,1651.67,121.14Z"/><path class="cls-5" d="M526.37,242.59,524.61,235q-3.51-7.22-12.65-12.53l-10-4.44a77.82,77.82,0,0,0-24-3.86,18.93,18.93,0,0,0,2.7-3.62q4.62-5.09,4.23-10.94l-1.75-7.55q-3.51-7.22-12.66-12.52l-9.95-4.44a74,74,0,0,0-14.55-3.26c0-.28,0-.57,0-.86l-1.76-7.54q-3.51-7.22-12.65-12.53l-10-4.44a78.19,78.19,0,0,0-24.82-3.88h-.22a9.34,9.34,0,0,0,1.65-4.85c0-3.13-2.41-6.87-6.48-9A32.37,32.37,0,0,0,376.12,125l-5.88.46a28.63,28.63,0,0,0-9.77,3.28l-31.08,13.89a58.68,58.68,0,0,0-15.88,2.44A45.66,45.66,0,0,0,297.68,151q-7.19,3.86-10.17,9.14-4.62,5.07-4.24,10.93l.06.24a58.86,58.86,0,0,0-16.14,2.45,45.59,45.59,0,0,0-15.83,5.87q-7.2,3.85-10.17,9.13-4.62,5.07-4.24,10.94c.59,2.52,1.17,5,1.76,7.55a24.78,24.78,0,0,0,5.17,7,60.16,60.16,0,0,0-17.68,2.46,45.91,45.91,0,0,0-15.83,5.87q-7.2,3.87-10.18,9.14-4.62,5.07-4.23,10.94l1.75,7.54q3.51,7.22,12.66,12.53l9.95,4.44A78.26,78.26,0,0,0,245.15,271H448.64c9.39,0,18.77,0,28.15,0h.38a60.63,60.63,0,0,0,19-2.45A45.59,45.59,0,0,0,512,262.66q7.2-3.86,10.17-9.13Q526.75,248.45,526.37,242.59Z"/><polygon class="cls-6" points="0 378.15 73 378 73 171 135 171 135 354 181 354 181 250 220 250 220 459 262 459 262 306 296 211 323 306 323 426 435 427 435 248 473 247 473 276 495 276 495 150 551 150 551 409 591 410 591 277 636 277 636 447 683 447 683 312 757 312 757 391 773 391 773 184 827 184 827 211 875 211 875 239 888 239 888 106 933 106 933 323 962 321 962 214 1047 214 1047 416 1075 415 1075 341 1115 341 1115 157 1193 157 1193 368 1284 368 1284 228 1356 228 1356 434 1370 434 1370 368 1402 368 1416 447 1456 447 1456 106 1479 106 1479 447 1522 447 1522 282 1553 282 1553 236 1573 236 1573 341 1600 341.22 1600 900 0 900 0 378.15"/><polygon class="cls-7" points="0 490.76 20 491 20 276 103 276 103 525 174 525 174 302 220 301.92 240 552 271 552 297 503 297 399 372 399 372 462 414 465 414 341 520 341 520 447 575 447 575 341 658 341 658 503 718 503 718 368 844 368 844 250 987 250 987 482 1018 482 1018 368 1110 368 1110 450 1161 450 1161 288 1253 285 1253 419 1307 419 1307 313 1336 313 1336 525 1416 525 1416 482 1450 482 1450 368 1545 368 1545 488 1600 487.9 1600 900 0 900 0 490.76"/><path class="cls-8" d="M0,588.69l18.68-13H54.24V531.56h3.28V487.64h3.27V456.13l3.28-1.91V429.39l10.06-5V411.49S65,411,64.77,400.75s9.36-10,9.36-10V370.43H76v20.05s8.43-.24,8.43,10-8.19,11-8.19,11V423.9l9.59-4.53v25.06l1.87-.95v44.63l4,.24V532h4v44.4h36.5l23.4,52.27h1.17V623l-1.64-.24V605.32l23.63-15.76V472.12l10.77-15.52V440.13H184.1l15.21-71.61V309.61h3.06L202,369.15l14.68,70.51-3.28.24v16.47l10.06,16v100h3.75v-6l12.63.48v5h7v-5.25l12.87-.24v6.21l6.79.24v-6.21H279.1v5.25h7.49v-5.49l13.81.24v4.77h6.31v-5.25l14.51.24v5l6.55.24v-6h12.17v6.69h3V546.84l9.13-27,7.72,26.74v38.67l31.59,21.24v16.23l-2.58.24v23.64h6.55v-16l9.6.24v-63.5h3.27v-10h-3.74L404.29,538s13.57-50.36,53.58-64.45V443.71s3-28.88,22.46-28.88L480,351.2h3.58v63.87s18.72-2.63,21.52,28.88v29.6s42.12,15.52,55.23,63v19.34l-3.05-.24.24,11.46h2.81v59.2l28.31-21.49,134.07.24v-2.86h-3v-2.15l-2.81-.72V597.2h3v-8.35l5.62-.24V585H730V579.3h5.61V551.85l-5.38-.24V543H737v-8.6s-2.81.48-2.81-5.73,2.81-4.53,2.81-4.53.23-4.3,4.21-5.49V494.32l3.27.24V481l5.85-4.77V420.8l2.11.15v55l6.08,5.49V494.8l3.51-.72V518a7.82,7.82,0,0,1,4,6.21s3-.48,3,4.77-2.57,6-2.57,6l.23,8.36h6.08v8.35H768.6L768.14,580h4.67v4.29h5.85v5.49l5.62.24v8.36h3v1.91h-2.57v1.43l-2.11.24-.7,1.19-2.81.24.24,2.86,134.3-.95,27.38,19.33,5.15-2.38-1.4-2.87s-5.39.24-5.39-1.43l-1.63-3.1-2.34-.24,1.63-9.07s-4.21-11.46,9.13-12.65,16.14,15.27,16.14,15.27.47,8.84-5.38,9.55l1.64,1.43s10.76-.71,11.47,7.17,0,25.06,0,25.06,7.95,6.21,1.63,13.37l.47,4.53s11.47-2.86,14.27,4.3V590h-6.08V577.63l9.83.24v-8.12h36.73l41.42-27.93,8.66-.24V512.34h11v29.72h29.25V512.34h11.94v29.48h57.32s0-11,8.66-11,9.13,10.51,9.13,10.51l57.56-.24V512.34h11.93v29h30v-29h11.93v29h6.56L1362.93,569l38.37.23v8.84l8.89.24V589.8l-4.68.24v34.14l12.17-22.44,72.07.48L1501,589.33V477.85l8.66-.24V450.88L1527.3,317.2l13.46,133.44v27.45h8.66V588.61l12.4,14.56H1600V693L0,696.34Z"/><rect class="cls-8" y="680" width="1600" height="220"/><rect class="cls-9" y="743" width="1600" height="157"/><circle class="cls-10" cx="674" cy="227" r="4"/><circle class="cls-10" cx="706" cy="202" r="4"/><circle class="cls-10" cx="587" cy="151" r="4"/><circle class="cls-10" cx="822" cy="106" r="4"/><circle class="cls-10" cx="763" cy="147" r="4"/><circle class="cls-10" cx="731" cy="66" r="4"/><circle class="cls-10" cx="324" cy="201" r="4"/><circle class="cls-10" cx="356" cy="176" r="4"/><circle class="cls-10" cx="237" cy="125" r="4"/><circle class="cls-10" cx="472" cy="80" r="4"/><circle class="cls-10" cx="413" cy="121" r="4"/><circle class="cls-10" cx="381" cy="40" r="4"/><circle class="cls-10" cx="607" cy="80" r="4"/><circle class="cls-10" cx="639" cy="55" r="4"/><circle class="cls-10" cx="520" cy="4" r="4"/><circle class="cls-10" cx="1562" cy="84" r="4"/><circle class="cls-10" cx="1582" cy="155" r="4"/><circle class="cls-10" cx="1540" cy="36" r="4"/><circle class="cls-10" cx="10" cy="131" r="4"/><circle class="cls-10" cx="42" cy="106" r="4"/><circle class="cls-10" cx="219" cy="55" r="4"/><circle class="cls-10" cx="158" cy="10" r="4"/><circle class="cls-10" cx="99" cy="51" r="4"/><circle class="cls-10" cx="162" cy="121" r="4"/><circle class="cls-10" cx="917" cy="62" r="4"/><circle class="cls-10" cx="949" cy="37" r="4"/><circle class="cls-10" cx="579" cy="246" r="4"/><circle class="cls-10" cx="360" cy="294" r="4"/><circle class="cls-10" cx="441" cy="223" r="4"/><circle class="cls-10" cx="377" cy="360" r="4"/><circle class="cls-10" cx="253.95" cy="223.65" r="4"/><circle class="cls-10" cx="192.05" cy="186.35" r="4"/><path class="cls-9" d="M131.18,642.63A18.15,18.15,0,0,0,113,624.48q-.69,0-1.38.06A18.16,18.16,0,0,0,109,606.2a24.1,24.1,0,0,0-15.19-36.93A23.78,23.78,0,0,0,49,563.55a19.4,19.4,0,0,0-15.45,19,19,19,0,0,0,.25,3.12,21,21,0,0,0-8.11,36.65,20.05,20.05,0,0,0-12.17,18.43c0,.42,0,.83,0,1.25a19.4,19.4,0,0,0,6.84,37.56,19.79,19.79,0,0,0,3.88-.39,24.11,24.11,0,0,0,24.77,16,25.05,25.05,0,0,0,5.17-1A23.83,23.83,0,0,0,66.54,704v92h9.88V705.27h0a23.71,23.71,0,0,0,16.41-8.67,20.26,20.26,0,0,0,6.25.45,20,20,0,0,0,18-16.14A15.64,15.64,0,0,0,125.27,656,18.13,18.13,0,0,0,131.18,642.63Z"/><path class="cls-9" d="M305.18,642.63A18.15,18.15,0,0,0,287,624.48q-.69,0-1.38.06A18.16,18.16,0,0,0,283,606.2a24.1,24.1,0,0,0-15.19-36.93A23.78,23.78,0,0,0,223,563.55a19.4,19.4,0,0,0-15.45,19,19,19,0,0,0,.25,3.12,21,21,0,0,0-8.11,36.65,20.05,20.05,0,0,0-12.17,18.43c0,.42,0,.83,0,1.25a19.4,19.4,0,0,0,6.84,37.56,19.79,19.79,0,0,0,3.88-.39,24.11,24.11,0,0,0,24.77,16,25.05,25.05,0,0,0,5.17-1A23.83,23.83,0,0,0,240.54,704v92h9.88V705.27h0a23.71,23.71,0,0,0,16.41-8.67,20.26,20.26,0,0,0,6.25.45,20,20,0,0,0,18-16.14A15.64,15.64,0,0,0,299.27,656,18.13,18.13,0,0,0,305.18,642.63Z"/><path class="cls-9" d="M480.18,642.63A18.15,18.15,0,0,0,462,624.48q-.69,0-1.38.06A18.16,18.16,0,0,0,458,606.2a24.1,24.1,0,0,0-15.19-36.93A23.78,23.78,0,0,0,398,563.55a19.4,19.4,0,0,0-15.45,19,19,19,0,0,0,.25,3.12,21,21,0,0,0-8.11,36.65,20.05,20.05,0,0,0-12.17,18.43c0,.42,0,.83,0,1.25a19.4,19.4,0,0,0,6.84,37.56,19.79,19.79,0,0,0,3.88-.39,24.11,24.11,0,0,0,24.77,16,25.05,25.05,0,0,0,5.17-1A23.83,23.83,0,0,0,415.54,704v92h9.88V705.27h0a23.71,23.71,0,0,0,16.41-8.67,20.26,20.26,0,0,0,6.25.45,20,20,0,0,0,18-16.14A15.64,15.64,0,0,0,474.27,656,18.13,18.13,0,0,0,480.18,642.63Z"/><path class="cls-9" d="M653.18,642.63A18.15,18.15,0,0,0,635,624.48q-.69,0-1.38.06A18.16,18.16,0,0,0,631,606.2a24.1,24.1,0,0,0-15.19-36.93A23.78,23.78,0,0,0,571,563.55a19.4,19.4,0,0,0-15.45,19,19,19,0,0,0,.25,3.12,21,21,0,0,0-8.11,36.65,20.05,20.05,0,0,0-12.17,18.43c0,.42,0,.83,0,1.25a19.4,19.4,0,0,0,6.84,37.56,19.79,19.79,0,0,0,3.88-.39,24.11,24.11,0,0,0,24.77,16,25.05,25.05,0,0,0,5.17-1A23.83,23.83,0,0,0,588.54,704v92h9.88V705.27h0a23.71,23.71,0,0,0,16.41-8.67,20.26,20.26,0,0,0,6.25.45,20,20,0,0,0,18-16.14A15.64,15.64,0,0,0,647.27,656,18.13,18.13,0,0,0,653.18,642.63Z"/><path class="cls-9" d="M837.18,642.63A18.15,18.15,0,0,0,819,624.48q-.69,0-1.38.06A18.16,18.16,0,0,0,815,606.2a24.1,24.1,0,0,0-15.19-36.93A23.78,23.78,0,0,0,755,563.55a19.4,19.4,0,0,0-15.45,19,19,19,0,0,0,.25,3.12,21,21,0,0,0-8.11,36.65,20.05,20.05,0,0,0-12.17,18.43c0,.42,0,.83,0,1.25a19.4,19.4,0,0,0,6.84,37.56,19.79,19.79,0,0,0,3.88-.39,24.11,24.11,0,0,0,24.77,16,25.05,25.05,0,0,0,5.17-1A23.83,23.83,0,0,0,772.54,704v92h9.88V705.27h0a23.71,23.71,0,0,0,16.41-8.67,20.26,20.26,0,0,0,6.25.45,20,20,0,0,0,18-16.14A15.64,15.64,0,0,0,831.27,656,18.13,18.13,0,0,0,837.18,642.63Z"/><path class="cls-9" d="M1019.18,642.63A18.15,18.15,0,0,0,1001,624.48q-.69,0-1.38.06A18.16,18.16,0,0,0,997,606.2a24.1,24.1,0,0,0-15.19-36.93A23.78,23.78,0,0,0,937,563.55a19.4,19.4,0,0,0-15.45,19,19,19,0,0,0,.25,3.12,21,21,0,0,0-8.11,36.65,20.05,20.05,0,0,0-12.17,18.43c0,.42,0,.83,0,1.25a19.4,19.4,0,0,0,6.84,37.56,19.79,19.79,0,0,0,3.88-.39,24.11,24.11,0,0,0,24.77,16,25.05,25.05,0,0,0,5.17-1A23.83,23.83,0,0,0,954.54,704v92h9.88V705.27h0a23.71,23.71,0,0,0,16.41-8.67,20.26,20.26,0,0,0,6.25.45,20,20,0,0,0,18-16.14,15.64,15.64,0,0,0,8.22-24.87A18.13,18.13,0,0,0,1019.18,642.63Z"/><path class="cls-9" d="M1208.18,642.63A18.15,18.15,0,0,0,1190,624.48q-.69,0-1.38.06A18.16,18.16,0,0,0,1186,606.2a24.1,24.1,0,0,0-15.19-36.93,23.78,23.78,0,0,0-44.82-5.72,19.4,19.4,0,0,0-15.45,19,19,19,0,0,0,.25,3.12,21,21,0,0,0-8.11,36.65,20.05,20.05,0,0,0-12.17,18.43c0,.42,0,.83,0,1.25a19.4,19.4,0,0,0,6.84,37.56,19.79,19.79,0,0,0,3.88-.39,24.11,24.11,0,0,0,24.77,16,25.05,25.05,0,0,0,5.17-1,23.83,23.83,0,0,0,12.32,9.88v92h9.88V705.27h0a23.71,23.71,0,0,0,16.41-8.67,20.26,20.26,0,0,0,6.25.45,20,20,0,0,0,18-16.14,15.64,15.64,0,0,0,8.22-24.87A18.13,18.13,0,0,0,1208.18,642.63Z"/><path class="cls-9" d="M1406.18,642.63A18.15,18.15,0,0,0,1388,624.48q-.69,0-1.38.06A18.16,18.16,0,0,0,1384,606.2a24.1,24.1,0,0,0-15.19-36.93,23.78,23.78,0,0,0-44.82-5.72,19.4,19.4,0,0,0-15.45,19,19,19,0,0,0,.25,3.12,21,21,0,0,0-8.11,36.65,20.05,20.05,0,0,0-12.17,18.43c0,.42,0,.83,0,1.25a19.4,19.4,0,0,0,6.84,37.56,19.79,19.79,0,0,0,3.88-.39,24.11,24.11,0,0,0,24.77,16,25.05,25.05,0,0,0,5.17-1,23.83,23.83,0,0,0,12.32,9.88v92h9.88V705.27h0a23.71,23.71,0,0,0,16.41-8.67,20.26,20.26,0,0,0,6.25.45,20,20,0,0,0,18-16.14,15.64,15.64,0,0,0,8.22-24.87A18.13,18.13,0,0,0,1406.18,642.63Z"/><path class="cls-9" d="M1599.18,648.63A18.15,18.15,0,0,0,1581,630.48q-.69,0-1.38.06A18.16,18.16,0,0,0,1577,612.2a24.1,24.1,0,0,0-15.19-36.93,23.78,23.78,0,0,0-44.82-5.72,19.4,19.4,0,0,0-15.45,19,19,19,0,0,0,.25,3.12,21,21,0,0,0-8.11,36.65,20.05,20.05,0,0,0-12.17,18.43c0,.42,0,.83,0,1.25a19.4,19.4,0,0,0,6.84,37.56,19.79,19.79,0,0,0,3.88-.39,24.11,24.11,0,0,0,24.77,16,25.05,25.05,0,0,0,5.17-1,23.83,23.83,0,0,0,12.32,9.88v92h9.88V711.27h0a23.71,23.71,0,0,0,16.41-8.67,20.26,20.26,0,0,0,6.25.45,20,20,0,0,0,18-16.14,15.64,15.64,0,0,0,8.22-24.87A18.13,18.13,0,0,0,1599.18,648.63Z"/><path class="cls-11" d="M84.06,801.36s.23-13.72-10.06-17.83c0,0,6.17-1.37,14.63,4.34,0,0-2.63-20.68,9.94-21.37,0,0-8.46,4.8-2.74,21.26,0,0,2.74-7.77,14.17-8,0,0-11.2,6.17-10.74,21.48"/><path class="cls-11" d="M243.06,868.36s.23-13.72-10.06-17.83c0,0,6.17-1.37,14.63,4.34,0,0-2.63-20.68,9.94-21.37,0,0-8.46,4.8-2.74,21.26,0,0,2.74-7.77,14.17-8,0,0-11.2,6.17-10.74,21.48"/><path class="cls-11" d="M518.06,834.36s.23-13.72-10.06-17.83c0,0,6.17-1.37,14.63,4.34,0,0-2.63-20.68,9.94-21.37,0,0-8.46,4.8-2.74,21.26,0,0,2.74-7.77,14.17-8,0,0-11.2,6.17-10.74,21.48"/><path class="cls-11" d="M893.06,885.36s.23-13.72-10.06-17.83c0,0,6.17-1.37,14.63,4.34,0,0-2.63-20.68,9.94-21.37,0,0-8.46,4.8-2.74,21.26,0,0,2.74-7.77,14.17-8,0,0-11.2,6.17-10.74,21.48"/><path class="cls-11" d="M1218.06,807.36s.23-13.72-10.06-17.83c0,0,6.17-1.37,14.63,4.34,0,0-2.63-20.68,9.94-21.37,0,0-8.46,4.8-2.74,21.26,0,0,2.74-7.77,14.17-8,0,0-11.2,6.17-10.74,21.48"/><path class="cls-11" d="M1479.06,868.36s.23-13.72-10.06-17.83c0,0,6.17-1.37,14.63,4.34,0,0-2.63-20.68,9.94-21.37,0,0-8.46,4.8-2.74,21.26,0,0,2.74-7.77,14.17-8,0,0-11.2,6.17-10.74,21.48"/><path class="cls-11" d="M1532.06,817.36s.23-13.72-10.06-17.83c0,0,6.17-1.37,14.63,4.34,0,0-2.63-20.68,9.94-21.37,0,0-8.46,4.8-2.74,21.26,0,0,2.74-7.77,14.17-8,0,0-11.2,6.17-10.74,21.48"/><path class="cls-11" d="M72.38,603.68A12.41,12.41,0,0,1,90.81,620.3"/><path class="cls-11" d="M58.5,599.56a12.06,12.06,0,0,1,24.12,0"/><path class="cls-11" d="M60.37,666.27a12.33,12.33,0,1,1-21-12.93"/><path class="cls-11" d="M83,661.1a12,12,0,0,1-24-.72"/><path class="cls-11" d="M229.19,593.45A12.06,12.06,0,0,1,249,579.7"/><path class="cls-11" d="M422.37,676.27a12.33,12.33,0,1,1-21-12.93"/><path class="cls-11" d="M445,671.1a12,12,0,0,1-24-.72"/><path class="cls-11" d="M593.38,591.68a12.41,12.41,0,0,1,18.43,16.62"/><path class="cls-11" d="M755.24,659.56a12.33,12.33,0,0,1-7.55-23.48"/><path class="cls-11" d="M775.8,670.35a12,12,0,0,1-17.74-16.13"/><path class="cls-11" d="M984,627.33a12.33,12.33,0,1,1-.7,24.65"/><path class="cls-11" d="M968.23,610.31a12,12,0,0,1,11.35,21.11"/><path class="cls-11" d="M778.38,587.68a12.41,12.41,0,0,1,18.43,16.62"/><path class="cls-11" d="M764.5,583.56a12.06,12.06,0,0,1,24.12,0"/><path class="cls-11" d="M1129.48,596.2a12.33,12.33,0,0,1,22.12-10.9"/><path class="cls-11" d="M1121.82,618.11a12,12,0,1,1,13.36-19.9"/><path class="cls-11" d="M1359.78,667.31a18.35,18.35,0,1,1-36.7.5"/><path class="cls-11" d="M1384.08,642.75A17.84,17.84,0,1,1,1353.41,661"/><path class="cls-11" d="M1546.33,584.8a12.33,12.33,0,1,1,11,22.09"/><path class="cls-11" d="M1524.39,577.2a12,12,0,0,1,19.95,13.3"/><path class="cls-11" d="M1507.84,616.75a12.33,12.33,0,1,1,18.9-15.84"/></svg>
