<svg xmlns="http://www.w3.org/2000/svg" width="273" height="262" viewBox="0 0 273 262"><defs><style>.cls-1{fill:#c4c4c4;opacity:0.3;}.cls-2{fill:#fcf7f0;}.cls-3{fill:#e1a569;}.cls-4{fill:#c17f4a;}.cls-5{fill:#f8efe2;}.cls-6{fill:#1b1719;}.cls-7{fill:#161410;}.cls-8,.cls-9{stroke:#fff;stroke-miterlimit:10;stroke-width:5px;}.cls-9{fill:#fff;}</style></defs><title>Corgi</title><g id="Corgi"><ellipse class="cls-1" cx="138.5" cy="201.92" rx="120.5" ry="40.47"/><path class="cls-2" d="M186.15,107c-3.9,20.68,10.14,65.93-12.82,66.88-21.57.89,13.16-17.37-14.83-52.65-14.12-17.79-27-21.4-4.78-27.25S190.35,84.7,186.15,107Z"/><path class="cls-3" d="M192,83.21c17.85,18.08-8,89.67-46.41,102.35s-76.07,3.39-84-20.73S53.84,86.21,91.1,102C126.41,117,174.15,65.13,192,83.21Z"/><path class="cls-3" d="M116.68,168.49c-5.33,24.33-9,62-27.81,53.3-16.2-7.49,15.29-13,4.4-43.57-5.15-14.47-7-32,6.61-32S120,153.48,116.68,168.49Z"/><path class="cls-2" d="M108.57,146.55c18.12,18,76.31,26.12,36.86,39.13s-77.88,4-85.83-20.13-7.29-78.76,30.73-63.18C126.34,117.14,90.45,128.56,108.57,146.55Z"/><path d="M127.92,107.83c0,14.62-15.72,26.48-35.11,26.48S57.7,122.45,57.7,107.83,78,83.32,97.4,83.32,127.92,93.21,127.92,107.83Z"/><path d="M92.81,134.42c-19.42,0-35.22-11.93-35.22-26.59,0-6.83,4.48-13.17,12.63-17.84,7.52-4.31,17.43-6.78,27.18-6.78,18.89,0,30.63,9.43,30.63,24.62C128,122.49,112.23,134.42,92.81,134.42Zm4.59-51c-9.71,0-19.58,2.46-27.06,6.75-8.08,4.63-12.52,10.89-12.52,17.64,0,14.53,15.69,26.36,35,26.36s35-11.83,35-26.36C127.8,92.79,116.15,83.44,97.4,83.44Z"/><path class="cls-2" d="M132.2,83.86c0,24.66-18.28,44.65-40.84,44.65S55.5,108.4,55.5,83.74s18.64-41.2,41.2-41.2S132.2,59.21,132.2,83.86Z"/><path class="cls-3" d="M225.13,127.7c-9,19-7,66.34-29.43,61.41-21.09-4.63,17.15-13.44-.93-54.69-9.12-20.81-31.66-55.15-8.69-55.15S234.89,107.19,225.13,127.7Z"/><path class="cls-2" d="M141.24,186.79c-5.33,24.34-14.14,60.81-32.9,52.14-16.21-7.48,9.73-19.93,4.4-43.56-3.38-15-7-32,6.6-32S144.53,171.79,141.24,186.79Z"/><path class="cls-3" d="M94.78,46c4.34,6-4.91,29.26-15.3,36.85s-17.44,5-21.78-.93.64-23.22,11-30.8S90.44,40.07,94.78,46Z"/><path class="cls-3" d="M105.57,44c7.05-.57,5.89.58,17.94,15.41,8.11,10,12,28.48,5,30.82s-21.93-7.65-26-19.85S98.24,44.65,105.57,44Z"/><path class="cls-4" d="M56.31,73.13c-15.53-27.35-15-58-5.68-61.76S77.05,35.7,85.39,43.12"/><path class="cls-4" d="M131.62,78c23.18-22.71,26.32-46.79,18.66-52.25s-13.56.58-38.82,19.12"/><path class="cls-5" d="M62.34,66.87c-8.64-15.2-12.26-40-7.07-42.06,6.62-2.65,18.14,19.28,24.21,24.68"/><path class="cls-5" d="M127.92,71.74c15-14.66,19.42-32.47,14.47-36S131,38.22,114.71,50.19"/><path class="cls-6" d="M105.09,88.53c0,3.67-3.42,6.84-8.53,6.84S88.64,91.68,88.64,88s4.39-7.36,9.5-7.36S105.09,84.86,105.09,88.53Z"/><circle class="cls-7" cx="111.4" cy="70.42" r="3.07"/><path class="cls-7" d="M111.4,75.81a5.39,5.39,0,1,1,5.39-5.39A5.4,5.4,0,0,1,111.4,75.81Zm0-6.15a.76.76,0,1,0,.76.76A.76.76,0,0,0,111.4,69.66Z"/><circle cx="111.4" cy="70.54" r="1.22"/><path d="M111.4,74.08a3.54,3.54,0,1,1,3.54-3.54A3.54,3.54,0,0,1,111.4,74.08Zm0-4.64a1.11,1.11,0,1,0,1.11,1.1A1.11,1.11,0,0,0,111.4,69.44Z"/><circle class="cls-8" cx="113.07" cy="68.88" r="0.19"/><path class="cls-9" d="M113.07,70.46a1.58,1.58,0,1,1,1.58-1.58A1.58,1.58,0,0,1,113.07,70.46Zm0-2.78a1.2,1.2,0,1,0,1.2,1.2A1.2,1.2,0,0,0,113.07,67.68Z"/><circle class="cls-7" cx="80.82" cy="70.42" r="3.07"/><path class="cls-7" d="M80.82,75.81a5.39,5.39,0,1,1,5.38-5.39A5.39,5.39,0,0,1,80.82,75.81Zm0-6.15a.76.76,0,1,0,.75.76A.76.76,0,0,0,80.82,69.66Z"/><circle cx="80.82" cy="70.54" r="1.22"/><path d="M80.82,74.08a3.54,3.54,0,1,1,3.53-3.54A3.55,3.55,0,0,1,80.82,74.08Zm0-4.64a1.11,1.11,0,1,0,1.1,1.1A1.11,1.11,0,0,0,80.82,69.44Z"/><circle class="cls-8" cx="82.48" cy="68.88" r="0.19"/><path class="cls-9" d="M82.48,70.46a1.58,1.58,0,1,1,1.58-1.58A1.58,1.58,0,0,1,82.48,70.46Zm0-2.78a1.2,1.2,0,1,0,1.2,1.2A1.2,1.2,0,0,0,82.48,67.68Z"/></g></svg>
