<svg xmlns="http://www.w3.org/2000/svg" width="125" height="98" viewBox="0 0 125 98"><defs><style>.cls-1{fill:#603f25;}</style></defs><title>Lort_Interaktiv</title><g id="Lort_Interaktiv"><path class="cls-1" d="M122.1,76.53l-.64-4.74a17.77,17.77,0,0,0-4.58-7.87l-3.61-2.79a17.63,17.63,0,0,0-8.69-2.42,13.59,13.59,0,0,0,1-2.28,13.45,13.45,0,0,0,1.54-6.87l-.64-4.74A17.81,17.81,0,0,0,101.87,37l-3.61-2.79a18,18,0,0,0-5.28-2c0-.18,0-.36,0-.54l-.64-4.75A17.77,17.77,0,0,0,87.75,19l-3.61-2.78a17.74,17.74,0,0,0-9-2.44h-.07a9.1,9.1,0,0,0,.6-3.05A8.15,8.15,0,0,0,73.3,5a8,8,0,0,0-5.67-2.35L65.5,3A8.14,8.14,0,0,0,62,5L50.69,13.74a13.3,13.3,0,0,0-5.76,1.54A13.33,13.33,0,0,0,39.19,19,13.41,13.41,0,0,0,35.5,24.7,13.45,13.45,0,0,0,34,31.58l0,.14a13.41,13.41,0,0,0-5.86,1.54A13.41,13.41,0,0,0,22.39,37a13.42,13.42,0,0,0-3.68,5.74,13.4,13.4,0,0,0-1.54,6.87c.21,1.58.43,3.16.64,4.74a18.43,18.43,0,0,0,1.87,4.39,13.29,13.29,0,0,0-6.41,1.55,13.29,13.29,0,0,0-5.74,3.68,13.41,13.41,0,0,0-3.69,5.74,13.54,13.54,0,0,0-1.53,6.87L3,81.28a17.77,17.77,0,0,0,4.58,7.87l3.61,2.78a17.68,17.68,0,0,0,9,2.44H93.92c3.4,0,6.81,0,10.21,0h.14a13.45,13.45,0,0,0,6.87-1.54,13.48,13.48,0,0,0,5.74-3.68,13.29,13.29,0,0,0,3.68-5.74A13.46,13.46,0,0,0,122.1,76.53Z"/></g></svg>
