<svg xmlns="http://www.w3.org/2000/svg" width="84" height="66" viewBox="0 0 84 66"><defs><style>.cls-1{fill:#822e5a;}.cls-2{fill:#fff;}</style></defs><title>Lort_Settings</title><g id="Lort_Settings"><path class="cls-1" d="M80,50.82l-.4-3a11,11,0,0,0-2.87-4.93l-2.26-1.75A11,11,0,0,0,69,39.65a8.7,8.7,0,0,0,.62-1.43,8.39,8.39,0,0,0,1-4.3l-.4-3A11.14,11.14,0,0,0,67.31,26l-2.26-1.74A11,11,0,0,0,61.75,23c0-.12,0-.23,0-.34l-.4-3a11.13,11.13,0,0,0-2.87-4.93L56.21,13a11.21,11.21,0,0,0-5.64-1.53h0a5.8,5.8,0,0,0,.37-1.91A5.13,5.13,0,0,0,49.42,6a5.07,5.07,0,0,0-3.56-1.47l-1.33.18A4.89,4.89,0,0,0,42.31,6l-7.06,5.46a8.28,8.28,0,0,0-3.61,1A8.4,8.4,0,0,0,28,14.75a8.36,8.36,0,0,0-2.31,3.59,8.4,8.4,0,0,0-1,4.31v.09a8.31,8.31,0,0,0-3.66,1A8.34,8.34,0,0,0,17.52,26a8.46,8.46,0,0,0-2.31,3.6,8.4,8.4,0,0,0-1,4.31c.13,1,.26,2,.4,3a11.39,11.39,0,0,0,1.17,2.75,8.35,8.35,0,0,0-4,1,8.36,8.36,0,0,0-3.59,2.31A8.36,8.36,0,0,0,5.9,46.51a8.4,8.4,0,0,0-1,4.31l.39,3a11.2,11.2,0,0,0,2.88,4.93l2.26,1.75A11,11,0,0,0,16.11,62H62.34c2.13,0,4.26,0,6.39,0h.09a8.36,8.36,0,0,0,4.3-1A10,10,0,0,0,79,55.12,8.36,8.36,0,0,0,80,50.82Z"/><path class="cls-2" d="M50.47,45.39l-5.7-1.69a1.38,1.38,0,0,0-1.25.25L38.9,47.69a1.38,1.38,0,0,1-2.24-1l-.16-5.94a1.35,1.35,0,0,0-.62-1.11l-5-3.24a1.37,1.37,0,0,1,.29-2.45l5.6-2a1.39,1.39,0,0,0,.87-.94l1.54-5.74a1.38,1.38,0,0,1,2.42-.48l3.61,4.71A1.4,1.4,0,0,0,46.4,30l5.93-.31a1.37,1.37,0,0,1,1.2,2.15l-3.36,4.9A1.37,1.37,0,0,0,50,38l2.12,5.55A1.37,1.37,0,0,1,50.47,45.39Z"/><path class="cls-2" d="M53.85,39.71l-6,1.85a1.3,1.3,0,0,0-.83.83l-1.85,6A1.26,1.26,0,0,1,43,48.7l-3.6-5.09a1.28,1.28,0,0,0-1-.54l-6.24.08a1.26,1.26,0,0,1-1-2l3.74-5A1.29,1.29,0,0,0,35,35l-2-5.9a1.26,1.26,0,0,1,1.59-1.6l5.91,2a1.27,1.27,0,0,0,1.16-.19l5-3.73a1.26,1.26,0,0,1,2,1l-.08,6.24a1.24,1.24,0,0,0,.53,1l5.09,3.6A1.26,1.26,0,0,1,53.85,39.71Z"/><circle class="cls-1" cx="42.4" cy="36.66" r="5.32"/></g></svg>
