<svg xmlns="http://www.w3.org/2000/svg" width="248" height="202" viewBox="0 0 248 202"><defs><style>.cls-1{fill:#822e5a;}.cls-2{fill:#fff;}</style></defs><title>Lort_Mute_Music</title><g id="Lort_Mute_Music"><path class="cls-1" d="M227.68,142.43l-1.11-8.23a30.93,30.93,0,0,0-8-13.68l-6.27-4.85a30.91,30.91,0,0,0-15.1-4.22,23.52,23.52,0,0,0,1.7-4,23.34,23.34,0,0,0,2.67-11.94l-1.11-8.24a31,31,0,0,0-8-13.68l-6.27-4.84a30.93,30.93,0,0,0-9.17-3.55c0-.31,0-.63,0-.94L176,56.07a31,31,0,0,0-8-13.68l-6.27-4.84a30.7,30.7,0,0,0-15.64-4.23h-.14a15.83,15.83,0,0,0,1-5.3,14.2,14.2,0,0,0-4.08-9.86c-2.66-2.44-6.15-4.25-9.86-4.09l-3.71.5a14,14,0,0,0-6.16,3.59L103.58,33.32a23.1,23.1,0,0,0-10,2.66,23.3,23.3,0,0,0-10,6.41,23.22,23.22,0,0,0-6.4,10,23.34,23.34,0,0,0-2.67,11.94l0,.25a23.26,23.26,0,0,0-10.17,2.68,23.25,23.25,0,0,0-10,6.4,23.3,23.3,0,0,0-6.41,10,23.34,23.34,0,0,0-2.67,11.94l1.11,8.24a31.17,31.17,0,0,0,3.26,7.62,23.3,23.3,0,0,0-11.14,2.69,23.3,23.3,0,0,0-10,6.41,23.27,23.27,0,0,0-6.41,10,23.28,23.28,0,0,0-2.66,11.94l1.1,8.24a31.08,31.08,0,0,0,8,13.68l6.28,4.85a30.87,30.87,0,0,0,15.64,4.23h128.2c5.92,0,11.83,0,17.74,0h.24a23.34,23.34,0,0,0,11.94-2.67A27.89,27.89,0,0,0,225,154.37,23.34,23.34,0,0,0,227.68,142.43Z"/><circle class="cls-2" cx="92.08" cy="122.34" r="5.54"/><circle class="cls-2" cx="116.29" cy="118.03" r="5.54"/><path class="cls-2" d="M97.2,123.36V88.48c0-3.17-4.92-3.17-4.92,0v34.88c0,3.17,4.92,3.18,4.92,0Z"/><path class="cls-2" d="M121.21,118.64v-33c0-3.17-4.92-3.17-4.92,0v33c0,3.17,4.92,3.18,4.92,0Z"/><path class="cls-2" d="M118.09,82.21,94.7,85.9c-3.12.5-1.79,5.24,1.31,4.75L119.4,87c3.12-.49,1.8-5.24-1.31-4.75Z"/><path class="cls-2" d="M150.52,92l-18,19.91c-2,2.19,1.27,5.45,3.25,3.25l18-19.91c2-2.19-1.26-5.44-3.25-3.25Z"/><path class="cls-2" d="M132.91,96l18.76,19.14c2.07,2.12,5.32-1.13,3.25-3.25L136.16,92.78c-2.08-2.11-5.32,1.13-3.25,3.25Z"/></g></svg>
