<svg xmlns="http://www.w3.org/2000/svg" width="221" height="299" viewBox="0 0 221 299"><defs><style>.cls-1{fill:#c4c4c4;opacity:0.3;}.cls-2{fill:#82674a;}.cls-3{fill:#9b8262;}.cls-4{fill:#e6ddce;}.cls-5{fill:#b73d3d;}.cls-6{fill:#c6b295;}.cls-7{fill:#e7eced;}.cls-8{fill:#23150f;}.cls-9{fill:#161410;}.cls-10{fill:#fff;}</style></defs><title>Puddel</title><g id="Puddel"><ellipse class="cls-1" cx="110.26" cy="257.99" rx="104.26" ry="33.01"/><path class="cls-2" d="M165.27,182.63c-6.82,26.9-2,60.47-7.78,60.47-11.81,0-11.65-29.35-11.65-56.31s-41.79-38.18,8.43-71C187.14,94.29,171.84,156.72,165.27,182.63Z"/><path class="cls-2" d="M110.53,175.2c-6.82,26-2,58.5-7.79,58.5-11.8,0-11.65-28.39-11.65-54.47s-43.63-49.11,8-47.23C128.78,133.07,117.09,150.14,110.53,175.2Z"/><path class="cls-3" d="M134.68,180.84c-6.82,26-2,58.5-7.78,58.5-11.81,0-11.66-28.39-11.66-54.48s-61.2-47.63,8-47.23C182.23,138,141.24,155.78,134.68,180.84Z"/><ellipse class="cls-4" cx="50.38" cy="104.09" rx="18.82" ry="19.86"/><path class="cls-3" d="M174.22,125.82c-1.49,25.52-35.55,58.13-58.5,40-39-30.81-70.35-17.05-71.21-36.23-1.29-28.87,11.08-40.25,47.12-40.25S175.9,97,174.22,125.82Z"/><ellipse class="cls-3" cx="149.29" cy="85.32" rx="46.81" ry="11.06" transform="translate(53.41 228.06) rotate(-85.86)"/><rect class="cls-5" x="130.47" y="92.83" width="32.83" height="7.51" rx="3.76" ry="3.76" transform="translate(35.94 -39.78) rotate(17.54)"/><ellipse class="cls-6" cx="178.14" cy="64.35" rx="20.27" ry="39.95" transform="translate(-7.77 28.14) rotate(-8.84)"/><ellipse class="cls-6" cx="124.68" cy="61.38" rx="35.96" ry="18.25" transform="translate(28.58 161.77) rotate(-72.46)"/><path class="cls-3" d="M70.54,162.86c-7.51,26-9.73,53.67-16.1,53.67s-7-27.59-7-53.67-10.87-46.56,8.86-47.23C110.81,113.77,77.78,137.8,70.54,162.86Z"/><path class="cls-4" d="M78.86,235.18c8.32,31.8-10,30.46-23.62,30.46s-28.44,7-25.49-30.46c1.23-15.59,11-28.31,24.56-28.31S74.9,220.05,78.86,235.18Z"/><path class="cls-4" d="M122.07,235.18c8.32,31.8-10.06,30.46-23.62,30.46S70,272.62,73,235.18c1.23-15.59,11-28.31,24.55-28.31S118.11,220.05,122.07,235.18Z"/><path class="cls-4" d="M149.17,244.84c8.32,31.8-10,30.46-23.61,30.46s-28.45,7-25.5-30.46c1.23-15.59,11-28.31,24.56-28.31S145.21,229.71,149.17,244.84Z"/><path class="cls-4" d="M184.06,242.69c8.32,31.81-10.06,30.46-23.62,30.46s-28.44,7-25.49-30.46c1.23-15.58,11-28.31,24.55-28.31S180.1,227.57,184.06,242.69Z"/><path class="cls-7" d="M167.42,42.09c-.29-9.4-17.31-8.58-18.52-8.58-3.08,0-11.27,4.27-11.27,13.68C137.63,66.92,142,64.1,149,64.1S168,59.67,167.42,42.09Z"/><ellipse class="cls-4" cx="153.87" cy="25.86" rx="27.37" ry="19.86"/><path class="cls-8" d="M146.51,51.18c1.41,1.52-.82,4.06-2.74,5.84s-1.72,1.55-3.14,0-3.65-4.46-1.73-6.24S145.1,49.65,146.51,51.18Z"/><circle class="cls-9" cx="141.23" cy="44.58" r="1.57"/><path class="cls-9" d="M141.23,47.33A2.75,2.75,0,1,1,144,44.58,2.75,2.75,0,0,1,141.23,47.33Zm0-3.14a.39.39,0,0,0-.39.39.39.39,0,0,0,.77,0A.39.39,0,0,0,141.23,44.19Z"/><circle cx="141.23" cy="44.64" r="0.62"/><path d="M141.23,46.45a1.81,1.81,0,1,1,1.8-1.81A1.81,1.81,0,0,1,141.23,46.45Zm0-2.37a.57.57,0,0,0-.57.56.58.58,0,0,0,.57.57.57.57,0,0,0,.56-.57A.56.56,0,0,0,141.23,44.08Z"/><circle cx="142.47" cy="43.38" r="0.02"/><polygon class="cls-10" points="142.47 44.07 141.8 44.07 141.78 43.38 141.78 42.71 142.47 42.7 143.14 42.7 143.16 43.38 143.16 44.05 142.47 44.07"/><path class="cls-10" d="M142.47,43.51a.13.13,0,0,1-.13-.13.13.13,0,0,1,.26,0A.13.13,0,0,1,142.47,43.51Zm0-.22a.1.1,0,0,0-.1.09.1.1,0,1,0,.2,0A.1.1,0,0,0,142.47,43.29Z"/><path class="cls-10" d="M142.47,44.18a.8.8,0,1,1,.8-.8A.8.8,0,0,1,142.47,44.18Zm0-1.34a.54.54,0,0,0-.54.54.54.54,0,1,0,1.08,0A.54.54,0,0,0,142.47,42.84Z"/><circle class="cls-9" cx="157.86" cy="45.38" r="1.57"/><path class="cls-9" d="M157.86,48.13a2.75,2.75,0,1,1,2.75-2.75A2.75,2.75,0,0,1,157.86,48.13Zm0-3.13a.39.39,0,0,0,0,.77.39.39,0,1,0,0-.77Z"/><circle cx="157.86" cy="45.45" r="0.62"/><path d="M157.86,47.25a1.8,1.8,0,1,1,1.81-1.8A1.81,1.81,0,0,1,157.86,47.25Zm0-2.36a.56.56,0,0,0,0,1.12.56.56,0,1,0,0-1.12Z"/><circle cx="158.57" cy="43.92" r="0.02"/><polygon class="cls-10" points="158.57 44.61 157.9 44.61 157.88 43.92 157.88 43.25 158.57 43.23 159.24 43.23 159.26 43.92 159.26 44.59 158.57 44.61"/><path class="cls-10" d="M158.57,44.05a.13.13,0,1,1,.13-.13A.13.13,0,0,1,158.57,44.05Zm0-.23a.1.1,0,1,0,.1.1A.11.11,0,0,0,158.57,43.82Z"/><path class="cls-10" d="M158.57,44.72a.8.8,0,1,1,.8-.8A.8.8,0,0,1,158.57,44.72Zm0-1.34a.54.54,0,1,0,.54.54A.54.54,0,0,0,158.57,43.38Z"/></g></svg>
