<svg xmlns="http://www.w3.org/2000/svg" xmlns:xlink="http://www.w3.org/1999/xlink" width="1600" height="900" viewBox="0 0 1600 900"><defs><style>.cls-1,.cls-4{opacity:0.45;}.cls-2{fill:#ffe6f4;}.cls-3{fill:url(#linear-gradient);}.cls-4,.cls-6,.cls-8,.cls-9{fill:#fff;}.cls-5{fill:#ff6ea2;}.cls-6{stroke:#822e5a;stroke-width:2px;opacity:0.6;}.cls-6,.cls-8{stroke-miterlimit:10;}.cls-7{fill:#822e5a;}.cls-8{stroke:#fff;}</style><linearGradient id="linear-gradient" x1="806.19" y1="-1.5" x2="806.19" y2="727.5" gradientUnits="userSpaceOnUse"><stop offset="0" stop-color="#ff7bac"/><stop offset="0.61" stop-color="#ff7bac" stop-opacity="0.38"/><stop offset="1" stop-color="#ff7bac" stop-opacity="0"/></linearGradient></defs><title>Settigns</title><g id="Settings"><g class="cls-1"><rect class="cls-2" x="6.19" y="593.5" width="1600" height="308"/></g><g class="cls-1"><rect class="cls-3" x="6.19" y="-1.5" width="1600" height="729"/></g><path class="cls-4" d="M1386.9,184.73l-2.28-9.77q-4.53-9.35-16.37-16.22L1355.36,153a100.63,100.63,0,0,0-31-5,24.08,24.08,0,0,0,3.49-4.69q6-6.57,5.49-14.16l-2.28-9.77q-4.53-9.34-16.37-16.22l-12.89-5.74a95.57,95.57,0,0,0-18.84-4.21c0-.37,0-.75,0-1.12l-2.27-9.77q-4.54-9.33-16.38-16.22l-12.89-5.74a101.06,101.06,0,0,0-32.14-5h-.29a12,12,0,0,0,2.15-6.28c0-4.06-3.13-8.9-8.4-11.69a41.77,41.77,0,0,0-20.26-4.85l-7.62.59a37.23,37.23,0,0,0-12.64,4.26l-40.24,18a76.76,76.76,0,0,0-20.56,3.16,59.43,59.43,0,0,0-20.49,7.6q-9.31,5-13.17,11.83-6,6.57-5.48,14.16c0,.1,0,.2.07.3a76.6,76.6,0,0,0-20.89,3.17,59.21,59.21,0,0,0-20.5,7.6q-9.32,5-13.17,11.83-6,6.57-5.48,14.16,1.14,4.89,2.27,9.77a32.19,32.19,0,0,0,6.7,9,77.38,77.38,0,0,0-22.89,3.19,59,59,0,0,0-20.5,7.6q-9.31,5-13.17,11.83-6,6.57-5.48,14.16l2.27,9.77q4.55,9.33,16.38,16.21l12.89,5.75a101.34,101.34,0,0,0,32.14,5h263.44c12.15,0,24.3,0,36.44,0h.49a78.32,78.32,0,0,0,24.54-3.17,59,59,0,0,0,20.5-7.6q9.32-5,13.16-11.82Q1387.4,192.32,1386.9,184.73Z"/><path class="cls-4" d="M911.12,306.17l-4.33-18.6q-8.64-17.76-31.16-30.85L851.1,245.78a192,192,0,0,0-59.05-9.53,45.6,45.6,0,0,0,6.64-8.92q11.38-12.5,10.44-26.94-2.18-9.3-4.33-18.59-8.64-17.78-31.17-30.86L749.11,140a182.52,182.52,0,0,0-35.85-8c0-.7,0-1.4-.07-2.12l-4.33-18.59q-8.62-17.76-31.16-30.86L653.18,69.49A192.62,192.62,0,0,0,592,59.94h-.54A23,23,0,0,0,595.55,48c0-7.71-5.94-16.93-16-22.25A79.65,79.65,0,0,0,541,16.52l-14.5,1.13a70.57,70.57,0,0,0-24.06,8.09L425.9,60a145.4,145.4,0,0,0-39.12,6q-22.53,4.23-39,14.46-17.73,9.51-25,22.51-11.39,12.5-10.44,26.94c0,.2.09.39.13.58a145.5,145.5,0,0,0-39.75,6q-22.53,4.23-39,14.46-17.73,9.5-25.06,22.51-11.37,12.5-10.43,26.94,2.16,9.3,4.33,18.59a61.19,61.19,0,0,0,12.74,17.21,147.55,147.55,0,0,0-43.56,6.06q-22.55,4.25-39,14.47-17.73,9.5-25.06,22.5-11.38,12.51-10.44,26.95l4.33,18.59q8.64,17.76,31.17,30.86l24.52,10.93q28.35,9.49,61.16,9.55H719.66c23.11,0,46.23.08,69.34,0h.94a149.25,149.25,0,0,0,46.69-6q22.53-4.23,39-14.46,17.73-9.51,25-22.51Q912.07,320.61,911.12,306.17Z"/><g class="cls-1"><path class="cls-5" d="M1568,567.66,1555.61,553V441.9H1547V414.3l-13.46-134.17-17.66,134.41v26.88l-8.66.24V553.74l-11.23,13-72.07-.48-12.16,22.57V554.46l4.68-.24V542.7l-8.89-.24v-8.88l-38.38-.24-40.71-27.84h-6.55V476.34h-11.94V505.5h-30V476.34H1268v28.92l-57.56.24s-.47-10.56-9.13-10.56-8.65,11-8.65,11h-57.33V476.34h-11.93v29.88h-29.25V476.34h-11v29.4l-8.66.24-41.41,28.08H996.38v8.16l-9.83-.24v12.48h6.09v84c-2.81-7.2-14.28-4.32-14.28-4.32l-.46-4.56c6.31-7.2-1.64-13.44-1.64-13.44s.7-17.28,0-25.2-11.47-7.2-11.47-7.2l-1.63-1.44c5.85-.72,5.38-9.6,5.38-9.6s-2.81-16.57-16.15-15.37-9.12,12.73-9.12,12.73l-1.64,9.12,2.34.24,1.64,3.12c0,1.68,5.38,1.44,5.38,1.44l1.4,2.88-5.15,2.4-27.37-19.44-134.31,1-.23-2.89,2.8-.24.71-1.2,2.1-.24v-1.44h2.58v-1.92h-3v-8.4l-5.61-.24V548.7H779v-4.32h-4.68l.47-28.56H779v-8.4h-6.09l-.23-8.4s2.57-.72,2.57-6-3-4.8-3-4.8a7.85,7.85,0,0,0-4-6.24V458l-3.51.72V445.26l-6.08-5.52v-55.3l-2.1-.14V440l-5.85,4.8v13.68l-3.28-.24V482.7c-4,1.2-4.21,5.52-4.21,5.52s-2.81-1.68-2.81,4.56,2.81,5.76,2.81,5.76v8.64h-6.79v8.64l5.38.24v27.6h-5.61v5.76h-4.45V553l-5.61.24v8.4h-3v2.16l2.8.72v2.16h3v1.6c-2.69.31-5.36.73-8,1.27l-126.09-.22L566.55,591V531.42h-2.81l-.23-11.52,3,.24V500.7c-13.1-47.76-55.22-63.36-55.22-63.36V407.58c-2.81-31.69-21.53-29-21.53-29V314.32h-3.57l.29,64c-19.42,0-22.46,29-22.46,29v30c-40,14.16-53.58,64.8-53.58,64.8l.23,19.44h3.75v10.08h-3.28v63.85l-9.59-.24v16.08H395V587.59l2.57-.24V571L366,549.66V510.78L358.3,483.9,349.17,511V536.7h-3V530H334v6l-6.56-.24v-5l-14.5-.24v5.28h-6.32v-4.8l-13.81-.24v5.52H285.3v-5.28H272.66v6.24l-6.78-.24V530.7l-12.87.24v5.28h-7v-5l-12.64-.48v6h-3.74V436.14l-10.06-16.08V403.5l3.27-.24-14.68-70.9.42-59.86h-3.05v59.23l-15.21,72h5.38V420.3l-10.76,15.6V554l-23.64,15.85v17.52l1.64.24v5.76h-1.17l-23.4-52.57h-36.5V496.14h-4V452.22l-4-.24V407.1l-1.88,1v-25.2l-9.59,4.56V374.93s8.19-.72,8.19-11-8.42-10.08-8.42-10.08V333.65H80.32v20.4s-9.59-.24-9.36,10.08,9.36,10.8,9.36,10.8v13l-10.06,5v25L67,419.82V451.5H63.71v44.16H60.44v44.4H24.87l-18.68,13v51.54H5.87v61.13A61.87,61.87,0,1,0,100,745.92a61.85,61.85,0,0,0,84.91-22.2c.64,0,1.28,0,1.93,0a57.09,57.09,0,0,0,6.84-.43,32.81,32.81,0,0,0,46.21,4.38,55.48,55.48,0,0,0,84.55.2,53.47,53.47,0,0,0,67.91,6,22.7,22.7,0,0,0,40.05-10.53l2.05.34a22.7,22.7,0,0,0,32.24,1.55,136.42,136.42,0,0,0,32.35-5.7,32.83,32.83,0,0,0,46.43,10.06,83.27,83.27,0,0,0,125-9.54,91.85,91.85,0,0,0,135.74,2.72,32.82,32.82,0,0,0,37.14,10.43,47.44,47.44,0,0,0,80.09-11.42,32.81,32.81,0,0,0,35-3.86,32.81,32.81,0,0,0,52.78,7,87.32,87.32,0,0,0,135.13,8.52,91.86,91.86,0,0,0,122.35-12,57,57,0,0,0,88.26,9,32.83,32.83,0,0,0,46.5-13.61,61.88,61.88,0,0,0,110.88-6,55.48,55.48,0,0,0,42.6,4.54,55.51,55.51,0,0,0,49.24,29.88V567.66Z"/></g><rect class="cls-6" x="420.12" y="117.86" width="752.91" height="664.29"/><path class="cls-7" d="M774.19,575.24,773.07,567a31.13,31.13,0,0,0-8-13.77l-6.31-4.87a31,31,0,0,0-15.2-4.25,22.73,22.73,0,0,0,1.71-4,23.51,23.51,0,0,0,2.69-12l-1.12-8.3a31.1,31.1,0,0,0-8-13.76l-6.31-4.87a31,31,0,0,0-9.23-3.58c0-.31,0-.63,0-.94l-1.12-8.29a31.13,31.13,0,0,0-8-13.77l-6.31-4.87a31.09,31.09,0,0,0-15.74-4.26h-.14A16,16,0,0,0,693,460.1a14.28,14.28,0,0,0-4.11-9.92c-2.68-2.46-6.19-4.28-9.93-4.11l-3.73.5a13.92,13.92,0,0,0-6.19,3.61L649.3,465.43a30.18,30.18,0,0,0-26.55,19.17,23.55,23.55,0,0,0-2.69,12l0,.25a30.19,30.19,0,0,0-26.72,19.18,23.44,23.44,0,0,0-2.68,12l1.11,8.29a31.74,31.74,0,0,0,3.28,7.67,30.14,30.14,0,0,0-27.7,19.19,23.44,23.44,0,0,0-2.68,12l1.11,8.29a31.19,31.19,0,0,0,8,13.76l6.31,4.88a31.09,31.09,0,0,0,15.74,4.26h129c6,0,11.9,0,17.85,0H743a30.12,30.12,0,0,0,28.5-19.18A23.51,23.51,0,0,0,774.19,575.24Z"/><path class="cls-7" d="M1047.68,575.43l-1.11-8.23a30.93,30.93,0,0,0-8-13.68l-6.27-4.85a30.91,30.91,0,0,0-15.1-4.22,44.46,44.46,0,0,0,4.37-15.89l-1.11-8.24a31,31,0,0,0-8-13.68l-6.27-4.84a30.93,30.93,0,0,0-9.17-3.55c0-.31,0-.63,0-.94L996,489.07a31,31,0,0,0-8-13.68l-6.27-4.84a30.7,30.7,0,0,0-15.64-4.23h-.14a15.83,15.83,0,0,0,1-5.3,14.2,14.2,0,0,0-4.08-9.86c-2.66-2.44-6.15-4.25-9.86-4.09l-3.71.5a14,14,0,0,0-6.16,3.59l-19.58,15.16a29.94,29.94,0,0,0-26.38,19.05,23.34,23.34,0,0,0-2.67,11.94l0,.25A30,30,0,0,0,868,516.62a23.34,23.34,0,0,0-2.67,11.94l1.11,8.24a31.17,31.17,0,0,0,3.26,7.62,30,30,0,0,0-27.53,19.07,23.28,23.28,0,0,0-2.66,11.94l1.1,8.24a31.08,31.08,0,0,0,8,13.68l6.28,4.85a30.87,30.87,0,0,0,15.64,4.23h128.2c5.92,0,11.83,0,17.74,0h.24A29.92,29.92,0,0,0,1045,587.37,23.34,23.34,0,0,0,1047.68,575.43Z"/><path class="cls-8" d="M672.51,552.19c-.66-17.83-.74-12.6-1.6-26.81-.84-14-13.37-4.4-22.87,4h-6.38A4.63,4.63,0,0,0,637,534V546.3a4.63,4.63,0,0,0,4.62,4.62h7.78C659.59,558.12,673,564.77,672.51,552.19Z"/><path class="cls-9" d="M697.05,525l-18.11,20c-2,2.2,1.27,5.48,3.27,3.27l18.11-20c2-2.2-1.27-5.48-3.27-3.27Z"/><path class="cls-9" d="M679.33,529.05l18.88,19.27c2.09,2.13,5.35-1.14,3.27-3.27L682.6,525.79c-2.09-2.13-5.36,1.14-3.27,3.26Z"/><circle class="cls-9" cx="912.08" cy="555.34" r="5.54"/><circle class="cls-9" cx="936.29" cy="551.03" r="5.54"/><path class="cls-9" d="M917.2,556.36V521.48c0-3.17-4.92-3.17-4.92,0v34.88c0,3.17,4.92,3.18,4.92,0Z"/><path class="cls-9" d="M941.21,551.64v-33c0-3.17-4.92-3.17-4.92,0v33c0,3.17,4.92,3.18,4.92,0Z"/><path class="cls-9" d="M938.09,515.21,914.7,518.9c-3.12.5-1.79,5.24,1.31,4.75L939.4,520c3.12-.49,1.8-5.24-1.31-4.75Z"/><path class="cls-9" d="M970.52,525l-18,19.91c-2,2.19,1.27,5.45,3.25,3.25l18-19.91c2-2.19-1.26-5.44-3.25-3.25Z"/><path class="cls-9" d="M952.91,529l18.76,19.14c2.07,2.12,5.32-1.13,3.25-3.25l-18.76-19.14c-2.08-2.11-5.32,1.13-3.25,3.25Z"/><path class="cls-7" d="M573.13,344.3v-7.25h-7.25V329.8h14.5v7.25h21.75v-14.5h-29V315.3h-7.25V300.8h7.25v-7.25h36.25v7.25h7.25v7.25h-14.5V300.8H580.38v14.5h29v7.25h7.25v14.5h-7.25v7.25Z"/><path class="cls-7" d="M631.13,344.3v-7.25h-7.25V315.3h7.25v-7.25h36.25v7.25h7.25v14.5H638.38v7.25h29v7.25Zm7.25-21.75h21.75V315.3H638.38Z"/><path class="cls-7" d="M703.63,344.3v-29h-14.5v-7.25h14.5v-14.5h14.5v14.5h14.5v7.25h-14.5v29Z"/><path class="cls-7" d="M761.63,344.3v-29h-14.5v-7.25h14.5v-14.5h14.5v14.5h14.5v7.25h-14.5v29Z"/><path class="cls-7" d="M805.13,344.3v-7.25h14.5V315.3h-7.25v-7.25h21.75v29h14.5v7.25Zm14.5-43.5v-7.25h14.5v7.25Z"/><path class="cls-7" d="M855.88,344.3V308.05h43.5v7.25h7.25v29h-14.5v-29H870.38v29Z"/><path class="cls-7" d="M921.13,351.55V344.3h29v-7.25h-29V329.8h-7.25V315.3h7.25v-7.25h43.5V344.3h-7.25v7.25Zm7.25-21.75h21.75V315.3H928.38Z"/><path class="cls-7" d="M971.88,344.3v-7.25h36.25V329.8h-29v-7.25h-7.25V315.3h7.25v-7.25h36.25v7.25h-29v7.25h29v7.25h7.25v7.25h-7.25v7.25Z"/></g></svg>
