<svg xmlns="http://www.w3.org/2000/svg" xmlns:xlink="http://www.w3.org/1999/xlink" width="1600" height="900" viewBox="0 0 1600 900"><defs><style>.cls-1,.cls-4{opacity:0.45;}.cls-2{fill:#ffe6f4;}.cls-3{fill:url(#linear-gradient);}.cls-4,.cls-7,.cls-8{fill:#fff;}.cls-5{fill:#ff6ea2;}.cls-6{fill:#822e5a;}.cls-8{stroke:#fff;stroke-miterlimit:10;}</style><linearGradient id="linear-gradient" x1="796.31" x2="796.31" y2="729" gradientUnits="userSpaceOnUse"><stop offset="0" stop-color="#ff7bac"/><stop offset="0.61" stop-color="#ff7bac" stop-opacity="0.38"/><stop offset="1" stop-color="#ff7bac" stop-opacity="0"/></linearGradient></defs><title>Game_Over</title><g id="Game_Over"><g class="cls-1"><rect class="cls-2" x="-3.69" y="595" width="1600" height="308"/></g><g class="cls-1"><rect class="cls-3" x="-3.69" width="1600" height="729"/></g><path class="cls-4" d="M1377,186.23l-2.27-9.77q-4.54-9.35-16.38-16.22l-12.89-5.75a100.57,100.57,0,0,0-31-5,24.49,24.49,0,0,0,3.49-4.69q6-6.57,5.48-14.16-1.12-4.89-2.27-9.77-4.55-9.34-16.38-16.22l-12.89-5.74A95.25,95.25,0,0,0,1273,94.7c0-.37,0-.75,0-1.12l-2.28-9.77q-4.53-9.33-16.37-16.22l-12.89-5.74a101.11,101.11,0,0,0-32.14-5H1209a12.1,12.1,0,0,0,2.14-6.28c0-4.06-3.12-8.9-8.39-11.69A41.77,41.77,0,0,0,1182.52,34l-7.62.59a37.28,37.28,0,0,0-12.65,4.26l-40.23,18A76.7,76.7,0,0,0,1101.46,60a59.35,59.35,0,0,0-20.49,7.6q-9.32,5-13.17,11.83-6,6.57-5.49,14.16c0,.1,0,.2.07.3a76.66,76.66,0,0,0-20.89,3.17,59.23,59.23,0,0,0-20.49,7.6q-9.32,5-13.17,11.83-6,6.57-5.49,14.16l2.28,9.77a32,32,0,0,0,6.7,9,77.49,77.49,0,0,0-22.9,3.19,59,59,0,0,0-20.49,7.6q-9.31,5-13.17,11.83-6,6.57-5.48,14.16l2.27,9.77q4.55,9.33,16.38,16.21L980.82,218a101.3,101.3,0,0,0,32.14,5H1276.4c12.14,0,24.29,0,36.44,0h.49a78.32,78.32,0,0,0,24.54-3.17,59,59,0,0,0,20.49-7.6q9.32-5,13.17-11.82Q1377.52,193.82,1377,186.23Z"/><path class="cls-4" d="M901.24,307.67l-4.33-18.6q-8.64-17.76-31.17-30.85l-24.52-10.94a192,192,0,0,0-59.06-9.53,45.26,45.26,0,0,0,6.65-8.92q11.37-12.5,10.43-26.94l-4.32-18.59q-8.64-17.78-31.17-30.86l-24.52-10.93a182.62,182.62,0,0,0-35.86-8c0-.7,0-1.4-.06-2.12L699,112.78Q690.34,95,667.82,81.92L643.29,71q-28.35-9.49-61.16-9.55h-.54a23.07,23.07,0,0,0,4.07-11.95c0-7.71-5.94-16.93-16-22.25A79.59,79.59,0,0,0,531.13,18l-14.49,1.13a70.7,70.7,0,0,0-24.07,8.09L416,61.45a145.39,145.39,0,0,0-39.11,6q-22.54,4.23-39,14.46-17.73,9.51-25.06,22.51-11.38,12.5-10.43,26.94c0,.2.08.39.13.58a145.5,145.5,0,0,0-39.75,6q-22.55,4.23-39,14.46-17.73,9.5-25.06,22.51-11.39,12.5-10.44,26.94,2.18,9.3,4.33,18.59a61.23,61.23,0,0,0,12.75,17.21,147.62,147.62,0,0,0-43.57,6.06q-22.53,4.25-39,14.47-17.72,9.5-25,22.5-11.39,12.51-10.44,26.95l4.33,18.59q8.64,17.76,31.16,30.86l24.53,10.93q28.35,9.49,61.16,9.55H709.78c23.11,0,46.23.08,69.34,0h.94a149.29,149.29,0,0,0,46.69-6q22.53-4.23,39-14.46,17.73-9.51,25.06-22.51Q902.19,322.11,901.24,307.67Z"/><g class="cls-1"><path class="cls-5" d="M1558.13,569.16l-12.4-14.64V443.4h-8.66V415.8l-13.46-134.17L1506,416v26.88l-8.66.24V555.24l-11.23,13-72.07-.48-12.17,22.57V556l4.68-.24V544.2l-8.89-.24v-8.88l-38.37-.24L1318.52,507H1312V477.84H1300V507h-30V477.84h-11.93v28.92l-57.56.24s-.47-10.56-9.13-10.56-8.66,11-8.66,11h-57.32V477.84h-11.94v29.88H1084.3V477.84h-11v29.4l-8.66.24-41.42,28.08H986.5v8.16l-9.83-.24V556h6.08v84c-2.8-7.2-14.27-4.32-14.27-4.32l-.47-4.56c6.32-7.2-1.63-13.44-1.63-13.44s.7-17.28,0-25.2-11.47-7.2-11.47-7.2l-1.64-1.44c5.85-.72,5.38-9.6,5.38-9.6s-2.8-16.57-16.14-15.37-9.13,12.73-9.13,12.73l-1.64,9.12,2.34.24,1.64,3.12c0,1.68,5.38,1.44,5.38,1.44l1.41,2.88-5.15,2.4L910,571.33l-134.3,1-.24-2.89,2.81-.24.7-1.2,2.11-.24v-1.44h2.57v-1.92h-3V556l-5.62-.24V550.2h-5.85v-4.32h-4.68l.47-28.56h4.21v-8.4H763l-.23-8.4s2.57-.72,2.57-6-3-4.8-3-4.8a7.88,7.88,0,0,0-4-6.24v-24l-3.51.72V446.76l-6.08-5.52v-55.3l-2.11-.14v55.68l-5.85,4.8V460l-3.27-.24V484.2c-4,1.2-4.22,5.52-4.22,5.52s-2.8-1.68-2.8,4.56,2.8,5.76,2.8,5.76v8.64h-6.78v8.64l5.38.24v27.6H726.3v5.76h-4.44v3.6l-5.62.24v8.4h-3v2.16L716,566v2.16h3v1.6q-4,.47-8,1.27L585,570.85l-28.32,21.6V532.92h-2.8l-.24-11.52,3,.24V502.2c-13.1-47.76-55.22-63.36-55.22-63.36V409.08c-2.8-31.69-21.52-29-21.52-29V315.82h-3.58l.3,64c-19.42,0-22.46,29-22.46,29v30c-40,14.16-53.58,64.8-53.58,64.8l.23,19.44h3.74v10.08H401.3V597l-9.6-.24v16.08h-6.55V589.09l2.58-.24V572.53l-31.59-21.37V512.28l-7.72-26.88-9.13,27.12V538.2h-3v-6.72H324.08v6l-6.55-.24v-5L303,532v5.28h-6.31v-4.8l-13.81-.24v5.52h-7.49v-5.28H262.78v6.24l-6.79-.24V532.2l-12.87.24v5.28h-7v-5l-12.63-.48v6h-3.75V437.64l-10.06-16.08V405l3.28-.24-14.68-70.9.41-59.86h-3v59.23l-15.21,72h5.39V421.8L175,437.4V555.48L151.4,571.33v17.52l1.64.24v5.76h-1.17l-23.4-52.57H92V497.64H88V453.72l-4-.24V408.6l-1.87,1v-25.2l-9.59,4.56V376.43s8.19-.72,8.19-11-8.43-10.08-8.43-10.08V335.15H70.44v20.4s-9.59-.24-9.36,10.08,9.36,10.8,9.36,10.8v13l-10.06,5v25l-3.28,1.92V453H53.83v44.16H50.55v44.4H15l-18.68,13v51.54H-4v61.13a61.87,61.87,0,1,0,94.15,80.15,61.84,61.84,0,0,0,84.9-22.2c.65,0,1.29,0,1.94,0a57.09,57.09,0,0,0,6.84-.43A32.81,32.81,0,0,0,230,729.22a55.48,55.48,0,0,0,84.55.2,53.47,53.47,0,0,0,67.91,6,22.7,22.7,0,0,0,40.05-10.53l2,.34a22.71,22.71,0,0,0,32.25,1.55,136.52,136.52,0,0,0,32.35-5.7A32.82,32.82,0,0,0,535.6,731.1a83.28,83.28,0,0,0,125-9.54,91.84,91.84,0,0,0,135.73,2.72,32.84,32.84,0,0,0,37.15,10.43,47.44,47.44,0,0,0,80.09-11.42,32.81,32.81,0,0,0,35-3.86,32.81,32.81,0,0,0,52.78,7A87.32,87.32,0,0,0,1136.48,735a91.85,91.85,0,0,0,122.34-12,57,57,0,0,0,88.26,9,32.84,32.84,0,0,0,46.51-13.61,61.88,61.88,0,0,0,110.88-6,55.48,55.48,0,0,0,42.6,4.54,55.51,55.51,0,0,0,49.24,29.88V569.16Z"/></g><path class="cls-6" d="M242.72,313V296.28H226V279.53H209.22V229.28H226V212.53h16.75V195.78h83.75v16.75h-67v16.75H242.72v50.25h16.75v16.75H293v-33.5H276.22V246h50.25v67Z"/><path class="cls-6" d="M343.22,313V229.28H360V212.53h16.75V195.78H427v16.75h16.75v16.75h16.75V313H427v-33.5H376.72V313Zm33.5-50.25H427v-33.5H410.22V212.53H393.47v16.75H376.72Z"/><path class="cls-6" d="M477.22,313V195.78h33.5v16.75h16.75v16.75h16.75V212.53H561V195.78h33.5V313H561V246H544.22v33.5H527.47V246H510.72v67Z"/><path class="cls-6" d="M611.22,313V195.78H728.47v16.75H644.72V246h67v16.75h-67v33.5h83.75V313Z"/><path class="cls-6" d="M896,313V296.28H879.22V212.53H896V195.78h83.75v16.75h16.75v83.75H979.72V313Zm16.75-16.75H963V212.53H912.72Z"/><path class="cls-6" d="M1063.47,313V296.28h-16.75V279.53H1030V262.78h-16.75v-67h33.5V246h16.75v16.75h16.75V246H1097V195.78h33.5v67h-16.75v16.75H1097v16.75h-16.75V313Z"/><path class="cls-6" d="M1147.22,313V195.78h117.25v16.75h-83.75V246h67v16.75h-67v33.5h83.75V313Z"/><path class="cls-6" d="M1281.22,313V195.78h100.5v16.75h16.75v50.25H1365v16.75h16.75v16.75h16.75V313h-50.25V296.28h-16.75V279.53h-16.75V313Zm33.5-50.25h33.5V246H1365v-33.5h-50.25Z"/><path class="cls-6" d="M1016.24,643.59l-2.17-16.11a60.52,60.52,0,0,0-15.58-26.74l-12.27-9.48A60.24,60.24,0,0,0,956.69,583a45,45,0,0,0,3.33-7.73,45.61,45.61,0,0,0,5.21-23.35l-2.16-16.1a60.52,60.52,0,0,0-15.58-26.74l-12.27-9.48a60.68,60.68,0,0,0-17.92-6.94c0-.61,0-1.22,0-1.84l-2.16-16.1A60.52,60.52,0,0,0,899.52,448l-12.27-9.48a60.26,60.26,0,0,0-30.58-8.27h-.27a30.84,30.84,0,0,0,2-10.35c0-6.69-3-14.68-8-19.28-5.2-4.77-12-8.32-19.28-8l-7.25,1a27.27,27.27,0,0,0-12,7L773.6,430.24A70.25,70.25,0,0,0,734.54,448,45.49,45.49,0,0,0,722,467.49a45.7,45.7,0,0,0-5.22,23.34c0,.17.05.34.07.5A45.43,45.43,0,0,0,697,496.56a54.5,54.5,0,0,0-32,32,45.7,45.7,0,0,0-5.22,23.34Q660.81,560,661.9,568A60.73,60.73,0,0,0,668.27,583a45.46,45.46,0,0,0-21.78,5.26,54.43,54.43,0,0,0-32,32,45.52,45.52,0,0,0-5.22,23.35l2.16,16.1A60.52,60.52,0,0,0,627,686.43l12.27,9.48a60.26,60.26,0,0,0,30.58,8.27H920.5c11.56,0,23.11.07,34.67,0h.47a67.41,67.41,0,0,0,42.85-17.75,45.49,45.49,0,0,0,12.53-19.5A45.7,45.7,0,0,0,1016.24,643.59Z"/><circle class="cls-7" cx="817.7" cy="574.58" r="54.57"/><circle class="cls-6" cx="818.15" cy="575.03" r="36.38"/><rect class="cls-6" x="754.26" y="511.14" width="63.89" height="63.89"/><path class="cls-8" d="M770.4,549.31c3.33-3.24,4.05-3.66,6.85.1,5.76,7.71,27.13,29.81,9.2,30.05-13.65.18-8.64.5-25.75.33C744.11,579.63,763.5,556,770.4,549.31Z"/></g><g id="Level_Complete"><g class="cls-1"><path class="cls-5" d="M3174.75,567.66,3162.35,553V441.9h-8.65V414.3l-13.46-134.17-17.66,134.41v26.88l-8.66.24V553.74l-11.23,13-72.07-.48-12.17,22.57V554.46l4.68-.24V542.7l-8.89-.24v-8.88l-38.37-.24-40.72-27.84h-6.55V476.34h-11.93V505.5h-30V476.34h-11.94v28.92l-57.56.24s-.46-10.56-9.12-10.56-8.66,11-8.66,11h-57.33V476.34h-11.93v29.88h-29.25V476.34h-11v29.4l-8.65.24-41.42,28.08h-36.73v8.16l-9.83-.24v12.48h6.08v84c-2.81-7.2-14.27-4.32-14.27-4.32l-.47-4.56c6.32-7.2-1.64-13.44-1.64-13.44s.7-17.28,0-25.2-11.46-7.2-11.46-7.2l-1.64-1.44c5.85-.72,5.38-9.6,5.38-9.6s-2.81-16.57-16.14-15.37-9.13,12.73-9.13,12.73l-1.64,9.12,2.34.24,1.64,3.12c0,1.68,5.38,1.44,5.38,1.44l1.41,2.88-5.15,2.4-27.38-19.44-134.31,1-.23-2.89,2.81-.24.7-1.2,2.11-.24v-1.44h2.57v-1.92h-3v-8.4l-5.62-.24V548.7h-5.85v-4.32h-4.68l.47-28.56h4.21v-8.4h-6.08l-.24-8.4s2.58-.72,2.58-6-3-4.8-3-4.8a7.88,7.88,0,0,0-4-6.24V458l-3.51.72V445.26l-6.08-5.52v-55.3l-2.11-.14V440l-5.85,4.8v13.68l-3.28-.24V482.7c-4,1.2-4.21,5.52-4.21,5.52s-2.81-1.68-2.81,4.56,2.81,5.76,2.81,5.76v8.64h-6.78v8.64l5.38.24v27.6h-5.62v5.76h-4.44V553l-5.62.24v8.4h-3v2.16l2.81.72v2.16h3v1.6c-2.7.31-5.37.73-8,1.27l-126.09-.22L2173.29,591V531.42h-2.81l-.23-11.52,3,.24V500.7c-13.1-47.76-55.22-63.36-55.22-63.36V407.58c-2.81-31.69-21.53-29-21.53-29V314.32H2093l.3,64c-19.42,0-22.46,29-22.46,29v30c-40,14.16-53.59,64.8-53.59,64.8l.24,19.44h3.74v10.08h-3.27v63.85l-9.6-.24v16.08h-6.55V587.59l2.57-.24V571l-31.58-21.37V510.78L1965,483.9,1955.92,511V536.7h-3V530h-12.17v6l-6.55-.24v-5l-14.51-.24v5.28h-6.32v-4.8l-13.8-.24v5.52H1892v-5.28h-12.63v6.24l-6.79-.24V530.7l-12.87.24v5.28h-7v-5l-12.63-.48v6h-3.75V436.14l-10.06-16.08V403.5l3.28-.24-14.68-70.9.41-59.86h-3v59.23l-15.21,72h5.38V420.3l-10.76,15.6V554L1768,569.83v17.52l1.64.24v5.76h-1.17l-23.4-52.57h-36.5V496.14h-4V452.22l-4-.24V407.1l-1.87,1v-25.2l-9.6,4.56V374.93s8.19-.72,8.19-11-8.42-10.08-8.42-10.08V333.65h-1.87v20.4s-9.6-.24-9.36,10.08,9.36,10.8,9.36,10.8v13l-10.06,5v25l-3.28,1.92V451.5h-3.27v44.16h-3.28v44.4h-35.57l-18.67,13v51.54h-.32v61.13a61.86,61.86,0,1,0,94.14,80.15,61.85,61.85,0,0,0,84.91-22.2c.64,0,1.29,0,1.94,0a57.35,57.35,0,0,0,6.84-.43,32.81,32.81,0,0,0,46.21,4.38,55.47,55.47,0,0,0,84.54.2,53.47,53.47,0,0,0,67.91,6,22.71,22.71,0,0,0,40.06-10.53l2,.34a22.7,22.7,0,0,0,32.24,1.55,136.33,136.33,0,0,0,32.35-5.7,32.83,32.83,0,0,0,46.43,10.06,83.28,83.28,0,0,0,125-9.54,91.84,91.84,0,0,0,135.73,2.72,32.84,32.84,0,0,0,37.15,10.43,47.44,47.44,0,0,0,80.09-11.42,32.81,32.81,0,0,0,35-3.86,32.81,32.81,0,0,0,52.78,7,87.32,87.32,0,0,0,135.13,8.52,91.85,91.85,0,0,0,122.34-12,57,57,0,0,0,88.26,9,32.84,32.84,0,0,0,46.51-13.61,61.88,61.88,0,0,0,110.88-6,55.48,55.48,0,0,0,42.6,4.54,55.5,55.5,0,0,0,49.24,29.88V567.66Z"/></g></g></svg>
