<svg xmlns="http://www.w3.org/2000/svg" width="160" height="179" viewBox="0 0 160 179"><defs><style>.cls-1{fill:#c4c4c4;opacity:0.3;}.cls-2{fill:#ead4a7;stroke:#ead4a7;}.cls-2,.cls-3,.cls-4,.cls-5,.cls-6{stroke-miterlimit:10;}.cls-3{fill:#e5c889;stroke:#e5c889;}.cls-4{fill:#d1a63b;stroke:#d1a63b;}.cls-5{stroke:#000;}.cls-6{stroke:#fff;stroke-width:4px;}</style></defs><title>Lab</title><g id="Lab"><ellipse class="cls-1" cx="79.34" cy="155.45" rx="72.9" ry="18.3"/><path class="cls-2" d="M103.54,148.32c-7.32,8.26,23.46,15-11.44,11.45-5.37-.55-6.91,1.72-5.63-13.14.72-8.36,6.22-12.65,11.49-11.51S108.53,142.7,103.54,148.32Z"/><path class="cls-3" d="M115.74,157.7h-2.25a2.25,2.25,0,0,1-2.25-2.25V84.9a2.25,2.25,0,0,1,2.25-2.25h2.25c1.24,0,3,1,3,2.25l-1.31,70.36C117.43,156.5,117,157.7,115.74,157.7Z"/><path class="cls-4" d="M108.05,114.17c21-38.09,7.88-30.59-10.53-56.06C86.79,43.25,72.58,71.2,60.76,104c-10,27.83-37.15,57.55,14.45,55.92C98.85,159.21,90.07,146.75,108.05,114.17Z"/><path class="cls-4" d="M111.8,70.45c15.42,27.85-1.17,8.51-4.58,9.4s-7.4-3-8.91-8.81,1.5-9.11,3.43-12.06C116.86,35.92,105,58.25,111.8,70.45Z"/><path class="cls-4" d="M80.46,10.59c2.22,15.18-.2,52.46-6.57,54.42-4.87,1.5-14.82-16-18.2-31.15"/><path class="cls-2" d="M118.73,45.84C114.23,63.62,94.88,67,83.28,64.07S62.64,52.62,76.72,35.2C88.24,20.93,65.07,6.65,105.88,8.32,137.11,9.61,123.24,28.06,118.73,45.84Z"/><path class="cls-3" d="M76.72,35.2C88.24,20.93,65.07,6.65,105.88,8.32c31.23,1.29,17.36,19.74,12.85,37.52"/><path class="cls-4" d="M152.33,28.23C144.75,42.75,124.17,69.57,115.45,65S114,24.17,121.56,9.65"/><path class="cls-5" d="M86.84,47.93c0,2.65-5,4.69-5.63,4.69s-4.5-2-4.5-4.69S76.14,43.81,82,44C88,44.18,86.84,45.29,86.84,47.93Z"/><path class="cls-3" d="M120.43,155.17c0-5.35-2.17-3.46-4.6-2.72-5.53,1.69-4.32,1.24-4.59,2.72-.76,4,2.15,3.66,4.69,3.66C120.81,158.83,120.43,156.67,120.43,155.17Z"/><path class="cls-3" d="M85.34,113.42c6.37-36-.83-49.54-3.94-49.54s-7.72.47-6.76,49.54c.94,47.66-4.12,47.85.94,47.66C80.09,160.92,76.52,163.33,85.34,113.42Z"/><path class="cls-3" d="M78.77,161.18c0-.89-1.21-4.41-2.81-4.41s-3,3.52-3,4.41,1.3,1.59,2.9,1.59S78.77,162.06,78.77,161.18Z"/><rect class="cls-4" x="30.88" y="75.78" width="6.43" height="88.2" rx="3.21" ry="3.21" transform="translate(-44.95 23.52) rotate(-23.49)"/><path class="cls-2" d="M65.07,150.57c-7.31,8.26,23.46,15-11.44,11.45-5.36-.55-6.91,1.72-5.63-13.13.72-8.37,6.23-12.66,11.49-11.52S70.06,145,65.07,150.57Z"/><circle class="cls-5" cx="105.79" cy="23.6" r="3.28"/><circle class="cls-6" cx="104.37" cy="25.05" r="0.33"/><circle class="cls-5" cx="84.21" cy="23.22" r="3.28"/><circle class="cls-6" cx="82.79" cy="24.67" r="0.33"/></g></svg>
