<svg xmlns="http://www.w3.org/2000/svg" xmlns:xlink="http://www.w3.org/1999/xlink" width="1600" height="900" viewBox="0 0 1600 900"><defs><style>.cls-1,.cls-4{opacity:0.45;}.cls-2{fill:#ffe6f4;}.cls-3{fill:url(#linear-gradient);}.cls-4,.cls-7,.cls-8{fill:#fff;}.cls-5{fill:#ff6ea2;}.cls-6{fill:#822e5a;}.cls-8{stroke:#fff;stroke-miterlimit:10;}</style><linearGradient id="linear-gradient" x1="792.94" y1="-1.5" x2="792.94" y2="727.5" gradientUnits="userSpaceOnUse"><stop offset="0" stop-color="#ff7bac"/><stop offset="0.61" stop-color="#ff7bac" stop-opacity="0.38"/><stop offset="1" stop-color="#ff7bac" stop-opacity="0"/></linearGradient></defs><title>Level_Complete</title><g id="Level_Complete"><g class="cls-1"><rect class="cls-2" x="-7.06" y="593.5" width="1600" height="308"/></g><g class="cls-1"><rect class="cls-3" x="-7.06" y="-1.5" width="1600" height="729"/></g><path class="cls-4" d="M1373.64,184.73l-2.27-9.77q-4.55-9.35-16.38-16.22L1342.1,153a100.57,100.57,0,0,0-31-5,24.92,24.92,0,0,0,3.49-4.69q6-6.57,5.48-14.16-1.14-4.89-2.27-9.77-4.55-9.34-16.38-16.22l-12.89-5.74a95.41,95.41,0,0,0-18.84-4.21c0-.37,0-.75,0-1.12l-2.28-9.77Q1262.82,73,1251,66.09l-12.88-5.74a101.13,101.13,0,0,0-32.15-5h-.28a12.1,12.1,0,0,0,2.14-6.28c0-4.06-3.12-8.9-8.39-11.69a41.78,41.78,0,0,0-20.27-4.85l-7.62.59a37.23,37.23,0,0,0-12.64,4.26l-40.23,18a76.7,76.7,0,0,0-20.56,3.16,59.41,59.41,0,0,0-20.5,7.6q-9.31,5-13.16,11.83-6,6.57-5.49,14.16c0,.1,0,.2.07.3a76.66,76.66,0,0,0-20.89,3.17,59.15,59.15,0,0,0-20.49,7.6q-9.32,5-13.17,11.83-6,6.57-5.49,14.16l2.28,9.77a32,32,0,0,0,6.7,9,77.49,77.49,0,0,0-22.9,3.19,59,59,0,0,0-20.49,7.6q-9.31,5-13.17,11.83-6,6.57-5.49,14.16l2.28,9.77q4.53,9.33,16.38,16.21l12.88,5.75a101.41,101.41,0,0,0,32.15,5H1273c12.14,0,24.29,0,36.44,0h.49a78.21,78.21,0,0,0,24.53-3.17,59,59,0,0,0,20.5-7.6q9.32-5,13.17-11.82Q1374.13,192.32,1373.64,184.73Z"/><path class="cls-4" d="M897.86,306.17l-4.32-18.6q-8.64-17.76-31.17-30.85l-24.52-10.94a192,192,0,0,0-59.06-9.53,45.6,45.6,0,0,0,6.64-8.92q11.39-12.5,10.44-26.94-2.16-9.3-4.33-18.59-8.62-17.78-31.16-30.86L735.85,140A182.36,182.36,0,0,0,700,132c0-.7,0-1.4-.06-2.12l-4.33-18.59Q687,93.52,664.44,80.42L639.92,69.49Q611.57,60,578.76,59.94h-.55A23,23,0,0,0,582.29,48c0-7.71-5.94-16.93-16-22.25a79.62,79.62,0,0,0-38.56-9.22l-14.5,1.13a70.72,70.72,0,0,0-24.06,8.09L412.64,60a145.52,145.52,0,0,0-39.12,6q-22.53,4.23-39,14.46-17.73,9.51-25.06,22.51-11.39,12.5-10.44,26.94c.05.2.09.39.14.58a145.58,145.58,0,0,0-39.76,6q-22.53,4.23-39,14.46-17.72,9.5-25,22.51-11.38,12.5-10.44,26.94,2.16,9.3,4.33,18.59A61,61,0,0,0,202,236.19a147.62,147.62,0,0,0-43.57,6.06q-22.53,4.25-39,14.47-17.73,9.5-25.06,22.5Q83,291.73,83.94,306.17l4.33,18.59q8.63,17.76,31.16,30.86L144,366.55q28.35,9.49,61.16,9.55H706.41c23.11,0,46.23.08,69.34,0h.93a149.21,149.21,0,0,0,46.69-6q22.54-4.23,39-14.46,17.73-9.51,25.06-22.51Q898.82,320.61,897.86,306.17Z"/><g class="cls-1"><path class="cls-5" d="M1554.75,567.66,1542.35,553V441.9h-8.65V414.3l-13.46-134.17-17.66,134.41v26.88l-8.66.24V553.74l-11.23,13-72.07-.48-12.17,22.57V554.46l4.68-.24V542.7l-8.89-.24v-8.88l-38.37-.24-40.72-27.84h-6.55V476.34h-11.93V505.5h-30V476.34h-11.94v28.92l-57.56.24s-.46-10.56-9.12-10.56-8.66,11-8.66,11h-57.33V476.34h-11.93v29.88h-29.25V476.34h-11v29.4l-8.65.24-41.42,28.08H983.13v8.16L973.3,542v12.48h6.08v84c-2.81-7.2-14.27-4.32-14.27-4.32l-.47-4.56c6.32-7.2-1.64-13.44-1.64-13.44s.7-17.28,0-25.2-11.46-7.2-11.46-7.2l-1.64-1.44c5.85-.72,5.38-9.6,5.38-9.6s-2.81-16.57-16.14-15.37S930,570.07,930,570.07l-1.64,9.12,2.34.24,1.64,3.12c0,1.68,5.38,1.44,5.38,1.44l1.41,2.88-5.15,2.4-27.38-19.44-134.31,1-.23-2.89,2.81-.24.7-1.2,2.11-.24v-1.44h2.57v-1.92h-3v-8.4l-5.62-.24V548.7h-5.85v-4.32h-4.68l.47-28.56h4.21v-8.4h-6.08l-.24-8.4s2.58-.72,2.58-6-3-4.8-3-4.8a7.88,7.88,0,0,0-4-6.24V458l-3.51.72V445.26l-6.08-5.52v-55.3l-2.11-.14V440l-5.85,4.8v13.68l-3.28-.24V482.7c-4,1.2-4.21,5.52-4.21,5.52s-2.81-1.68-2.81,4.56,2.81,5.76,2.81,5.76v8.64h-6.78v8.64l5.38.24v27.6h-5.62v5.76h-4.44V553l-5.62.24v8.4h-3v2.16l2.81.72v2.16h3v1.6c-2.7.31-5.37.73-8,1.27l-126.09-.22L553.29,591V531.42h-2.81l-.23-11.52,3,.24V500.7c-13.1-47.76-55.22-63.36-55.22-63.36V407.58c-2.81-31.69-21.53-29-21.53-29V314.32H473l.3,64c-19.42,0-22.46,29-22.46,29v30c-40,14.16-53.59,64.8-53.59,64.8l.24,19.44h3.74v10.08h-3.27v63.85l-9.6-.24v16.08h-6.55V587.59l2.57-.24V571l-31.58-21.37V510.78L345,483.9,335.92,511V536.7h-3V530H320.71v6l-6.55-.24v-5l-14.51-.24v5.28h-6.32v-4.8l-13.8-.24v5.52H272v-5.28H259.41v6.24l-6.79-.24V530.7l-12.87.24v5.28h-7v-5l-12.63-.48v6h-3.75V436.14l-10.06-16.08V403.5l3.28-.24-14.68-70.9.41-59.86h-3.05v59.23l-15.21,72h5.38V420.3l-10.76,15.6V554L148,569.83v17.52l1.64.24v5.76H148.5l-23.4-52.57H88.6V496.14h-4V452.22l-4-.24V407.1l-1.87,1v-25.2l-9.6,4.56V374.93s8.19-.72,8.19-11-8.42-10.08-8.42-10.08V333.65H67.07v20.4s-9.6-.24-9.36,10.08,9.36,10.8,9.36,10.8v13l-10.06,5v25l-3.28,1.92V451.5H50.46v44.16H47.18v44.4H11.61l-18.67,13v51.54h-.32v61.13a61.86,61.86,0,1,0,94.14,80.15,61.85,61.85,0,0,0,84.91-22.2c.64,0,1.29,0,1.94,0a57.35,57.35,0,0,0,6.84-.43,32.81,32.81,0,0,0,46.21,4.38,55.47,55.47,0,0,0,84.54.2,53.47,53.47,0,0,0,67.91,6,22.71,22.71,0,0,0,40.06-10.53l2,.34a22.7,22.7,0,0,0,32.24,1.55,136.33,136.33,0,0,0,32.35-5.7,32.83,32.83,0,0,0,46.43,10.06,83.28,83.28,0,0,0,125-9.54,91.84,91.84,0,0,0,135.73,2.72,32.84,32.84,0,0,0,37.15,10.43,47.44,47.44,0,0,0,80.09-11.42,32.81,32.81,0,0,0,35-3.86A32.81,32.81,0,0,0,998,725a87.32,87.32,0,0,0,135.13,8.52,91.85,91.85,0,0,0,122.34-12,57,57,0,0,0,88.26,9,32.84,32.84,0,0,0,46.51-13.61,61.88,61.88,0,0,0,110.88-6,55.48,55.48,0,0,0,42.6,4.54,55.5,55.5,0,0,0,49.24,29.88V567.66Z"/></g><path class="cls-6" d="M491.12,226.74V109.49h33.5V210h67v16.75Z"/><path class="cls-6" d="M608.37,226.74V109.49H725.62v16.75H641.87v33.5h67v16.75h-67V210h83.75v16.75Z"/><path class="cls-6" d="M792.62,226.74V210H775.87V193.24H759.12V176.49H742.37v-67h33.5v50.25h16.75v16.75h16.74V159.74h16.75V109.49h33.5v67H842.86v16.75H826.11V210H809.36v16.75Z"/><path class="cls-6" d="M876.36,226.74V109.49H993.61v16.75H909.86v33.5h67v16.75h-67V210h83.75v16.75Z"/><path class="cls-6" d="M1027.11,226.74V109.49h33.5V210h67v16.75Z"/><path class="cls-6" d="M239.87,387.54V370.79H223.12V354H206.37V303.79h16.75V287h16.75V270.29h67V287h16.75v16.75h-33.5V287h-33.5v16.75H239.87V354h16.75v16.75h33.5V354h33.5v16.75H306.87v16.75Z"/><path class="cls-6" d="M357.12,387.54V370.79H340.37V287h16.75V270.29h83.75V287h16.75v83.75H440.87v16.75Zm16.75-16.75h50.25V287H373.87Z"/><path class="cls-6" d="M474.37,387.54V270.29h33.5V287h16.75v16.75h16.75V287h16.75V270.29h33.5V387.54h-33.5v-67H541.37V354H524.62v-33.5H507.87v67Z"/><path class="cls-6" d="M608.37,387.54V270.29h100.5V287h16.75v50.25H708.87V354h-67v33.5Zm33.5-50.25h50.25V287H641.87Z"/><path class="cls-6" d="M759.12,387.54V270.29h33.5v100.5h67v16.75Z"/><path class="cls-6" d="M876.36,387.54V270.29H993.61V287H909.86v33.5h67v16.75h-67v33.5h83.75v16.75Z"/><path class="cls-6" d="M1060.61,387.54V287h-33.5V270.29h100.5V287h-33.5v100.5Z"/><path class="cls-6" d="M1144.36,387.54V270.29h117.25V287h-83.75v33.5h67v16.75h-67v33.5h83.75v16.75Z"/><path class="cls-6" d="M1311.86,354V270.29h50.25v50.25h-16.75V354Zm0,33.5V370.79h33.5v16.75Z"/><path class="cls-6" d="M1012.86,729.88l-2.16-16.11A60.57,60.57,0,0,0,995.12,687l-12.27-9.47a60.25,60.25,0,0,0-29.53-8.26,45.71,45.71,0,0,0,3.32-7.72,45.56,45.56,0,0,0,5.22-23.35l-2.16-16.11a60.59,60.59,0,0,0-15.59-26.74l-12.26-9.47A60.36,60.36,0,0,0,913.92,579c0-.61,0-1.23,0-1.84L911.73,561a60.53,60.53,0,0,0-15.59-26.74l-12.26-9.47a60.4,60.4,0,0,0-30.58-8.28H853a30.6,30.6,0,0,0,2-10.35c0-6.69-3-14.68-8-19.28-5.2-4.77-12-8.31-19.28-8l-7.25,1a27.24,27.24,0,0,0-12,7l-38.28,29.64a70.14,70.14,0,0,0-39.06,17.74,45.4,45.4,0,0,0-12.53,19.5,45.74,45.74,0,0,0-5.22,23.35c0,.16.05.33.07.5a69.85,69.85,0,0,0-39.38,17.75,45.4,45.4,0,0,0-12.53,19.5,45.74,45.74,0,0,0-5.22,23.35q1.08,8.06,2.17,16.11a60.89,60.89,0,0,0,6.37,14.91,45.6,45.6,0,0,0-21.79,5.25,54.5,54.5,0,0,0-32,32,45.74,45.74,0,0,0-5.22,23.35L608,746a60.57,60.57,0,0,0,15.58,26.74l12.27,9.47a60.37,60.37,0,0,0,30.58,8.28H917.13c11.55,0,23.11.06,34.67,0h.47a67.47,67.47,0,0,0,42.85-17.75,67.33,67.33,0,0,0,17.74-42.85Z"/><circle class="cls-7" cx="814.33" cy="660.88" r="54.57"/><circle class="cls-6" cx="814.77" cy="661.32" r="36.38"/><rect class="cls-6" x="750.89" y="597.43" width="63.89" height="63.89"/><path class="cls-8" d="M767,635.6c3.33-3.23,4.05-3.65,6.85.1,5.75,7.71,27.12,29.82,9.2,30-13.65.19-8.64.5-25.75.33C740.74,665.92,760.13,642.3,767,635.6Z"/></g></svg>
