<svg xmlns="http://www.w3.org/2000/svg" width="61" height="47" viewBox="0 0 61 47"><defs><style>.cls-1{fill:#822e5a;opacity:0.5;}</style></defs><title>Lort_Minus_Point</title><g id="Lort_Minus_Point"><path class="cls-1" d="M59.08,36.34l-.3-2.22a8.3,8.3,0,0,0-2.15-3.7l-1.69-1.3A8.32,8.32,0,0,0,50.86,28a6.25,6.25,0,0,0,.45-1.06A6.32,6.32,0,0,0,52,23.68l-.3-2.22a8.42,8.42,0,0,0-2.16-3.7l-1.69-1.31a8.56,8.56,0,0,0-2.48-1v-.25L45.11,13A8.33,8.33,0,0,0,43,9.32L41.26,8A8.26,8.26,0,0,0,37,6.87h0a4.4,4.4,0,0,0,.28-1.43,3.85,3.85,0,0,0-1.1-2.67,3.79,3.79,0,0,0-2.67-1.1l-1,.13a3.82,3.82,0,0,0-1.66,1l-5.29,4.1a6.12,6.12,0,0,0-2.71.72,6.3,6.3,0,0,0-2.69,1.73A6.3,6.3,0,0,0,18.43,12a6.21,6.21,0,0,0-.72,3.23v.07A6.25,6.25,0,0,0,15,16a6.19,6.19,0,0,0-2.69,1.73,6.19,6.19,0,0,0-1.73,2.7,6.26,6.26,0,0,0-.73,3.22l.3,2.23A8.76,8.76,0,0,0,11,28a6.28,6.28,0,0,0-3,.72A6.4,6.4,0,0,0,5.3,30.42a6.28,6.28,0,0,0-1.73,2.7,6.17,6.17,0,0,0-.72,3.22l.3,2.23A8.22,8.22,0,0,0,5.3,42.26L7,43.57a8.4,8.4,0,0,0,4.23,1.15H50.71A6.41,6.41,0,0,0,53.94,44a6.33,6.33,0,0,0,2.69-1.74,6.19,6.19,0,0,0,1.73-2.69A6.19,6.19,0,0,0,59.08,36.34Z"/></g></svg>
