<svg xmlns="http://www.w3.org/2000/svg" width="248" height="202" viewBox="0 0 248 202"><defs><style>.cls-1{fill:#82614a;}.cls-2{fill:#603f25;}.cls-3{fill:#fff;stroke:#fff;stroke-miterlimit:10;}</style></defs><title>Lort_Start</title><g id="Lort_Start"><path class="cls-1" d="M240,156.7c-.41-3.07-.83-6.14-1.24-9.22a34.66,34.66,0,0,0-8.92-15.31l-7-5.42A34.54,34.54,0,0,0,205.89,122a25.94,25.94,0,0,0,1.9-4.42,26.17,26.17,0,0,0,3-13.37c-.41-3.08-.83-6.15-1.24-9.22a34.66,34.66,0,0,0-8.92-15.31l-7-5.43a34.72,34.72,0,0,0-10.26-4c0-.35,0-.7,0-1-.41-3.08-.82-6.15-1.24-9.23a34.72,34.72,0,0,0-8.92-15.31l-7-5.42a34.53,34.53,0,0,0-17.51-4.74h-.16a17.45,17.45,0,0,0,1.17-5.93,15.92,15.92,0,0,0-4.57-11c-3-2.73-6.88-4.75-11-4.57l-4.15.56a15.6,15.6,0,0,0-6.89,4l-21.92,17a26,26,0,0,0-11.2,3,26.1,26.1,0,0,0-11.17,7.17,26.1,26.1,0,0,0-7.17,11.17,26.15,26.15,0,0,0-3,13.37l0,.28a25.91,25.91,0,0,0-11.38,3A26,26,0,0,0,46,79.7a26,26,0,0,0-7.17,11.16,26.17,26.17,0,0,0-3,13.37c.41,3.07.83,6.15,1.24,9.22A35.3,35.3,0,0,0,40.75,122a26,26,0,0,0-12.47,3,26,26,0,0,0-11.17,7.17,26,26,0,0,0-7.17,11.17A26,26,0,0,0,7,156.7c.41,3.08.83,6.15,1.24,9.23a34.72,34.72,0,0,0,8.92,15.31l7,5.42a34.53,34.53,0,0,0,17.51,4.74H185.16c6.62,0,13.24,0,19.86,0h.26a26.15,26.15,0,0,0,13.37-3A31.14,31.14,0,0,0,237,170.07,26.15,26.15,0,0,0,240,156.7Z"/><path class="cls-2" d="M213.63,149.92l-1-7.12A26.82,26.82,0,0,0,205.78,131l-5.42-4.18a26.56,26.56,0,0,0-13.05-3.65,20,20,0,0,0,1.47-3.42,20.11,20.11,0,0,0,2.31-10.31l-1-7.12a26.71,26.71,0,0,0-6.89-11.82l-5.42-4.19a27,27,0,0,0-7.92-3.07c0-.27,0-.54,0-.81l-1-7.12A26.73,26.73,0,0,0,162,63.48l-5.42-4.19a26.7,26.7,0,0,0-13.51-3.66H143a13.55,13.55,0,0,0,.9-4.57,12.27,12.27,0,0,0-3.53-8.52A12.09,12.09,0,0,0,131.84,39l-3.21.43a12,12,0,0,0-5.32,3.1L106.4,55.63a20.06,20.06,0,0,0-8.65,2.31,20,20,0,0,0-8.62,5.54,20,20,0,0,0-5.54,8.61,20.27,20.27,0,0,0-2.3,10.32l0,.22a20.1,20.1,0,0,0-8.79,2.31,20.12,20.12,0,0,0-8.62,5.54,20,20,0,0,0-5.53,8.62,20.13,20.13,0,0,0-2.31,10.32l1,7.12a27.38,27.38,0,0,0,2.81,6.59,20,20,0,0,0-9.62,2.32A20,20,0,0,0,41.6,131a20.12,20.12,0,0,0-5.54,8.62,20.13,20.13,0,0,0-2.31,10.32l1,7.12a26.71,26.71,0,0,0,6.89,11.82L47,173.05a26.59,26.59,0,0,0,13.51,3.65H171.32c5.1,0,10.21,0,15.32,0h.21a20.27,20.27,0,0,0,10.32-2.3,24.12,24.12,0,0,0,14.15-14.16A20.13,20.13,0,0,0,213.63,149.92Z"/><path class="cls-3" d="M141,117.76c3.18,3.18,3.6,3.87,0,6.64-7.39,5.68-28.49,26.69-29,9.33-.37-13.21-.6-8.36-.68-24.93C111.23,92.72,134.38,111.17,141,117.76Z"/></g></svg>
