<svg xmlns="http://www.w3.org/2000/svg" width="87" height="75" viewBox="0 0 87 75"><defs><style>.cls-1{fill:#822e5a;}.cls-2{fill:#fff;}</style></defs><title>Lort_Exit</title><g id="Lort_Exit"><path class="cls-1" d="M81,53.13,80.6,50.2a11,11,0,0,0-2.84-4.87l-2.23-1.72a10.81,10.81,0,0,0-5.37-1.5,8.78,8.78,0,0,0,.6-1.41,8.27,8.27,0,0,0,.95-4.25l-.39-2.93a10.89,10.89,0,0,0-2.84-4.86l-2.23-1.73A11,11,0,0,0,63,25.67c0-.11,0-.22,0-.34l-.39-2.93a11,11,0,0,0-2.84-4.86l-2.23-1.73A11,11,0,0,0,52,14.31h-.05a5.64,5.64,0,0,0,.37-1.89,5,5,0,0,0-5-5L46,7.64a5,5,0,0,0-2.19,1.28l-7,5.39a8.22,8.22,0,0,0-3.56.95,8.14,8.14,0,0,0-3.54,2.28,8.17,8.17,0,0,0-2.28,3.55,8.26,8.26,0,0,0-.95,4.24v.09a8.31,8.31,0,0,0-3.62,1,8.17,8.17,0,0,0-3.55,2.28,8.33,8.33,0,0,0-2.28,3.54,8.4,8.4,0,0,0-.95,4.25c.13,1,.27,2,.4,2.93a11.15,11.15,0,0,0,1.16,2.72,8.37,8.37,0,0,0-4,.95,8.42,8.42,0,0,0-3.55,2.28,8.36,8.36,0,0,0-2.28,3.55,8.38,8.38,0,0,0-1,4.25l.4,2.93a11.06,11.06,0,0,0,2.83,4.87l2.24,1.72A11,11,0,0,0,18,64.16H63.57c2.11,0,4.21,0,6.31,0H70a8.4,8.4,0,0,0,4.25-.95,8.33,8.33,0,0,0,3.54-2.28A8.23,8.23,0,0,0,80,57.38,8.3,8.3,0,0,0,81,53.13Z"/><path class="cls-2" d="M48.42,33.22,36.77,46.12c-1.29,1.42.81,3.53,2.1,2.1L50.53,35.33c1.28-1.42-.82-3.53-2.11-2.11Z"/><path class="cls-2" d="M37,35.82l12.16,12.4c1.34,1.37,3.45-.73,2.1-2.1L39.12,33.72c-1.34-1.37-3.45.73-2.11,2.1Z"/></g></svg>
