<svg xmlns="http://www.w3.org/2000/svg" width="450" height="361" viewBox="0 0 450 361"><defs><style>.cls-1{fill:#822e5a;}.cls-2,.cls-3{fill:#fff;}.cls-3{stroke:#fff;stroke-miterlimit:10;}</style></defs><title>Lort_Play_Again</title><g id="Lort_Play_Again"><path class="cls-1" d="M428.24,277.59l-2.17-16.11a60.52,60.52,0,0,0-15.58-26.74l-12.27-9.48A60.24,60.24,0,0,0,368.69,217a45,45,0,0,0,3.33-7.73,45.61,45.61,0,0,0,5.21-23.35l-2.16-16.1a60.52,60.52,0,0,0-15.58-26.74l-12.27-9.48a60.68,60.68,0,0,0-17.92-6.94c0-.61,0-1.22,0-1.84l-2.16-16.1A60.52,60.52,0,0,0,311.52,82l-12.27-9.48a60.26,60.26,0,0,0-30.58-8.27h-.27a30.84,30.84,0,0,0,2-10.35c0-6.69-3-14.68-8-19.28-5.2-4.77-12-8.32-19.28-8l-7.25,1a27.27,27.27,0,0,0-12,7L185.6,64.24A45.27,45.27,0,0,0,166,69.46,45.4,45.4,0,0,0,146.54,82,45.49,45.49,0,0,0,134,101.49a45.7,45.7,0,0,0-5.22,23.34c0,.17.05.34.07.5A45.43,45.43,0,0,0,109,130.56a45.4,45.4,0,0,0-19.5,12.53A45.49,45.49,0,0,0,77,162.59a45.7,45.7,0,0,0-5.22,23.34Q72.81,194,73.9,202A60.73,60.73,0,0,0,80.27,217a45.46,45.46,0,0,0-21.78,5.26A45.37,45.37,0,0,0,39,234.74a45.47,45.47,0,0,0-12.52,19.5,45.52,45.52,0,0,0-5.22,23.35l2.16,16.1A60.52,60.52,0,0,0,39,320.43l12.27,9.48a60.26,60.26,0,0,0,30.58,8.27H332.5c11.56,0,23.11.07,34.67,0h.47A45.54,45.54,0,0,0,391,333a54.5,54.5,0,0,0,32-32A45.7,45.7,0,0,0,428.24,277.59Z"/><circle class="cls-2" cx="229.7" cy="208.58" r="54.57"/><circle class="cls-1" cx="230.15" cy="209.03" r="36.38"/><rect class="cls-1" x="166.26" y="145.14" width="63.89" height="63.89"/><path class="cls-3" d="M182.4,183.31c3.33-3.24,4-3.66,6.85.1,5.76,7.71,27.13,29.81,9.2,30.05-13.65.18-8.64.5-25.75.33C156.11,213.63,175.5,190,182.4,183.31Z"/></g></svg>
