<svg xmlns="http://www.w3.org/2000/svg" width="248" height="202" viewBox="0 0 248 202"><defs><style>.cls-1{fill:#822e5a;}.cls-2,.cls-3{fill:#fff;}.cls-2{stroke:#fff;stroke-miterlimit:10;}</style></defs><title>Lort_Mute_Sound</title><g id="Lort_Mute_Sound"><path class="cls-1" d="M229.19,142.24,228.07,134a31.13,31.13,0,0,0-8-13.77l-6.31-4.87a31,31,0,0,0-15.2-4.25,22.73,22.73,0,0,0,1.71-4,23.51,23.51,0,0,0,2.69-12l-1.12-8.3a31.1,31.1,0,0,0-8-13.76l-6.31-4.87a31,31,0,0,0-9.23-3.58c0-.31,0-.63,0-.94l-1.12-8.29a31.13,31.13,0,0,0-8-13.77l-6.31-4.87a31.09,31.09,0,0,0-15.74-4.26h-.14A16,16,0,0,0,148,27.1a14.28,14.28,0,0,0-4.11-9.92c-2.68-2.46-6.19-4.28-9.93-4.11l-3.73.5A13.92,13.92,0,0,0,124,17.18L104.3,32.43a23.26,23.26,0,0,0-10.06,2.69,23.26,23.26,0,0,0-10,6.44,23.43,23.43,0,0,0-6.45,10,23.55,23.55,0,0,0-2.69,12l0,.25a23.35,23.35,0,0,0-10.23,2.69,23.43,23.43,0,0,0-10,6.45,23.43,23.43,0,0,0-6.45,10,23.44,23.44,0,0,0-2.68,12l1.11,8.29A31.74,31.74,0,0,0,50.09,111a23.36,23.36,0,0,0-11.21,2.71,23.32,23.32,0,0,0-10,6.44,23.49,23.49,0,0,0-6.45,10,23.44,23.44,0,0,0-2.68,12l1.11,8.29a31.19,31.19,0,0,0,8,13.76l6.31,4.88a31.09,31.09,0,0,0,15.74,4.26h129c6,0,11.9,0,17.85,0H198a23.51,23.51,0,0,0,12-2.69,28,28,0,0,0,16.49-16.49A23.51,23.51,0,0,0,229.19,142.24Z"/><path class="cls-2" d="M127.51,119.19c-.66-17.83-.74-12.6-1.6-26.81-.84-14-13.37-4.4-22.87,4H96.66A4.63,4.63,0,0,0,92,101V113.3a4.63,4.63,0,0,0,4.62,4.62h7.78C114.59,125.12,128,131.77,127.51,119.19Z"/><path class="cls-3" d="M152.05,92l-18.11,20c-2,2.2,1.27,5.48,3.27,3.27l18.11-20c2-2.2-1.27-5.48-3.27-3.27Z"/><path class="cls-3" d="M134.33,96.05l18.88,19.27c2.09,2.13,5.35-1.14,3.27-3.27L137.6,92.79c-2.09-2.13-5.36,1.14-3.27,3.26Z"/></g></svg>
