<svg xmlns="http://www.w3.org/2000/svg" width="61" height="47" viewBox="0 0 61 47"><defs><style>.cls-1{fill:#822e5a;}</style></defs><title>Lort_Plus_Point</title><g id="Lort_Plus_Point"><path class="cls-1" d="M58.51,36.34l-.3-2.22a8.42,8.42,0,0,0-2.16-3.7l-1.69-1.3A8.26,8.26,0,0,0,50.28,28a6.28,6.28,0,0,0,.46-1.06,6.41,6.41,0,0,0,.72-3.23l-.3-2.22A8.49,8.49,0,0,0,49,17.76l-1.7-1.31a8.5,8.5,0,0,0-2.47-1c0-.08,0-.17,0-.25L44.53,13a8.31,8.31,0,0,0-2.15-3.69L40.68,8a8.23,8.23,0,0,0-4.22-1.14h0a4.15,4.15,0,0,0,.28-1.43,3.85,3.85,0,0,0-1.1-2.67,3.76,3.76,0,0,0-2.66-1.1l-1,.13a3.88,3.88,0,0,0-1.66,1L25,6.87a6,6,0,0,0-2.7.72,6.28,6.28,0,0,0-2.7,1.73A6.4,6.4,0,0,0,17.85,12a6.41,6.41,0,0,0-.72,3.23v.07a6.29,6.29,0,0,0-2.75.72,6.3,6.3,0,0,0-2.69,1.73A6.28,6.28,0,0,0,10,20.46a6.15,6.15,0,0,0-.72,3.22l.3,2.23A8.36,8.36,0,0,0,10.43,28a6.25,6.25,0,0,0-3,.72,6.37,6.37,0,0,0-2.7,1.73A6.37,6.37,0,0,0,3,33.12a6.37,6.37,0,0,0-.72,3.22l.3,2.23a8.4,8.4,0,0,0,2.15,3.69l1.7,1.31a8.33,8.33,0,0,0,4.22,1.15H50.13A6.39,6.39,0,0,0,53.36,44a6.21,6.21,0,0,0,2.69-1.74,6.21,6.21,0,0,0,1.74-2.69A6.39,6.39,0,0,0,58.51,36.34Z"/></g></svg>
