<svg id="Mops" xmlns="http://www.w3.org/2000/svg" width="215" height="211" viewBox="0 0 215 211"><defs><style>.cls-1{fill:#c4c4c4;opacity:0.3;}.cls-2{fill:#c6b49e;}.cls-3{fill:#937a61;}.cls-4{fill:#161410;}.cls-5{fill:#fff;}.cls-6{fill:#353027;}</style></defs><title>Mops</title><ellipse class="cls-1" cx="107.5" cy="169.43" rx="101.5" ry="32.66"/><path class="cls-2" d="M109,53.32c-38.73-.07-74.39,32.55-74.39,72.29s31,42.64,69.76,42.64,66.38-6.48,74.77-43C188.23,85.75,150.92,53.4,109,53.32Z"/><path class="cls-2" d="M109,52A76,76,0,0,0,66.2,65.63a77.4,77.4,0,0,0-28,34.77,68.39,68.39,0,0,0-4.79,22.23A55,55,0,0,0,36,143.26a32.79,32.79,0,0,0,8.92,13.64,40.55,40.55,0,0,0,14.06,7.89c12.61,4.31,26.48,4.61,39.67,4.74,14.4.14,29.17,0,43.21-3.63,11.65-3,22.32-9,29.44-18.89a56.61,56.61,0,0,0,8.26-17.91,56,56,0,0,0,1.92-22c-1.75-14.09-9.34-26.7-19.95-35.95a79.15,79.15,0,0,0-40.88-18.3A86.44,86.44,0,0,0,109,52a1.31,1.31,0,0,0,0,2.62A79.71,79.71,0,0,1,151.32,66.8C162.86,74.14,172.5,85,176.78,98.1s2.52,27.86-3.48,40.32a44.85,44.85,0,0,1-24.51,22.51c-12.32,4.8-25.89,5.73-39,6-7.32.13-14.66.08-22-.25a131.34,131.34,0,0,1-19.18-2c-10.25-2-20.75-6.06-26.73-15.11a37.35,37.35,0,0,1-5.56-16.2,65.13,65.13,0,0,1,1.14-21.92,72.06,72.06,0,0,1,21.89-37,75.61,75.61,0,0,1,38.8-18.9A68.81,68.81,0,0,1,109,54.63,1.31,1.31,0,0,0,109,52Z"/><ellipse class="cls-3" cx="105.75" cy="108.6" rx="60.4" ry="51.63"/><path class="cls-3" d="M105.75,162.33c-16.63,0-32.28-5.55-44.07-15.63S43.26,123,43.26,108.6,49.8,80.66,61.68,70.5s27.44-15.62,44.07-15.62S138,60.43,149.82,70.5s18.42,23.69,18.42,38.1-6.54,27.94-18.42,38.1S122.38,162.33,105.75,162.33Zm0-103.27c-32.15,0-58.31,22.22-58.31,49.54s26.16,49.55,58.31,49.55,58.31-22.23,58.31-49.55S137.91,59.06,105.75,59.06Z"/><ellipse class="cls-2" cx="105.96" cy="61.57" rx="60.4" ry="51.63"/><path class="cls-2" d="M106,113.33c-16.17,0-31.37-5.38-42.8-15.15S45.42,75.4,45.42,61.57,51.72,34.73,63.16,25,89.79,9.8,106,9.8,137.32,15.18,148.75,25s17.74,22.78,17.74,36.61-6.3,26.83-17.74,36.61S122.12,113.33,106,113.33Zm0-103.27c-33.24,0-60.27,23.11-60.27,51.51s27,51.5,60.27,51.5,60.27-23.1,60.27-51.5S139.19,10.06,106,10.06Z"/><ellipse class="cls-3" cx="105.39" cy="80.04" rx="40.46" ry="33.02"/><path class="cls-3" d="M105.39,115.14c-11.29,0-21.92-3.6-29.93-10.14S62.84,89.49,62.84,80s4.48-18.33,12.62-25S94.1,44.93,105.39,44.93s21.92,3.6,29.93,10.14,12.62,15.51,12.62,25-4.48,18.32-12.62,25S116.68,115.14,105.39,115.14Zm0-66C84.23,49.11,67,63,67,80S84.23,111,105.39,111,143.76,97.09,143.76,80,126.55,49.11,105.39,49.11Z"/><circle class="cls-3" cx="77.67" cy="57.22" r="16.08"/><path class="cls-3" d="M77.67,75.39A18.18,18.18,0,1,1,95.85,57.22,18.19,18.19,0,0,1,77.67,75.39Zm0-32.17a14,14,0,1,0,14,14A14,14,0,0,0,77.67,43.22Z"/><circle class="cls-3" cx="134.9" cy="57.22" r="16.08"/><path class="cls-3" d="M134.9,75.39a18.18,18.18,0,1,1,18.17-18.17A18.19,18.19,0,0,1,134.9,75.39Zm0-32.17a14,14,0,1,0,14,14A14,14,0,0,0,134.9,43.22Z"/><circle class="cls-4" cx="77.46" cy="57.34" r="7.4"/><path class="cls-4" d="M77.46,67.35a10,10,0,1,1,10-10A10,10,0,0,1,77.46,67.35Zm0-14.8a4.79,4.79,0,1,0,4.79,4.79A4.79,4.79,0,0,0,77.46,52.55Z"/><circle class="cls-4" cx="134.75" cy="57.18" r="7.4"/><path class="cls-4" d="M134.75,67.19a10,10,0,1,1,10-10A10,10,0,0,1,134.75,67.19Zm0-14.79a4.79,4.79,0,1,0,4.78,4.78A4.79,4.79,0,0,0,134.75,52.4Z"/><circle cx="77.31" cy="57.18" r="2.93"/><path d="M77.31,62.72a5.54,5.54,0,1,1,5.54-5.54A5.54,5.54,0,0,1,77.31,62.72Zm0-5.85a.32.32,0,1,0,.31.31A.31.31,0,0,0,77.31,56.87Z"/><circle cx="134.75" cy="57.49" r="2.93"/><path d="M134.75,63a5.54,5.54,0,1,1,5.54-5.54A5.54,5.54,0,0,1,134.75,63Zm0-5.85a.32.32,0,1,0,0,.63.32.32,0,0,0,0-.63Z"/><circle cx="80.7" cy="53.79" r="0.46"/><path class="cls-5" d="M80.7,55.82a2,2,0,1,1,2-2A2,2,0,0,1,80.7,55.82Zm0-3.13a1.11,1.11,0,1,0,1.1,1.1A1.11,1.11,0,0,0,80.7,52.69Z"/><circle cx="138.76" cy="53.49" r="0.46"/><path class="cls-5" d="M138.76,55.52a2,2,0,1,1,2-2A2,2,0,0,1,138.76,55.52Zm0-3.14a1.11,1.11,0,1,0,1.1,1.11A1.11,1.11,0,0,0,138.76,52.38Z"/><path class="cls-6" d="M134.78,90.26c0,13.33-6.62,24.11-27.34,24.11S78.83,103.59,78.83,90.26,86.72,66.1,107.44,66.1,134.78,76.93,134.78,90.26Z"/><path class="cls-6" d="M107.44,117C97,117,89,114.36,83.56,109.2c-4.8-4.59-7.34-11.14-7.34-18.94s2.54-14.36,7.34-19C89,66.11,97,63.48,107.44,63.48s18.24,2.65,23.32,7.88c4.4,4.54,6.63,10.9,6.63,18.9s-2.23,14.35-6.64,18.87C125.69,114.34,117.84,117,107.44,117Zm0-48.27c-9,0-15.87,2.14-20.27,6.35-3.8,3.65-5.73,8.76-5.73,15.2s1.93,11.53,5.73,15.16c4.4,4.21,11.22,6.34,20.27,6.34,16.64,0,24.73-7,24.73-21.5,0-6.6-1.74-11.73-5.16-15.26C123,70.82,116.37,68.71,107.44,68.71Z"/><path class="cls-6" d="M142.93,20.77C153.55,34,165.17,42.23,168.88,39.24S167,23.14,156.35,10"/><path class="cls-6" d="M166.94,42.47c-2.63,0-6-1.42-10-4.27a86.41,86.41,0,0,1-16.09-15.79L145,19.13A82.73,82.73,0,0,0,159.5,33.57c5,3.64,7.32,3.8,7.74,3.63.25-.37.6-2.71-1.9-8.33a83.22,83.22,0,0,0-11-17.27l4.06-3.28a86,86,0,0,1,12,19.08c3,6.89,3,11.56.13,13.87A5.53,5.53,0,0,1,166.94,42.47Z"/><path class="cls-4" d="M111.51,80.7c.08-6.64-2.52-12-5.81-12.09s-6,5.31-6.11,12"/><path class="cls-4" d="M112,80.71l-1,0a19.14,19.14,0,0,0-1.59-8.29c-1-2.09-2.33-3.26-3.71-3.27h0c-2.93,0-5.47,5.22-5.54,11.43H99.07c.09-7,3-12.47,6.59-12.47h0c1.8,0,3.45,1.4,4.64,3.87A20.21,20.21,0,0,1,112,80.71Z"/><path class="cls-4" d="M156.61,34.7c4,5.23,9.64,7.65,12.55,5.41s2-8.3-2-13.52"/><path class="cls-4" d="M166.51,43.56a10.86,10.86,0,0,1-4.25-1,20.39,20.39,0,0,1-7.73-6.31l4.15-3.19a15.17,15.17,0,0,0,5.65,4.7c1.4.61,2.64.7,3.24.24s.83-1.68.6-3.19a15.15,15.15,0,0,0-3.08-6.67L169.23,25a20.31,20.31,0,0,1,4.11,9.1c.53,3.53-.39,6.4-2.59,8.09A6.82,6.82,0,0,1,166.51,43.56Z"/><path class="cls-6" d="M52.14,12.93c-10.66,13.15-16.3,26.25-12.6,29.25s15.34-5.24,26-18.4"/><path class="cls-6" d="M41.48,45.41a5.5,5.5,0,0,1-3.59-1.2c-2.86-2.32-2.8-7,.17-13.88a86.38,86.38,0,0,1,12-19l4.06,3.29A83.21,83.21,0,0,0,43.11,31.82c-2.52,5.61-2.17,8-1.93,8.32.42.17,2.79,0,7.75-3.6a83.51,83.51,0,0,0,14.58-14.4l4.06,3.29A86.41,86.41,0,0,1,51.44,41.17C47.44,44,44.11,45.41,41.48,45.41Z"/><path class="cls-4" d="M41.4,29.22c-4.27,5-5.46,11-2.65,13.41s8.53.24,12.8-4.79"/><path class="cls-4" d="M41.67,46.23a7,7,0,0,1-4.61-1.61c-4-3.42-3-10.76,2.35-17.09l4,3.38A15.33,15.33,0,0,0,40,37.43c-.3,1.49-.13,2.72.45,3.21,1.22,1,5.49-.22,9.12-4.49l4,3.38C49.88,43.84,45.42,46.23,41.67,46.23Z"/><ellipse class="cls-2" cx="59.04" cy="167.47" rx="15.41" ry="11.1"/><path class="cls-2" d="M59,178.71c-8.58,0-15.55-5-15.55-11.24s7-11.23,15.55-11.23,15.54,5,15.54,11.23S67.61,178.71,59,178.71Zm0-22.21c-8.43,0-15.29,4.92-15.29,11s6.86,11,15.29,11,15.28-4.93,15.28-11S67.46,156.5,59,156.5Z"/><ellipse class="cls-2" cx="151" cy="167.47" rx="15.41" ry="11.1"/><path class="cls-2" d="M151,178.71c-8.57,0-15.55-5-15.55-11.24s7-11.23,15.55-11.23,15.55,5,15.55,11.23S159.57,178.71,151,178.71Zm0-22.21c-8.43,0-15.28,4.92-15.28,11s6.85,11,15.28,11,15.28-4.93,15.28-11S159.43,156.5,151,156.5Z"/></svg>
