<svg xmlns="http://www.w3.org/2000/svg" width="219" height="255" viewBox="0 0 219 255"><defs><style>.cls-1{fill:#c4c4c4;opacity:0.3;}.cls-2{fill:#d6d1c3;}.cls-3{fill:#844f2a;}.cls-4{fill:#955c29;}.cls-5{fill:#ac7b42;}.cls-6{fill:#e8eae5;}.cls-7{fill:#17120f;}.cls-8{fill:#161410;}.cls-9{fill:#fff;}</style></defs><title>Shiba_Inu</title><g id="Shiba_Inu" data-name="Shiba Inu"><ellipse class="cls-1" cx="110.2" cy="212.87" rx="98.2" ry="35.13"/><path class="cls-2" d="M173.64,178.62c-6.32,23.63,7.89,46.61,4.81,48-21,9.6-18.14-14.12-17.7-39.94s-3.1-41.84,2-48C170.1,129.83,202.71,69.93,173.64,178.62Z"/><path class="cls-3" d="M102.87,76c-25.53,5.06-16.43-14.4-26.29-11.88-19.64,5-2.53,28.57-26.79,37.92-22.54,8.69-11.63-50.55,14.91-54.6C108.55,40.75,110.85,74.41,102.87,76Z"/><path class="cls-4" d="M189.06,113.15c1.76-28.66,1.77-60.92-16.18-66.73-16-5.18-15.41,31.09-16.68,62.94-1.1,27.76-55.1,39.68-20.72,53.84C151,169.6,186.91,148.16,189.06,113.15Z"/><path class="cls-2" d="M93,126c-4.8,28.06-34.82,50.69-36.9,42.21-3.29-13.39,15.67-4.8,3.54-38.92-6-16.88,11.92-37.36,20.47-35.64S95.85,109.46,93,126Z"/><path class="cls-4" d="M185.52,128.06c-4.89,20.57-39.22,49.34-73.05,27.3-50-32.6-74-37.79-70.52-58.64C47,66.39,72,87.62,122.84,74.22,165,63.09,190.41,107.5,185.52,128.06Z"/><path class="cls-5" d="M134.46,190.24c-8.34,35.39,22.75,44.74,8.85,49.55-25.38,8.76-24-16-24-42s-3.48-47,4.55-47S147,136.88,134.46,190.24Z"/><path class="cls-5" d="M63.94,133.12c-6.32,14.41-28.76,50.68-30.83,42.21-3.29-13.4,9.6-4.8-2.53-38.93-6-16.87,12.17-55.3,20.72-53.58S70.7,117.71,63.94,133.12Z"/><path class="cls-5" d="M31.84,173.81c-.42-8.14,9.81-10.88,8.34.26-3.28,25,10.87,32.86,2,33.61,0,0-10.9,1.41-10.87-.75C31.59,188,32.6,188.47,31.84,173.81Z"/><path class="cls-2" d="M56.11,167.49c-.42-8.14,9.8-10.87,8.34.26-3.29,25,16.68,30.83,7.83,31.59,0,0-11.9,1.91-11.88-.25C60.66,180.13,56.87,182.15,56.11,167.49Z"/><path class="cls-5" d="M157.21,28.73C157.21,16.86,163.28,8,168.59,8s13.65,19.48,13.65,31.34"/><path class="cls-5" d="M122.58,60.58c-5-7.1-16.68-29.33-10.61-32.61,2.9-1.57,13.65,3,21.74,8.85"/><path class="cls-6" d="M123.34,55.77c-3.44-4.91-11.85-20.53-7.65-22.81,2-1.08,9.88,2.35,15.49,6.38"/><path class="cls-3" d="M124.1,52.74c-2.37-3.39-8.17-14.16-5.27-15.73,1.38-.75,6.81,1.62,10.67,4.4"/><path class="cls-6" d="M191.21,50.84C195.29,70.16,186.57,83,170,93.31c-17.08,10.6-46.76-5.51-47.77-23s5.94-36.16,25.52-40.7S189.31,41.87,191.21,50.84Z"/><path class="cls-6" d="M160,29.23c0-8.45,4.33-15.42,8.1-15.42s9.72,13.87,9.72,22.32"/><path class="cls-3" d="M163.79,30c0-4.85,2.48-8.86,4.65-8.86S174,29.11,174,34"/><path class="cls-5" d="M191,50.84c4.08,19.32-5.56-8.59-36.91,2C127.05,62,123,87.8,122,70.31s6-36.16,25.53-40.7S189.06,41.87,191,50.84Z"/><path class="cls-7" d="M167.14,68.34c1.06,2.73-3.07,6.7-4.08,7.29s-6.87.13-7.93-2.6-3.48-4.87,4.07-7.29S166.07,65.61,167.14,68.34Z"/><circle class="cls-8" cx="144.67" cy="60.5" r="2.98"/><path class="cls-8" d="M144.67,65.74a5.24,5.24,0,1,1,5.24-5.24A5.24,5.24,0,0,1,144.67,65.74Zm0-6a.74.74,0,1,0,.74.73A.73.73,0,0,0,144.67,59.77Z"/><circle cx="144.67" cy="60.63" r="1.18"/><path d="M144.67,64.06a3.43,3.43,0,1,1,3.44-3.43A3.44,3.44,0,0,1,144.67,64.06Zm0-4.5a1.07,1.07,0,1,0,1.07,1.07A1.07,1.07,0,0,0,144.67,59.56Z"/><circle cx="146.29" cy="59.01" r="0.19"/><path class="cls-9" d="M146.29,59.83a.82.82,0,1,1,.82-.82A.82.82,0,0,1,146.29,59.83Zm0-1.26a.45.45,0,1,0,.45.44A.45.45,0,0,0,146.29,58.57Z"/><path class="cls-9" d="M146.29,60.55A1.54,1.54,0,1,1,147.83,59,1.54,1.54,0,0,1,146.29,60.55Zm0-2.7A1.17,1.17,0,1,0,147.45,59,1.16,1.16,0,0,0,146.29,57.85Z"/><path class="cls-9" d="M146.29,61.18A2.17,2.17,0,1,1,148.46,59,2.17,2.17,0,0,1,146.29,61.18Zm0-2.7a.53.53,0,0,0-.53.53.53.53,0,0,0,1.06,0A.53.53,0,0,0,146.29,58.48Z"/><circle class="cls-8" cx="167.42" cy="52.67" r="2.98"/><path class="cls-8" d="M167.42,57.9a5.24,5.24,0,1,1,5.24-5.23A5.24,5.24,0,0,1,167.42,57.9Zm0-6a.74.74,0,1,0,.74.74A.74.74,0,0,0,167.42,51.93Z"/><circle cx="167.42" cy="52.79" r="1.18"/><path d="M167.42,56.22a3.43,3.43,0,1,1,3.43-3.43A3.44,3.44,0,0,1,167.42,56.22Zm0-4.5a1.07,1.07,0,1,0,1.07,1.07A1.07,1.07,0,0,0,167.42,51.72Z"/><circle cx="169.04" cy="51.18" r="0.19"/><path class="cls-9" d="M169,52a.82.82,0,1,1,.82-.81A.82.82,0,0,1,169,52Zm0-1.26a.45.45,0,1,0,.44.45A.45.45,0,0,0,169,50.73Z"/><path class="cls-9" d="M169,52.71a1.54,1.54,0,1,1,1.54-1.53A1.54,1.54,0,0,1,169,52.71Zm0-2.7a1.17,1.17,0,1,0,1.16,1.17A1.17,1.17,0,0,0,169,50Z"/><path class="cls-9" d="M169,53.34a2.17,2.17,0,1,1,2.17-2.16A2.17,2.17,0,0,1,169,53.34Zm0-2.7a.54.54,0,1,0,.53.54A.54.54,0,0,0,169,50.64Z"/></g></svg>
