<svg xmlns="http://www.w3.org/2000/svg" width="845" height="405" viewBox="0 0 845 405"><defs><style>.cls-1{fill:#fff;opacity:0.2;}</style></defs><title>Sky</title><g id="Skyerne"><path class="cls-1" d="M838.93,313.67l-4.33-18.6q-8.64-17.76-31.17-30.85l-24.52-10.94a192,192,0,0,0-59.06-9.53,45.26,45.26,0,0,0,6.65-8.92q11.37-12.5,10.43-26.94l-4.32-18.59q-8.64-17.78-31.17-30.86l-24.52-10.93a182.52,182.52,0,0,0-35.85-8c0-.7,0-1.4-.07-2.12l-4.33-18.59Q628,101,605.51,87.92L581,77q-28.35-9.49-61.16-9.55h-.54a23.07,23.07,0,0,0,4.07-11.95c0-7.71-5.94-16.93-16-22.25A79.59,79.59,0,0,0,468.82,24l-14.49,1.13a70.7,70.7,0,0,0-24.07,8.09L353.7,67.45a145.39,145.39,0,0,0-39.11,6q-22.54,4.23-39,14.46-17.73,9.51-25.06,22.51-11.37,12.5-10.43,26.94c0,.2.08.39.13.58a145.5,145.5,0,0,0-39.75,6q-22.54,4.23-39,14.46-17.73,9.5-25.06,22.51Q125,193.45,126,207.89q2.17,9.3,4.33,18.59a61.23,61.23,0,0,0,12.75,17.21,147.62,147.62,0,0,0-43.57,6.06Q77,254,60.49,264.22q-17.72,9.5-25.05,22.5Q24.06,299.23,25,313.67l4.33,18.59Q38,350,60.49,363.12L85,374.05q28.35,9.49,61.16,9.55H647.47c23.11,0,46.23.08,69.34,0h.94a149.29,149.29,0,0,0,46.69-6q22.53-4.23,39-14.46,17.73-9.51,25.06-22.51Q839.88,328.11,838.93,313.67Z"/></g></svg>
