<svg xmlns="http://www.w3.org/2000/svg" xmlns:xlink="http://www.w3.org/1999/xlink" width="1600" height="900" viewBox="0 0 1600 900"><defs><style>.cls-1{fill:#f9f9f9;}.cls-2{fill:#ffe6f4;}.cls-3{fill:url(#linear-gradient);}.cls-13,.cls-25,.cls-35,.cls-4{fill:#fff;}.cls-4{opacity:0.2;}.cls-5{fill:#ff6ea2;}.cls-6{fill:#f8efe2;}.cls-7{fill:#e1a569;}.cls-8{fill:#fcf7f0;}.cls-9{fill:#c17f4a;}.cls-10{fill:#1b1719;}.cls-11{fill:#161410;}.cls-12,.cls-13,.cls-18,.cls-35{stroke:#fff;}.cls-12,.cls-13,.cls-14,.cls-15,.cls-16,.cls-17,.cls-18,.cls-35{stroke-miterlimit:10;}.cls-12,.cls-13{stroke-width:5px;}.cls-14{fill:#ead4a7;stroke:#ead4a7;}.cls-15{fill:#e5c889;stroke:#e5c889;}.cls-16{fill:#d1a63b;stroke:#d1a63b;}.cls-17{stroke:#000;}.cls-18{stroke-width:4px;}.cls-19{fill:#d6d1c3;}.cls-20{fill:#844f2a;}.cls-21{fill:#955c29;}.cls-22{fill:#ac7b42;}.cls-23{fill:#e8eae5;}.cls-24{fill:#17120f;}.cls-26{fill:#82674a;}.cls-27{fill:#9b8262;}.cls-28{fill:#e6ddce;}.cls-29{fill:#b73d3d;}.cls-30{fill:#c6b295;}.cls-31{fill:#e7eced;}.cls-32{fill:#23150f;}.cls-33{fill:#82614a;}.cls-34{fill:#603f25;}.cls-36{fill:#c6b49e;}.cls-37{fill:#937a61;}.cls-38{fill:#353027;}.cls-39{fill:#822e5a;}</style><linearGradient id="linear-gradient" x1="800" x2="800" y2="729" gradientUnits="userSpaceOnUse"><stop offset="0" stop-color="#ff7bac"/><stop offset="0.61" stop-color="#ff7bac" stop-opacity="0.38"/><stop offset="1" stop-color="#ff7bac" stop-opacity="0"/></linearGradient></defs><title>startskaerm</title><g id="Layer_4" data-name="Layer 4"><rect class="cls-1" width="1600" height="900"/></g><g id="Layer_1" data-name="Layer 1"><rect class="cls-2" y="595" width="1600" height="308"/><rect class="cls-3" width="1600" height="729"/><path class="cls-4" d="M1380.7,186.23l-2.27-9.77q-4.54-9.35-16.38-16.22l-12.89-5.75a100.57,100.57,0,0,0-31-5,24.49,24.49,0,0,0,3.49-4.69q6-6.57,5.48-14.16-1.12-4.89-2.27-9.77-4.55-9.34-16.38-16.22l-12.89-5.74a95.25,95.25,0,0,0-18.84-4.21c0-.37,0-.75,0-1.12l-2.28-9.77q-4.53-9.33-16.37-16.22l-12.89-5.74a101.06,101.06,0,0,0-32.14-5h-.29a12.1,12.1,0,0,0,2.14-6.28c0-4.06-3.12-8.9-8.39-11.69A41.77,41.77,0,0,0,1186.21,34l-7.62.59a37.28,37.28,0,0,0-12.65,4.26l-40.23,18A76.7,76.7,0,0,0,1105.15,60a59.35,59.35,0,0,0-20.49,7.6q-9.32,5-13.17,11.83-6,6.57-5.49,14.16c0,.1,0,.2.07.3a76.72,76.72,0,0,0-20.89,3.17,59.23,59.23,0,0,0-20.49,7.6q-9.32,5-13.17,11.83-6,6.57-5.48,14.16,1.13,4.89,2.27,9.77a32,32,0,0,0,6.7,9,77.49,77.49,0,0,0-22.9,3.19,59,59,0,0,0-20.49,7.6q-9.32,5-13.17,11.83-6,6.57-5.48,14.16l2.27,9.77q4.54,9.33,16.38,16.21L984.51,218a101.3,101.3,0,0,0,32.14,5h263.44c12.14,0,24.29,0,36.44,0h.49a78.32,78.32,0,0,0,24.54-3.17,59,59,0,0,0,20.49-7.6q9.32-5,13.17-11.82Q1381.21,193.82,1380.7,186.23Z"/><path class="cls-4" d="M904.93,307.67l-4.33-18.6q-8.64-17.76-31.17-30.85l-24.52-10.94a192,192,0,0,0-59.06-9.53,45.26,45.26,0,0,0,6.65-8.92q11.37-12.5,10.43-26.94l-4.32-18.59q-8.64-17.78-31.17-30.86l-24.52-10.93a182.52,182.52,0,0,0-35.85-8c0-.7,0-1.4-.07-2.12l-4.33-18.59Q694,95,671.51,81.92L647,71q-28.35-9.49-61.16-9.55h-.54a23.07,23.07,0,0,0,4.07-11.95c0-7.71-5.94-16.93-16-22.25A79.59,79.59,0,0,0,534.82,18l-14.49,1.13a70.7,70.7,0,0,0-24.07,8.09L419.7,61.45a145.39,145.39,0,0,0-39.11,6q-22.54,4.23-39,14.46-17.73,9.51-25.06,22.51-11.37,12.5-10.43,26.94c0,.2.08.39.13.58a145.5,145.5,0,0,0-39.75,6q-22.55,4.23-39,14.46-17.73,9.5-25.06,22.51Q191,187.45,192,201.89q2.18,9.3,4.33,18.59a61.23,61.23,0,0,0,12.75,17.21,147.62,147.62,0,0,0-43.57,6.06q-22.53,4.25-39,14.47-17.71,9.5-25,22.5Q90.06,293.23,91,307.67l4.33,18.59Q104,344,126.49,357.12L151,368.05q28.35,9.49,61.16,9.55H713.47c23.11,0,46.23.08,69.34,0h.94a149.29,149.29,0,0,0,46.69-6q22.53-4.23,39-14.46,17.73-9.51,25.06-22.51Q905.88,322.11,904.93,307.67Z"/><path class="cls-5" d="M1561.82,569.16l-12.4-14.64V443.4h-8.66V415.8L1527.3,281.63,1509.64,416v26.88l-8.66.24V555.24l-11.23,13-72.07-.48-12.17,22.57V556l4.68-.24V544.2l-8.89-.24v-8.88l-38.37-.24L1322.22,507h-6.56V477.84h-11.93V507h-30V477.84h-11.93v28.92l-57.56.24s-.47-10.56-9.13-10.56-8.66,11-8.66,11h-57.32V477.84h-11.94v29.88H1088V477.84h-11v29.4l-8.66.24-41.42,28.08H990.19v8.16l-9.83-.24V556h6.08v84c-2.8-7.2-14.27-4.32-14.27-4.32l-.47-4.56c6.32-7.2-1.63-13.44-1.63-13.44s.7-17.28,0-25.2-11.47-7.2-11.47-7.2L957,583.81c5.85-.72,5.38-9.6,5.38-9.6s-2.8-16.57-16.14-15.37-9.13,12.73-9.13,12.73l-1.63,9.12,2.34.24,1.63,3.12c0,1.68,5.39,1.44,5.39,1.44l1.4,2.88-5.15,2.4-27.38-19.44-134.3,1-.24-2.89,2.81-.24.7-1.2,2.11-.24v-1.44h2.57v-1.92h-3V556l-5.62-.24V550.2h-5.84v-4.32h-4.68l.46-28.56h4.22v-8.4h-6.09l-.23-8.4s2.57-.72,2.57-6-3-4.8-3-4.8a7.85,7.85,0,0,0-4-6.24v-24l-3.51.72V446.76l-6.08-5.52v-55.3l-2.11-.14v55.68l-5.85,4.8V460l-3.27-.24V484.2c-4,1.2-4.21,5.52-4.21,5.52s-2.81-1.68-2.81,4.56S737,500,737,500v8.64h-6.79v8.64l5.38.24v27.6H730v5.76h-4.45v3.6l-5.62.24v8.4h-3v2.16l2.81.72v2.16h3v1.6q-4.05.47-8,1.27l-126.08-.22-28.31,21.6V532.92h-2.81l-.24-11.52,3.05.24V502.2c-13.11-47.76-55.23-63.36-55.23-63.36V409.08c-2.8-31.69-21.52-29-21.52-29V315.82H480l.3,64c-19.42,0-22.46,29-22.46,29v30c-40,14.16-53.58,64.8-53.58,64.8l.23,19.44h3.74v10.08H405V597l-9.6-.24v16.08h-6.55V589.09l2.58-.24V572.53l-31.59-21.37V512.28l-7.72-26.88L343,512.52V538.2h-3v-6.72H327.77v6l-6.55-.24v-5L306.71,532v5.28H300.4v-4.8l-13.81-.24v5.52H279.1v-5.28H266.47v6.24l-6.79-.24V532.2l-12.87.24v5.28h-7v-5l-12.63-.48v6h-3.75V437.64l-10.06-16.08V405l3.28-.24L202,333.86l.42-59.86h-3.06v59.23l-15.21,72h5.39V421.8l-10.77,15.6V555.48l-23.63,15.85v17.52l1.64.24v5.76h-1.17l-23.4-52.57H95.66V497.64h-4V453.72l-4-.24V408.6l-1.87,1v-25.2l-9.59,4.56V376.43s8.19-.72,8.19-11S76,355.31,76,355.31V335.15H74.13v20.4s-9.59-.24-9.36,10.08,9.36,10.8,9.36,10.8v13l-10.06,5v25l-3.28,1.92V453H57.52v44.16H54.24v44.4H18.68L0,554.6v51.54H-.32v61.13a61.87,61.87,0,1,0,94.15,80.15,61.84,61.84,0,0,0,84.9-22.2c.65,0,1.29,0,1.94,0a57.09,57.09,0,0,0,6.84-.43,32.81,32.81,0,0,0,46.21,4.38,55.48,55.48,0,0,0,84.55.2,53.47,53.47,0,0,0,67.91,6,22.7,22.7,0,0,0,40.05-10.53l2,.34a22.71,22.71,0,0,0,32.25,1.55,136.52,136.52,0,0,0,32.35-5.7A32.83,32.83,0,0,0,539.3,731.1a83.27,83.27,0,0,0,125-9.54A91.85,91.85,0,0,0,800,724.28a32.82,32.82,0,0,0,37.14,10.43,47.44,47.44,0,0,0,80.09-11.42,32.81,32.81,0,0,0,35-3.86,32.81,32.81,0,0,0,52.78,7A87.32,87.32,0,0,0,1140.17,735a91.86,91.86,0,0,0,122.35-12,57,57,0,0,0,88.25,9,32.84,32.84,0,0,0,46.51-13.61,61.88,61.88,0,0,0,110.88-6,55.48,55.48,0,0,0,42.6,4.54A55.51,55.51,0,0,0,1600,746.85V569.16Z"/></g><g id="Layer_2" data-name="Layer 2"><path class="cls-6" d="M618.16,713.73c-4.48,23.78,11.67,75.83-14.73,76.92-24.81,1,15.13-20-17.06-60.55-16.24-20.47-31-24.62-5.5-31.35S623,688.05,618.16,713.73Z"/><path class="cls-7" d="M624.89,686.33c20.52,20.8-9.17,103.13-53.38,117.71S484,808,474.87,780.2s-8.86-90.42,34-72.21C549.46,725.24,604.37,665.54,624.89,686.33Z"/><path class="cls-7" d="M538.27,784.41c-6.13,28-10.4,71.27-32,61.3-18.63-8.61,17.59-14.93,5.06-50.11-5.92-16.64-8.08-36.78,7.6-36.78S542.05,767.16,538.27,784.41Z"/><path class="cls-6" d="M528.94,759.18c20.85,20.68,87.77,30,42.4,45s-89.57,4.59-98.72-23.16-8.37-90.58,35.34-72.66C549.39,725.36,508.1,738.49,528.94,759.18Z"/><path d="M551.2,714.65c0,16.82-18.08,30.45-40.38,30.45s-40.38-13.63-40.38-30.45,23.36-28.18,45.66-28.18S551.2,697.83,551.2,714.65Z"/><path d="M510.82,745.23c-22.34,0-40.51-13.72-40.51-30.58,0-7.86,5.16-15.14,14.53-20.51,8.65-5,20.05-7.81,31.26-7.81,21.73,0,35.23,10.85,35.23,28.32C551.33,731.51,533.16,745.23,510.82,745.23Zm5.28-58.63c-11.17,0-22.51,2.83-31.13,7.77-9.28,5.32-14.39,12.52-14.39,20.28,0,16.72,18.05,30.32,40.24,30.32s40.24-13.6,40.24-30.32C551.06,697.35,537.66,686.6,516.1,686.6Z"/><path class="cls-8" d="M556.13,687.09c0,28.36-21,51.35-47,51.35s-41.24-23.14-41.24-51.5,21.44-47.38,47.38-47.38S556.13,658.73,556.13,687.09Z"/><path class="cls-7" d="M663,737.5c-10.4,21.86-8,76.3-33.85,70.63-24.25-5.33,19.72-15.46-1.06-62.9-10.49-23.93-36.42-63.43-10-63.43S674.22,713.91,663,737.5Z"/><path class="cls-6" d="M566.52,805.46c-6.13,28-16.26,69.94-37.84,60-18.64-8.6,11.19-22.92,5.06-50.1-3.89-17.23-8.08-36.78,7.6-36.78S570.3,788.21,566.52,805.46Z"/><path class="cls-7" d="M513.09,643.56c5,6.83-5.65,33.65-17.59,42.37s-20.07,5.77-25.06-1.06.74-26.71,12.69-35.43S508.09,636.72,513.09,643.56Z"/><path class="cls-7" d="M525.5,641.29c8.11-.66,6.77.67,20.63,17.73,9.33,11.48,13.83,32.75,5.8,35.43s-25.22-8.8-29.91-22.83S517.06,642,525.5,641.29Z"/><path class="cls-9" d="M468.84,674.74c-17.85-31.45-17.25-66.73-6.53-71s30.39,28,40,36.52"/><path class="cls-9" d="M555.46,680.34c26.65-26.12,30.26-53.82,21.46-60.1s-15.6.66-44.65,22"/><path class="cls-6" d="M475.77,667.54c-9.93-17.48-14.09-46-8.13-48.37,7.62-3,20.87,22.17,27.86,28.39"/><path class="cls-6" d="M551.2,673.14c17.2-16.86,22.33-37.34,16.64-41.39s-13.08,2.84-31.83,16.6"/><path class="cls-10" d="M524.94,692.45c0,4.22-3.94,7.87-9.81,7.87s-9.11-4.24-9.11-8.46,5.06-8.46,10.93-8.46S524.94,688.23,524.94,692.45Z"/><circle class="cls-11" cx="532.21" cy="671.62" r="3.53"/><path class="cls-11" d="M532.21,677.82a6.2,6.2,0,1,1,6.19-6.2A6.21,6.21,0,0,1,532.21,677.82Zm0-7.07a.87.87,0,1,0,.86.87A.87.87,0,0,0,532.21,670.75Z"/><circle cx="532.21" cy="671.77" r="1.4"/><path d="M532.21,675.83a4.06,4.06,0,1,1,4.06-4.06A4.07,4.07,0,0,1,532.21,675.83Zm0-5.33a1.27,1.27,0,1,0,1.26,1.27A1.27,1.27,0,0,0,532.21,670.5Z"/><circle class="cls-12" cx="534.12" cy="669.86" r="0.22"/><path class="cls-13" d="M534.12,671.68a1.82,1.82,0,1,1,1.82-1.82A1.83,1.83,0,0,1,534.12,671.68Zm0-3.2a1.38,1.38,0,1,0,1.38,1.38A1.38,1.38,0,0,0,534.12,668.48Z"/><circle class="cls-11" cx="497.03" cy="671.62" r="3.53"/><path class="cls-11" d="M497,677.82a6.2,6.2,0,1,1,6.19-6.2A6.21,6.21,0,0,1,497,677.82Zm0-7.07a.87.87,0,1,0,.86.87A.87.87,0,0,0,497,670.75Z"/><circle cx="497.03" cy="671.77" r="1.4"/><path d="M497,675.83a4.06,4.06,0,1,1,4.06-4.06A4.07,4.07,0,0,1,497,675.83Zm0-5.33a1.27,1.27,0,1,0,1.26,1.27A1.27,1.27,0,0,0,497,670.5Z"/><circle class="cls-12" cx="498.94" cy="669.86" r="0.22"/><path class="cls-13" d="M498.94,671.68a1.82,1.82,0,1,1,1.82-1.82A1.83,1.83,0,0,1,498.94,671.68Zm0-3.2a1.38,1.38,0,1,0,1.38,1.38A1.38,1.38,0,0,0,498.94,668.48Z"/><path class="cls-14" d="M1029.5,814.93c-12.89,14.55,41.33,26.45-20.17,20.17-9.44-1-12.17,3-9.91-23.14,1.26-14.73,11-22.29,20.25-20.29S1038.28,805,1029.5,814.93Z"/><path class="cls-15" d="M1051,831.46h-4a4,4,0,0,1-4-4V703.19a4,4,0,0,1,4-4h4c2.18,0,5.29,1.79,5.29,4l-2.31,124C1054,829.35,1053.17,831.46,1051,831.46Z"/><path class="cls-16" d="M1037.44,754.76c37-67.11,13.88-53.88-18.55-98.77C1000,629.82,975,679.06,954.12,736.91c-17.65,49-65.46,101.41,25.46,98.52C1021.24,834.11,1005.77,812.16,1037.44,754.76Z"/><path class="cls-16" d="M1044.05,677.73c27.18,49.08-2.07,15-8.07,16.57s-13-5.38-15.7-15.53,2.64-16,6-21.24C1053,616.9,1032.15,656.24,1044.05,677.73Z"/><path class="cls-16" d="M988.84,572.27c3.91,26.74-.35,92.42-11.57,95.88-8.6,2.64-26.12-28.11-32.07-54.88"/><path class="cls-14" d="M1056.27,634.38c-7.94,31.33-42,37.29-62.47,32.11s-36.37-20.16-11.56-50.87c20.31-25.13-20.51-50.29,51.38-47.34C1088.64,570.53,1064.2,603.05,1056.27,634.38Z"/><path class="cls-15" d="M982.24,615.62c20.31-25.13-20.51-50.29,51.38-47.34,55,2.25,30.58,34.77,22.65,66.1"/><path class="cls-16" d="M1115.46,603.35c-13.35,25.57-49.61,72.83-65,64.81s-2.59-72,10.76-97.54"/><path class="cls-17" d="M1000.08,638.06c0,4.66-8.76,8.27-9.92,8.27s-7.94-3.61-7.94-8.27-1-7.26,9.26-6.94C1002.06,631.45,1000.08,633.4,1000.08,638.06Z"/><path class="cls-15" d="M1059.26,827c0-9.42-3.83-6.1-8.1-4.79-9.76,3-7.62,2.19-8.1,4.79-1.33,7.11,3.79,6.45,8.26,6.45C1059.92,833.45,1059.26,829.65,1059.26,827Z"/><path class="cls-15" d="M997.43,753.44c11.22-63.48-1.46-87.28-6.94-87.28s-13.6.83-11.9,87.28c1.65,84-7.28,84.31,1.65,84C988.18,837.12,981.89,841.38,997.43,753.44Z"/><path class="cls-15" d="M985.86,837.58c0-1.55-2.13-7.77-5-7.77s-5.29,6.22-5.29,7.77,2.3,2.81,5.13,2.81S985.86,839.13,985.86,837.58Z"/><rect class="cls-16" x="901.49" y="687.13" width="11.32" height="155.4" rx="5.07" ry="5.07" transform="translate(-229.66 424.91) rotate(-23.49)"/><path class="cls-14" d="M961.73,818.9c-12.9,14.55,41.32,26.45-20.17,20.17-9.45-1-12.17,3-9.92-23.14,1.27-14.73,11-22.29,20.25-20.3S970.51,809,961.73,818.9Z"/><circle class="cls-17" cx="1033.46" cy="595.19" r="5.77"/><circle class="cls-18" cx="1030.96" cy="597.74" r="0.58"/><circle class="cls-17" cx="995.44" cy="594.53" r="5.77"/><circle class="cls-18" cx="992.94" cy="597.07" r="0.58"/><path class="cls-19" d="M414.4,731.82c-10,37.41,12.49,73.81,7.6,76-33.27,15.2-28.71-22.35-28-63.23.7-41.1-4.91-66.25,3.2-76C408.79,654.58,460.42,559.73,414.4,731.82Z"/><path class="cls-20" d="M302.34,569.34c-40.42,8-26-22.81-41.62-18.81-31.1,8-4,45.22-42.42,60-35.69,13.75-18.41-80,23.61-86.44C311.34,513.54,315,566.83,302.34,569.34Z"/><path class="cls-21" d="M438.81,628.17c2.78-45.38,2.8-96.45-25.61-105.65-25.34-8.21-24.42,49.22-26.42,99.64C385,666.11,299.54,685,354,707.41,378.6,717.55,435.41,683.59,438.81,628.17Z"/><path class="cls-19" d="M286.73,648.58c-7.6,44.42-55.13,80.25-58.42,66.83-5.21-21.21,24.81-7.6,5.6-61.63-9.5-26.71,18.87-59.15,32.41-56.43S291.23,622.33,286.73,648.58Z"/><path class="cls-21" d="M433.21,651.78c-7.75,32.56-62.1,78.11-115.66,43.22-79.24-51.63-117.16-59.83-111.65-92.85,8-48,47.62-14.4,128.06-35.61C400.78,548.92,441,619.22,433.21,651.78Z"/><path class="cls-22" d="M352.37,750.23c-13.21,56,36,70.83,14,78.44-40.19,13.88-38-25.33-38-66.44s-5.51-74.43,7.2-74.43S372.28,665.74,352.37,750.23Z"/><path class="cls-22" d="M240.71,659.78c-10,22.81-45.53,80.25-48.82,66.84-5.2-21.22,15.21-7.61-4-61.64-9.5-26.71,19.27-87.55,32.81-84.84S251.41,635.39,240.71,659.78Z"/><path class="cls-22" d="M188.91,723.23c-.67-12.9,15.52-17.22,13.2.4-5.2,39.62,17.21,52,3.21,53.23,0,0-17.26,2.22-17.21-1.2C188.51,745.64,190.11,746.44,188.91,723.23Z"/><path class="cls-19" d="M228.31,714.21c-.67-12.9,15.52-17.23,13.2.4-5.2,39.62,26.42,48.82,12.41,50,0,0-18.86,3-18.81-.4C235.51,734.22,229.51,737.42,228.31,714.21Z"/><path class="cls-22" d="M388.38,494.5c0-18.79,9.61-32.81,18-32.81S428,492.52,428,511.31"/><path class="cls-22" d="M333.56,544.93c-7.86-11.23-26.42-46.43-16.81-51.63,4.59-2.48,21.61,4.8,34.42,14"/><path class="cls-23" d="M334.76,537.32c-5.45-7.78-18.78-32.5-12.11-36.11,3.18-1.72,15.63,3.72,24.51,10.1"/><path class="cls-20" d="M336,532.52c-3.76-5.37-12.95-22.41-8.35-24.9,2.19-1.19,10.78,2.56,16.9,7"/><path class="cls-23" d="M442.21,529.52c6.46,30.58-7.34,50.92-33.62,67.23-27,16.79-74-8.72-75.63-36.42s9.41-57.24,40.42-64.43S439.21,515.31,442.21,529.52Z"/><path class="cls-23" d="M392.79,495.3c0-13.38,6.84-24.41,12.82-24.41s15.39,22,15.39,35.34"/><path class="cls-20" d="M398.79,496.52c0-7.69,3.93-14,7.37-14S415,495.11,415,502.8"/><path class="cls-22" d="M441.81,529.52c6.46,30.58-8.8-13.61-58.43,3.2-42.75,14.48-49.22,55.31-50.82,27.61S342,503.09,373,495.9,438.81,515.31,441.81,529.52Z"/><path class="cls-24" d="M404.09,557.22c1.69,4.33-4.85,10.6-6.45,11.54s-10.87.21-12.56-4.12-5.5-7.71,6.45-11.54S402.41,552.9,404.09,557.22Z"/><circle class="cls-11" cx="368.53" cy="544.81" r="4.72"/><path class="cls-11" d="M368.53,553.1a8.29,8.29,0,1,1,8.29-8.29A8.3,8.3,0,0,1,368.53,553.1Zm0-9.45a1.16,1.16,0,1,0,1.16,1.16A1.16,1.16,0,0,0,368.53,543.65Z"/><circle cx="368.53" cy="545.01" r="1.87"/><path d="M368.53,550.44A5.43,5.43,0,1,1,374,545,5.43,5.43,0,0,1,368.53,550.44Zm0-7.12a1.69,1.69,0,1,0,1.69,1.69A1.69,1.69,0,0,0,368.53,543.32Z"/><circle cx="371.09" cy="542.45" r="0.3"/><path class="cls-25" d="M371.09,543.75a1.3,1.3,0,1,1,1.3-1.3A1.3,1.3,0,0,1,371.09,543.75Zm0-2a.7.7,0,0,0-.71.7.71.71,0,0,0,.71.71.7.7,0,0,0,.7-.71A.7.7,0,0,0,371.09,541.75Z"/><path class="cls-25" d="M371.09,544.88a2.43,2.43,0,1,1,2.43-2.43A2.43,2.43,0,0,1,371.09,544.88Zm0-4.27a1.84,1.84,0,1,0,1.84,1.84A1.84,1.84,0,0,0,371.09,540.61Z"/><path class="cls-25" d="M371.09,545.88a3.43,3.43,0,1,1,3.43-3.43A3.44,3.44,0,0,1,371.09,545.88Zm0-4.27a.84.84,0,1,0,.84.84A.85.85,0,0,0,371.09,541.61Z"/><circle class="cls-11" cx="404.55" cy="532.41" r="4.72"/><path class="cls-11" d="M404.55,540.69a8.29,8.29,0,1,1,8.29-8.28A8.29,8.29,0,0,1,404.55,540.69Zm0-9.44a1.16,1.16,0,1,0,1.16,1.16A1.16,1.16,0,0,0,404.55,531.25Z"/><circle cx="404.55" cy="532.6" r="1.87"/><path d="M404.55,538A5.44,5.44,0,1,1,410,532.6,5.44,5.44,0,0,1,404.55,538Zm0-7.13a1.7,1.7,0,1,0,1.69,1.69A1.7,1.7,0,0,0,404.55,530.91Z"/><circle cx="407.11" cy="530.04" r="0.3"/><path class="cls-25" d="M407.11,531.34a1.3,1.3,0,1,1,1.29-1.29A1.3,1.3,0,0,1,407.11,531.34Zm0-2a.71.71,0,1,0,0,1.41.71.71,0,0,0,0-1.41Z"/><path class="cls-25" d="M407.11,532.48a2.44,2.44,0,1,1,2.43-2.44A2.44,2.44,0,0,1,407.11,532.48Zm0-4.28A1.85,1.85,0,1,0,409,530,1.85,1.85,0,0,0,407.11,528.2Z"/><path class="cls-25" d="M407.11,533.48a3.44,3.44,0,1,1,3.43-3.43A3.44,3.44,0,0,1,407.11,533.48Zm0-4.28a.85.85,0,1,0,.84.85A.84.84,0,0,0,407.11,529.2Z"/><path class="cls-26" d="M1353.22,688.18c-12,47.56-3.53,106.88-13.75,106.88-20.87,0-20.6-51.87-20.6-99.53S1245,628.05,1333.78,570C1391.88,532.05,1364.83,642.4,1353.22,688.18Z"/><path class="cls-26" d="M1256.46,675.05c-12,46-3.53,103.41-13.75,103.41-20.87,0-20.6-50.19-20.6-96.29s-77.11-86.8,14.2-83.48C1288.72,600.6,1268.07,630.76,1256.46,675.05Z"/><path class="cls-27" d="M1299.15,685c-12.05,46-3.53,103.4-13.75,103.4-20.87,0-20.6-50.19-20.6-96.29s-108.18-84.19,14.2-83.48C1383.2,609.26,1310.75,640.72,1299.15,685Z"/><ellipse class="cls-28" cx="1150.16" cy="549.36" rx="33.26" ry="35.1"/><path class="cls-27" d="M1369,587.78c-2.63,45.1-62.83,102.73-103.4,70.67-68.92-54.45-124.34-30.13-125.86-64-2.28-51,19.58-71.15,83.28-71.15S1372,536.79,1369,587.78Z"/><ellipse class="cls-27" cx="1324.97" cy="516.2" rx="82.73" ry="19.55" transform="translate(714.45 1800.44) rotate(-85.86)"/><rect class="cls-29" x="1291.72" y="529.46" width="58.03" height="13.28" rx="5.9" ry="5.9" transform="translate(222.96 -373.09) rotate(17.54)"/><ellipse class="cls-30" cx="1375.96" cy="479.13" rx="35.83" ry="70.61" transform="matrix(0.99, -0.15, 0.15, 0.99, -57.29, 217.18)"/><ellipse class="cls-30" cx="1281.48" cy="473.88" rx="63.56" ry="32.25" transform="translate(443.45 1552.97) rotate(-72.46)"/><path class="cls-27" d="M1185.79,653.24c-13.28,46-17.2,94.86-28.46,94.86S1145,699.34,1145,653.24s-19.21-82.3,15.65-83.48C1257,566.48,1198.58,608.94,1185.79,653.24Z"/><path class="cls-28" d="M1200.49,781.06c14.71,56.21-17.77,53.84-41.74,53.84s-50.27,12.33-45.06-53.84c2.18-27.55,19.43-50,43.4-50S1193.5,754.33,1200.49,781.06Z"/><path class="cls-28" d="M1276.86,781.06c14.7,56.21-17.77,53.84-41.74,53.84s-50.28,12.33-45.06-53.84c2.17-27.55,19.43-50,43.4-50S1269.86,754.33,1276.86,781.06Z"/><path class="cls-28" d="M1324.76,798.14C1339.47,854.35,1307,852,1283,852s-50.27,12.34-45.06-53.83c2.18-27.55,19.43-50,43.4-50S1317.77,771.4,1324.76,798.14Z"/><path class="cls-28" d="M1386.42,794.34c14.71,56.21-17.77,53.84-41.74,53.84s-50.27,12.33-45.06-53.84c2.18-27.55,19.44-50,43.4-50S1379.43,767.61,1386.42,794.34Z"/><path class="cls-31" d="M1357,439.8c-.51-16.63-30.6-15.18-32.73-15.18-5.46,0-19.92,7.55-19.92,24.19,0,34.86,7.71,29.88,20.16,29.88S1358,470.86,1357,439.8Z"/><ellipse class="cls-28" cx="1333.06" cy="411.1" rx="48.38" ry="35.1"/><path class="cls-32" d="M1320.06,455.85c2.5,2.7-1.45,7.17-4.85,10.32s-3,2.75-5.54.05-6.45-7.88-3.05-11S1317.56,453.16,1320.06,455.85Z"/><circle class="cls-11" cx="1310.72" cy="444.18" r="2.77"/><path class="cls-11" d="M1310.72,449a4.86,4.86,0,1,1,4.86-4.86A4.87,4.87,0,0,1,1310.72,449Zm0-5.54a.69.69,0,1,0,.68.68A.69.69,0,0,0,1310.72,443.5Z"/><circle cx="1310.72" cy="444.3" r="1.1"/><path d="M1310.72,447.49a3.19,3.19,0,1,1,3.19-3.19A3.19,3.19,0,0,1,1310.72,447.49Zm0-4.18a1,1,0,1,0,1,1A1,1,0,0,0,1310.72,443.31Z"/><circle cx="1312.92" cy="442.07" r="0.03"/><polygon class="cls-25" points="1312.92 443.29 1311.73 443.29 1311.7 442.07 1311.7 440.89 1312.92 440.86 1314.1 440.86 1314.13 442.07 1314.13 443.26 1312.92 443.29"/><path class="cls-25" d="M1312.92,442.3a.23.23,0,1,1,0-.45.22.22,0,0,1,.22.22A.22.22,0,0,1,1312.92,442.3Zm0-.4a.17.17,0,0,0-.17.17.16.16,0,0,0,.17.17.17.17,0,0,0,.17-.17A.18.18,0,0,0,1312.92,441.9Z"/><path class="cls-25" d="M1312.92,443.48a1.41,1.41,0,1,1,1.41-1.41A1.41,1.41,0,0,1,1312.92,443.48Zm0-2.37a1,1,0,1,0,1,1A1,1,0,0,0,1312.92,441.11Z"/><circle class="cls-11" cx="1340.13" cy="445.61" r="2.77"/><path class="cls-11" d="M1340.13,450.47a4.86,4.86,0,1,1,4.86-4.86A4.87,4.87,0,0,1,1340.13,450.47Zm0-5.54a.68.68,0,0,0,0,1.36.68.68,0,0,0,0-1.36Z"/><circle cx="1340.13" cy="445.72" r="1.1"/><path d="M1340.13,448.91a3.19,3.19,0,1,1,3.18-3.19A3.19,3.19,0,0,1,1340.13,448.91Zm0-4.18a1,1,0,1,0,1,1A1,1,0,0,0,1340.13,444.73Z"/><circle cx="1341.38" cy="443.02" r="0.03"/><polygon class="cls-25" points="1341.38 444.24 1340.19 444.24 1340.16 443.02 1340.16 441.84 1341.38 441.81 1342.56 441.81 1342.59 443.02 1342.59 444.21 1341.38 444.24"/><path class="cls-25" d="M1341.38,443.25a.23.23,0,1,1,0-.45.22.22,0,0,1,.22.22A.22.22,0,0,1,1341.38,443.25Zm0-.4a.17.17,0,0,0-.17.17.16.16,0,0,0,.17.17.17.17,0,0,0,.17-.17A.18.18,0,0,0,1341.38,442.85Z"/><path class="cls-25" d="M1341.38,444.43a1.41,1.41,0,1,1,1.41-1.41A1.42,1.42,0,0,1,1341.38,444.43Zm0-2.37a1,1,0,1,0,1,1A1,1,0,0,0,1341.38,442.06Z"/><path class="cls-25" d="M870.18,324v-8h-8v-8h16v8h24V300h-32v-8h-8V276h8v-8h40v8h8v8h-16v-8h-24v16h32v8h8v16h-8v8Z"/><path class="cls-25" d="M926.18,324V268h48v8h8v24h-8v8h-32v16Zm16-24h24V276h-24Z"/><path class="cls-25" d="M998.18,324v-8h16V276h-16v-8h48v8h-16v40h16v8Z"/><path class="cls-25" d="M1062.18,324V268h16v48h32v8Z"/><path class="cls-25" d="M1126.18,324V268h16v48h32v8Z"/><path class="cls-25" d="M1182.18,324V268h56v8h-40v16h32v8h-32v16h40v8Z"/><path class="cls-25" d="M1270.18,324V276h-16v-8h48v8h-16v48Z"/><path class="cls-33" d="M847,400.7c-.41-3.07-.83-6.14-1.24-9.22a34.66,34.66,0,0,0-8.92-15.31l-7-5.42A34.54,34.54,0,0,0,812.89,366a25.94,25.94,0,0,0,1.9-4.42,26.17,26.17,0,0,0,3-13.37c-.41-3.08-.83-6.15-1.24-9.22a34.66,34.66,0,0,0-8.92-15.31l-7-5.43a34.72,34.72,0,0,0-10.26-4c0-.35,0-.7,0-1.05-.41-3.08-.82-6.15-1.24-9.23a34.72,34.72,0,0,0-8.92-15.31l-7-5.42a34.53,34.53,0,0,0-17.51-4.74h-.16a17.45,17.45,0,0,0,1.17-5.93,15.92,15.92,0,0,0-4.57-11c-3-2.73-6.88-4.75-11-4.57l-4.15.56a15.6,15.6,0,0,0-6.89,4l-21.92,17a40.3,40.3,0,0,0-22.37,10.16,26.1,26.1,0,0,0-7.17,11.17,26.15,26.15,0,0,0-3,13.37l0,.28A40,40,0,0,0,653,323.7a26,26,0,0,0-7.17,11.16,26.17,26.17,0,0,0-3,13.37c.41,3.07.83,6.15,1.24,9.22a35.3,35.3,0,0,0,3.65,8.54,33.51,33.51,0,0,0-30.81,21.35,26,26,0,0,0-3,13.36c.41,3.08.83,6.15,1.24,9.23a34.72,34.72,0,0,0,8.92,15.31l7,5.42a34.53,34.53,0,0,0,17.51,4.74H792.16c6.62,0,13.24,0,19.86,0h.26A33.47,33.47,0,0,0,844,414.07,26.15,26.15,0,0,0,847,400.7Z"/><path class="cls-34" d="M820.63,393.92l-1-7.12A26.82,26.82,0,0,0,812.78,375l-5.42-4.18a26.56,26.56,0,0,0-13.05-3.65,38.6,38.6,0,0,0,3.78-13.73l-1-7.12a26.71,26.71,0,0,0-6.89-11.82l-5.42-4.19a27,27,0,0,0-7.92-3.07c0-.27,0-.54,0-.81l-1-7.12A26.73,26.73,0,0,0,769,307.48l-5.42-4.19a26.7,26.7,0,0,0-13.51-3.66H750a13.55,13.55,0,0,0,.9-4.57,12.27,12.27,0,0,0-3.53-8.52,12.09,12.09,0,0,0-8.52-3.53l-3.21.43a12,12,0,0,0-5.32,3.1L713.4,299.63a26,26,0,0,0-22.81,16.46,20.27,20.27,0,0,0-2.3,10.32l0,.22a25.89,25.89,0,0,0-22.94,16.47,20.13,20.13,0,0,0-2.31,10.32l1,7.12a27.38,27.38,0,0,0,2.81,6.59,25.87,25.87,0,0,0-23.78,16.47,20.13,20.13,0,0,0-2.31,10.32l1,7.12a26.71,26.71,0,0,0,6.89,11.82l5.42,4.19a26.59,26.59,0,0,0,13.51,3.65H778.32c5.1,0,10.21,0,15.32,0h.21a20.27,20.27,0,0,0,10.32-2.3,24.12,24.12,0,0,0,14.15-14.16A20.13,20.13,0,0,0,820.63,393.92Z"/><path class="cls-35" d="M748,361.76c3.18,3.18,3.6,3.87,0,6.64-7.39,5.68-28.49,26.69-29,9.33-.37-13.21-.6-8.36-.68-24.93C718.23,336.72,741.38,355.17,748,361.76Z"/><path class="cls-36" d="M779.5,712.22c-48.06-.09-92.32,40.39-92.32,89.71s38.5,52.92,86.57,52.92,82.38-8.05,92.79-53.34C877.81,752.47,831.51,712.31,779.5,712.22Z"/><path class="cls-36" d="M779.5,710.6a94.21,94.21,0,0,0-53.13,16.9,95.94,95.94,0,0,0-34.78,43.15,84.82,84.82,0,0,0-5.94,27.59c-.39,8.56.33,17.47,3.2,25.6a40.65,40.65,0,0,0,11.07,16.92,50.09,50.09,0,0,0,17.45,9.79c15.65,5.35,32.85,5.72,49.22,5.88,17.88.18,36.21,0,53.62-4.5,14.47-3.75,27.71-11.13,36.54-23.44A75.47,75.47,0,0,0,869.39,779c-2.18-17.48-11.59-33.13-24.76-44.61a98.19,98.19,0,0,0-50.73-22.71,106.83,106.83,0,0,0-14.4-1,1.62,1.62,0,0,0,0,3.24A99,99,0,0,1,832,729c14.32,9.11,26.28,22.54,31.6,38.85s3.12,34.57-4.33,50a55.58,55.58,0,0,1-30.42,27.93c-15.29,6-32.12,7.12-48.37,7.41-9.09.16-18.2.09-27.27-.31a163.93,163.93,0,0,1-23.81-2.52c-12.72-2.46-25.75-7.51-33.17-18.75a46.11,46.11,0,0,1-6.89-20.1,80.5,80.5,0,0,1,1.41-27.2c4-17.72,13.81-33.74,27.16-46a93.82,93.82,0,0,1,48.15-23.45,85.11,85.11,0,0,1,13.43-1A1.62,1.62,0,0,0,779.5,710.6Z"/><ellipse class="cls-37" cx="775.46" cy="780.82" rx="74.96" ry="64.08"/><path class="cls-37" d="M775.46,847.5c-20.64,0-40.07-6.89-54.69-19.39s-22.87-29.4-22.87-47.28,8.12-34.68,22.87-47.29,34.05-19.39,54.69-19.39,40.06,6.89,54.69,19.39S853,762.94,853,780.83s-8.12,34.67-22.86,47.28S796.1,847.5,775.46,847.5Zm0-128.16c-39.91,0-72.37,27.58-72.37,61.49s32.46,61.48,72.37,61.48,72.36-27.58,72.36-61.48S815.36,719.34,775.46,719.34Z"/><ellipse class="cls-36" cx="775.71" cy="722.45" rx="74.96" ry="64.08"/><path class="cls-36" d="M775.71,786.69c-20.06,0-38.92-6.67-53.11-18.8s-22-28.27-22-45.44,7.82-33.3,22-45.43,33-18.81,53.11-18.81,38.93,6.68,53.11,18.81,22,28.27,22,45.43-7.82,33.3-22,45.44S795.77,786.69,775.71,786.69Zm0-128.15c-41.24,0-74.8,28.67-74.8,63.91s33.56,63.92,74.8,63.92,74.8-28.67,74.8-63.92S817,658.54,775.71,658.54Z"/><ellipse class="cls-37" cx="775.01" cy="745.38" rx="50.21" ry="40.97"/><path class="cls-37" d="M775,788.94c-14,0-27.2-4.47-37.15-12.58-10.1-8.24-15.66-19.25-15.66-31s5.56-22.74,15.66-31c9.95-8.11,23.14-12.58,37.15-12.58s27.2,4.47,37.14,12.58c10.1,8.25,15.66,19.25,15.66,31s-5.56,22.74-15.66,31C802.21,784.47,789,788.94,775,788.94ZM775,707c-26.26,0-47.62,17.21-47.62,38.38s21.36,38.37,47.62,38.37,47.61-17.21,47.61-38.37S801.26,707,775,707Z"/><circle class="cls-37" cx="740.61" cy="717.06" r="19.96"/><path class="cls-37" d="M740.61,739.61a22.56,22.56,0,1,1,22.55-22.55A22.58,22.58,0,0,1,740.61,739.61Zm0-39.92A17.37,17.37,0,1,0,758,717.06,17.39,17.39,0,0,0,740.61,699.69Z"/><circle class="cls-37" cx="811.62" cy="717.06" r="19.96"/><path class="cls-37" d="M811.62,739.61a22.56,22.56,0,1,1,22.56-22.55A22.58,22.58,0,0,1,811.62,739.61Zm0-39.92A17.37,17.37,0,1,0,829,717.06,17.38,17.38,0,0,0,811.62,699.69Z"/><circle class="cls-11" cx="740.35" cy="717.21" r="9.18"/><path class="cls-11" d="M740.35,729.63a12.43,12.43,0,1,1,12.42-12.42A12.43,12.43,0,0,1,740.35,729.63Zm0-18.36a5.94,5.94,0,1,0,5.94,5.94A5.95,5.95,0,0,0,740.35,711.27Z"/><circle class="cls-11" cx="811.44" cy="717.02" r="9.18"/><path class="cls-11" d="M811.44,729.44A12.43,12.43,0,1,1,823.87,717,12.43,12.43,0,0,1,811.44,729.44Zm0-18.36a5.94,5.94,0,1,0,5.94,5.94A5.94,5.94,0,0,0,811.44,711.08Z"/><circle cx="740.16" cy="717.02" r="3.63"/><path d="M740.16,723.89A6.88,6.88,0,1,1,747,717,6.88,6.88,0,0,1,740.16,723.89Zm0-7.27a.4.4,0,0,0,0,.79.4.4,0,0,0,0-.79Z"/><circle cx="811.44" cy="717.4" r="3.63"/><path d="M811.44,724.27a6.88,6.88,0,1,1,6.88-6.87A6.88,6.88,0,0,1,811.44,724.27Zm0-7.26a.39.39,0,0,0-.39.39.4.4,0,0,0,.39.39.39.39,0,0,0,.39-.39A.38.38,0,0,0,811.44,717Z"/><circle cx="744.37" cy="712.81" r="0.57"/><path class="cls-25" d="M744.37,715.33a2.52,2.52,0,1,1,2.51-2.52A2.52,2.52,0,0,1,744.37,715.33Zm0-3.89a1.37,1.37,0,1,0,1.37,1.37A1.37,1.37,0,0,0,744.37,711.44Z"/><circle cx="816.42" cy="712.43" r="0.57"/><path class="cls-25" d="M816.42,714.94a2.52,2.52,0,1,1,2.51-2.51A2.52,2.52,0,0,1,816.42,714.94Zm0-3.89a1.38,1.38,0,1,0,1.37,1.38A1.38,1.38,0,0,0,816.42,711.05Z"/><path class="cls-38" d="M811.48,758.06c0,16.54-8.21,29.92-33.93,29.92s-35.5-13.38-35.5-29.92,9.79-30,35.5-30S811.48,741.52,811.48,758.06Z"/><path class="cls-38" d="M777.55,791.23c-13,0-22.93-3.25-29.63-9.66-6-5.7-9.12-13.83-9.12-23.51s3.15-17.82,9.12-23.54c6.7-6.43,16.68-9.69,29.63-9.69s22.64,3.29,28.94,9.78c5.46,5.63,8.24,13.52,8.24,23.45s-2.78,17.81-8.25,23.43C800.19,788,790.46,791.23,777.55,791.23Zm0-59.91c-11.23,0-19.69,2.65-25.15,7.88-4.72,4.53-7.11,10.87-7.11,18.86s2.39,14.31,7.11,18.82c5.46,5.22,13.92,7.86,25.15,7.86,20.65,0,30.69-8.73,30.69-26.68,0-8.19-2.15-14.56-6.41-18.94C796.81,733.94,788.64,731.32,777.55,731.32Z"/><path class="cls-38" d="M821.59,671.83c13.19,16.36,27.61,26.63,32.21,22.92s-2.36-20-15.55-36.34"/><path class="cls-38" d="M851.4,698.76c-3.27,0-7.4-1.77-12.36-5.3-6.32-4.5-13.41-11.46-20-19.6l5-4.06a102.7,102.7,0,0,0,18,17.91c6.15,4.52,9.08,4.71,9.6,4.51.31-.46.75-3.37-2.36-10.34a103,103,0,0,0-13.67-21.44l5-4.07c6.55,8.14,11.85,16.55,14.9,23.68,3.66,8.56,3.71,14.35.15,17.22A6.85,6.85,0,0,1,851.4,698.76Z"/><path class="cls-11" d="M782.61,746.2c.09-8.24-3.14-15-7.22-15s-7.48,6.59-7.57,14.83"/><path class="cls-11" d="M783.25,746.21l-1.29,0a23.8,23.8,0,0,0-2-10.29c-1.25-2.6-2.88-4-4.6-4.06h0c-3.65,0-6.79,6.48-6.89,14.19l-1.29,0c.1-8.69,3.69-15.47,8.17-15.47h.06c2.23,0,4.28,1.73,5.75,4.8A24.94,24.94,0,0,1,783.25,746.21Z"/><path class="cls-11" d="M838.57,689.11c5,6.49,12,9.49,15.58,6.71s2.5-10.29-2.49-16.78"/><path class="cls-11" d="M850.86,700.11a13.32,13.32,0,0,1-5.27-1.19,25.15,25.15,0,0,1-9.59-7.84l5.14-4a18.87,18.87,0,0,0,7,5.83c1.74.75,3.28.86,4,.29s1-2.08.75-4a18.87,18.87,0,0,0-3.83-8.28l5.14-3.95a25.13,25.13,0,0,1,5.11,11.28c.65,4.39-.49,7.95-3.22,10A8.46,8.46,0,0,1,850.86,700.11Z"/><path class="cls-38" d="M708.93,662.09c-13.23,16.33-20.24,32.58-15.65,36.3s19-6.5,32.27-22.83"/><path class="cls-38" d="M695.7,702.41a6.87,6.87,0,0,1-4.46-1.5c-3.55-2.88-3.48-8.67.21-17.22,3.06-7.12,8.38-15.52,15-23.64l5,4.08a102.74,102.74,0,0,0-13.73,21.41c-3.13,7-2.7,9.87-2.39,10.33.51.2,3.45,0,9.61-4.48A102.8,102.8,0,0,0,723,673.52l5,4.08c-6.58,8.12-13.69,15.06-20,19.54C703.09,700.65,699,702.41,695.7,702.41Z"/><path class="cls-11" d="M695.6,682.32c-5.3,6.23-6.77,13.68-3.3,16.64s10.59.29,15.89-6"/><path class="cls-11" d="M695.94,703.42a8.67,8.67,0,0,1-5.74-2c-5-4.25-3.74-13.36,2.93-21.21l4.94,4.2a18.89,18.89,0,0,0-4.23,8.08c-.37,1.85-.15,3.38.56,4,1.52,1.29,6.81-.28,11.32-5.58l4.94,4.2C706.12,700.46,700.58,703.42,695.94,703.42Z"/><ellipse class="cls-36" cx="717.48" cy="853.88" rx="19.13" ry="13.78"/><path class="cls-36" d="M717.48,867.83c-10.64,0-19.29-6.26-19.29-14s8.65-13.94,19.29-13.94,19.29,6.26,19.29,13.94S728.12,867.83,717.48,867.83Zm0-27.56c-10.46,0-19,6.11-19,13.61s8.51,13.62,19,13.62,19-6.11,19-13.62S727.94,840.27,717.48,840.27Z"/><ellipse class="cls-36" cx="831.61" cy="853.88" rx="19.13" ry="13.78"/><path class="cls-36" d="M831.61,867.83c-10.64,0-19.29-6.26-19.29-14s8.65-13.94,19.29-13.94,19.29,6.26,19.29,13.94S842.25,867.83,831.61,867.83Zm0-27.56c-10.46,0-19,6.11-19,13.61s8.51,13.62,19,13.62,19-6.11,19-13.62S842.07,840.27,831.61,840.27Z"/><path class="cls-25" d="M342.25,216.38l-106-11.25h108Zm4.25-24.25-106-11.25h108Zm4.25-24-106-11.25h108Zm4.25-24L249,132.88H357Zm4.25-24-106-11.25h108Zm4.25-24-106-11.25H365.25Zm4-24L261.75,60.88H369.5Zm65.5,145,9.5-55.25H406.75l-9.5,55.25h-47.5l27.5-156.25h47.5L415,116.13h35.75l9.75-55.25H508L480.5,217.13Z"/><path class="cls-25" d="M563.25,156.88q-1,8.25-1.25,11.25L456.25,156.88Zm-1.75,24a79.65,79.65,0,0,0,.75,11.25L456.5,180.88Zm4-36.75L459.75,132.88H567.5Zm4.25-24-106-11.25h108Zm-4,85a34,34,0,0,0,8,11.25L468,205.13ZM468.25,84.88H576l-2,11.25Zm110-12.75L472.5,60.88H580.25Zm53.5,106q8.75,0,12.5-2.37t5.25-10.88l18.5-104h47.5L700,148.63q-3.75,21.26-8.62,34.25a62.66,62.66,0,0,1-13.63,22,46.5,46.5,0,0,1-21.62,12.5q-12.89,3.5-32.63,3.5-30.25,0-42.37-9.12T569,180.38q0-12.24,3.5-31.75L588,60.88h47.5L614.75,178.13Z"/><path class="cls-25" d="M757.25,216.38l-106-11.25h108Zm4.25-24.25-106-11.25h108Zm4.25-24-106-11.25h108Zm4.25-24L664,132.88H772Zm4.25-24-106-11.25h108Zm4.25-24-106-11.25H780.25Zm4-24L676.75,60.88H784.5Zm44,89.5a9.82,9.82,0,0,1-1-4.87,57,57,0,0,1,.5-7.13h-2l-11.75,67.5h-47.5l27.5-156.25H837l25.5,55.5a12.77,12.77,0,0,1,.75,4.88,58.67,58.67,0,0,1-.5,7.12h2l12-67.5h47.5l-27.5,156.25H852Z"/><path class="cls-25" d="M970,216.38,864,205.13H972Zm4.25-24.25-106-11.25h108Zm4.25-24-106-11.25h108Zm4.25-24-106-11.25h108Zm4.25-24L881,108.88H989Zm4.25-24-106-11.25H993Zm4-24L889.5,60.88H997.25Zm76.25-11.25q32.25,0,45.88,11.38T1131,109.13a175.06,175.06,0,0,1-3,30q-7.5,42-25.62,60t-58.38,18H977.5L1005,60.88Zm-6.5,40h-19.75L1032,177.13h19.75q9.75,0,14.5-2.37t6.25-10.88l8.75-49.75a26.21,26.21,0,0,0,.25-4c0-3.83-1.34-6.33-4-7.5S1070.66,100.88,1065,100.88Z"/><path class="cls-25" d="M1180.25,216.38l-106-11.25h108Zm4.25-24.25-106-11.25h108Zm4.25-24-106-11.25h108Zm4.25-24-106-11.25h108Zm4.25-24-106-11.25h108Zm4.25-24-106-11.25h107.75Zm4-24L1099.75,60.88H1207.5Zm87.5,86h-47.5l-3.25,19h58.25l-7,40H1187.75l27.5-156.25h104.5l-13,40H1255.5l-3.5,21h47.5Z"/></g><g id="Layer_3" data-name="Layer 3"><path class="cls-39" d="M1491,870.82l-.4-3a11,11,0,0,0-2.87-4.93l-2.26-1.75a11,11,0,0,0-5.45-1.52,8.7,8.7,0,0,0,.62-1.43,8.39,8.39,0,0,0,1-4.3l-.4-3a11.14,11.14,0,0,0-2.88-4.94l-2.26-1.74a11,11,0,0,0-3.3-1.28c0-.12,0-.23,0-.34l-.4-3a11.13,11.13,0,0,0-2.87-4.93l-2.26-1.75a11.21,11.21,0,0,0-5.64-1.53h0a5.8,5.8,0,0,0,.37-1.91,5.13,5.13,0,0,0-1.47-3.55,5.07,5.07,0,0,0-3.56-1.47l-1.33.18a4.89,4.89,0,0,0-2.22,1.29l-7.06,5.46a8.28,8.28,0,0,0-3.61,1,11.45,11.45,0,0,0-6.87,10.21v.09a12.89,12.89,0,0,0-7.26,3.27,12.44,12.44,0,0,0-3.27,7.91c.13,1,.26,2,.4,3a11.39,11.39,0,0,0,1.17,2.75,11.49,11.49,0,0,0-10.88,11.18l.39,3a11.2,11.2,0,0,0,2.88,4.93l2.26,1.75a11,11,0,0,0,5.64,1.52h46.23c2.13,0,4.26,0,6.39,0h.09A11.48,11.48,0,0,0,1491,870.82Z"/><path class="cls-25" d="M1461.47,865.39l-5.7-1.69a1.38,1.38,0,0,0-1.25.25l-4.62,3.74a1.38,1.38,0,0,1-2.24-1l-.16-5.94a1.35,1.35,0,0,0-.62-1.11l-5-3.24a1.37,1.37,0,0,1,.29-2.45l5.6-2a1.39,1.39,0,0,0,.87-.94l1.54-5.74a1.38,1.38,0,0,1,2.42-.48l3.61,4.71a1.4,1.4,0,0,0,1.17.54l5.93-.31a1.37,1.37,0,0,1,1.2,2.15l-3.36,4.9A1.37,1.37,0,0,0,1461,858l2.12,5.55A1.37,1.37,0,0,1,1461.47,865.39Z"/><path class="cls-25" d="M1464.85,859.71l-6,1.85a1.3,1.3,0,0,0-.83.83l-1.85,6a1.26,1.26,0,0,1-2.23.35l-3.6-5.09a1.28,1.28,0,0,0-1-.54l-6.24.08a1.26,1.26,0,0,1-1-2l3.74-5A1.29,1.29,0,0,0,1446,855l-2-5.9a1.26,1.26,0,0,1,1.59-1.6l5.91,2a1.27,1.27,0,0,0,1.16-.19l5-3.73a1.26,1.26,0,0,1,2,1l-.08,6.24a1.24,1.24,0,0,0,.53,1l5.09,3.6A1.26,1.26,0,0,1,1464.85,859.71Z"/><circle class="cls-39" cx="1453.4" cy="856.66" r="5.32"/><path class="cls-39" d="M1575,871.13l-.39-2.93a11,11,0,0,0-2.84-4.87l-2.23-1.72a10.81,10.81,0,0,0-5.37-1.5,8.78,8.78,0,0,0,.6-1.41,8.27,8.27,0,0,0,1-4.25l-.39-2.93a10.89,10.89,0,0,0-2.84-4.86l-2.23-1.73a11,11,0,0,0-3.26-1.26c0-.11,0-.22,0-.34l-.39-2.93a11,11,0,0,0-2.84-4.86l-2.23-1.73a11,11,0,0,0-5.56-1.5h0a5.64,5.64,0,0,0,.37-1.89,5,5,0,0,0-5-5l-1.32.18a5,5,0,0,0-2.19,1.28l-7,5.39a11.4,11.4,0,0,0-10.33,11v.09a8.31,8.31,0,0,0-3.62,1,8.17,8.17,0,0,0-3.55,2.28,12.22,12.22,0,0,0-3.23,7.79c.13,1,.27,2,.4,2.93a11.15,11.15,0,0,0,1.16,2.72,11.35,11.35,0,0,0-10.75,11l.4,2.93a11.06,11.06,0,0,0,2.83,4.87l2.24,1.72a11,11,0,0,0,5.56,1.51h52a12.22,12.22,0,0,0,7.79-3.23,12.28,12.28,0,0,0,3.23-7.8Z"/><path class="cls-25" d="M1542.42,851.22l-11.65,12.9c-1.29,1.42.81,3.53,2.1,2.1l11.66-12.89c1.28-1.42-.82-3.53-2.11-2.11Z"/><path class="cls-25" d="M1531,853.82l12.16,12.4c1.34,1.37,3.45-.73,2.1-2.1l-12.15-12.4c-1.34-1.37-3.45.73-2.11,2.1Z"/></g></svg>
